<?xml version="1.0" encoding="utf-8"?>
<!-- Generator: Adobe Illustrator 22.1.0, SVG Export Plug-In . SVG Version: 6.00 Build 0)  -->
<svg version="1.1" id="Layer_1" xmlns="http://www.w3.org/2000/svg" xmlns:xlink="http://www.w3.org/1999/xlink" x="0px" y="0px"
	 viewBox="0 0 400 400" style="enable-background:new 0 0 400 400;" xml:space="preserve">
<style type="text/css">
	.st0{fill:#121212;}
</style>
<path class="st0" d="M34.5,43.1h26.7c86.7,0,156.9,70.2,156.9,156.9S147.9,356.9,61.2,356.9H34.5v-69h26.7
	c48.6,0,87.9-39.4,87.9-87.9s-39.4-87.9-87.9-87.9H34.5V43.1z M159.5,43.1h110.3c52.8,0,95.7,42.8,95.7,95.7
	c0,22.4-7.8,44-22.1,61.2c33.8,40.6,28.3,101-12.3,134.8c-17.2,14.3-38.8,22.1-61.2,22.1H159.5c27.2-17,49.4-40.8,64.6-69h45.7
	c14.8,0,26.7-12,26.7-26.7c0-14.8-12-26.7-26.7-26.7h-26.7c4.3-22.8,4.3-46.2,0-69h26.7c14.8,0,26.7-12,26.7-26.7
	s-12-26.7-26.7-26.7h-45.7C208.9,83.9,186.6,60.1,159.5,43.1z"/>
</svg>
