<?xml version="1.0" encoding="utf-8"?>
<!-- Generator: Adobe Illustrator 22.1.0, SVG Export Plug-In . SVG Version: 6.00 Build 0)  -->
<svg version="1.1" id="Layer_1" xmlns="http://www.w3.org/2000/svg" xmlns:xlink="http://www.w3.org/1999/xlink" x="0px" y="0px"
	 viewBox="0 0 48 48" style="enable-background:new 0 0 48 48;" xml:space="preserve">
<style type="text/css">
	.st0{fill:url(#SVGID_1_);}
	.st1{fill:#262626;}
	.st2{fill:#EDFDF6;}
	.st3{opacity:0.165;fill:#A0A0A0;enable-background:new    ;}
	.st4{fill:#121212;}
	.st5{opacity:0.165;fill:#7F7F7F;enable-background:new    ;}
</style>
<radialGradient id="SVGID_1_" cx="-163.01" cy="-399.8557" r="12.2888" gradientTransform="matrix(1.6 0 0 -0.5518 284.816 -180.4934)" gradientUnits="userSpaceOnUse">
	<stop  offset="0" style="stop-color:#000000"/>
	<stop  offset="1" style="stop-color:#000000;stop-opacity:0"/>
</radialGradient>
<path class="st0" d="M43.7,40.1c0,3.7-8.8,6.8-19.7,6.8c-10.9,0-19.7-3-19.7-6.8c0-3.7,8.8-6.8,19.7-6.8
	C34.9,33.3,43.7,36.4,43.7,40.1C43.7,40.1,43.7,40.1,43.7,40.1z"/>
<path class="st1" d="M34.1,37.6c0,2.7-2.4,4.1-4.8,4.8c-3.6,1-6.5,0.9-9.6,0c-2.5-0.7-4.8-2.2-4.8-4.8v-9c0-2.6,2.2-4.8,4.8-4.8
	l9.4-0.6c3.2,0,5.3-2,5.3-5.2l0.9-4.4h3.6c2.8,0,4.1,2.1,4.8,4.8c1,3.8,1,6.6,0,9.6c-1,2.9-2,4.8-4.8,4.8h-4.8h-9.6v0
	C32.8,32.8,34.1,29.4,34.1,37.6L34.1,37.6z"/>
<path class="st2" d="M28.1,38.2c0-1,0.8-1.8,1.8-1.8c1,0,1.8,0.8,1.8,1.8c0,1-0.8,1.8-1.8,1.8C28.9,40,28.1,39.2,28.1,38.2z"/>
<g>
	<path class="st1" d="M24.5,43.9c-1.6,0-3.3-0.2-5-0.8c-3.5-1-5.4-3-5.4-5.6l0-9.3c0-1.6,0.6-3.1,1.7-4.2c1-1,2.5-1.6,4-1.6
		c0,0,0,0,0,0l8.5,0c1.3,0,2.7-0.6,3.8-1.7c1.1-1.1,1.8-2.6,1.8-4v-4.1h5c2.8,0,4.7,1.8,5.6,5.4c1,4,1,7,0,10.1
		c-0.8,2.3-1.9,5.7-5.5,5.7h-3.5l0,3.6c0,1.8-1,4.2-5.8,5.6C27.8,43.7,26.1,43.9,24.5,43.9z M19.8,24.1c-1.1,0-2.1,0.4-2.8,1.2
		c-0.8,0.8-1.2,1.8-1.2,3l0,9.3c0,2.4,2.6,3.6,4.2,4c3.2,0.9,5.9,0.9,9.1,0c2.1-0.6,4.7-1.8,4.7-4v-3.6l-10,0v-1.6l0.8,0l14.3,0
		c2.1,0,3-1.5,4-4.6c0.9-2.8,0.9-5.4,0-9.2c-0.7-2.9-2-4.2-4-4.2h-3.4v2.4c0,1.8-0.8,3.7-2.3,5.1c-1.4,1.4-3.2,2.2-4.9,2.2
		L19.8,24.1C19.8,24.1,19.8,24.1,19.8,24.1z"/>
</g>
<path class="st3" d="M35.5,14.4v2.4c0,3.7-3.5,7.4-7.5,7.4h-8.2c-2.9,0-4,2.2-4,4.4l0.1,9c0,1,0.4,1.8,1.1,2.5
	c0.7,0.7,1.9,1.2,3.1,1.5c2.9,0.8,5.6,1,9.1,0c1.1-0.3,2.6-0.9,3.4-1.6c0.8-0.7,1.3-1.3,1.3-2.4v-3.6H23.7v-1.7l15.2,0
	c1.2,0,1.8-0.5,2.4-1.2c0.6-0.7,1.1-2,1.6-3.5c0.9-2.8,0.9-5.4,0-9.2c-0.3-1.3-0.8-2.3-1.4-3.1c-0.6-0.7-1.4-1.1-2.5-1.1L35.5,14.4z
	 M37.1,16h1.8c0.5,0,1.2,0.4,1.3,0.6c0.4,0.4,0.8,1.2,1.1,2.4c0.9,3.5,0.9,5.8,0,8.2c-0.5,1.3-0.9,2.6-1.3,3c-0.3,0.3-1,0.5-1.2,0.5
	l-4.8-0.1h-12v4.9h10.1v2c0,0.7-1,1.2-1.1,1.3c-0.5,0.4-1.4,0.8-2.3,1.1c-3.2,0.9-5.5,0.8-8.2,0c-1-0.3-1.9-0.7-2.4-1.2
	c-0.5-0.4-0.5-0.8-0.6-1.3l-0.1-9c0-2,0.6-2.8,2.4-2.8H28c4.9,0,9.1-4.4,9.1-9C37.1,16.5,37.1,16.2,37.1,16z"/>
<path class="st4" d="M14,7.3c0-2.7,0.7-4.2,4.8-4.9c2.7-0.5,6.3-0.5,9.6,0c2.6,0.4,4.8,2.4,4.8,4.9v9c0,2.6-2.1,4.8-4.8,4.8
	l-8.7,0.5c-3.2,0-6.6,2.8-6.6,6l-0.3,3.8H9.5c-2.8,0-4.4-2-5.1-4.8c-0.9-3.8-0.9-6,0-9.6c0.8-3.1,3.2-4.8,5.7-4.8h3.6c0,0,8.9,0,0,0
	V7.3l0,0L14,7.3z"/>
<path class="st2" d="M16.4,6.7c0-1,0.8-1.8,1.8-1.8c1,0,1.8,0.8,1.8,1.8c0,1-0.8,1.8-1.8,1.8C17.2,8.5,16.4,7.7,16.4,6.7z"/>
<g>
	<path class="st4" d="M14.2,32.3h-5c-2.8,0-4.7-1.8-5.6-5.4c-1-4-1-7,0-10.1c0.8-2.3,1.9-5.7,5.5-5.7h3.5l0-4.1
		c0-2.1,2.1-4.1,5.8-5.2l0,0c3.5-1,6.6-1,10,0c3.5,1,5.4,3,5.4,5.6v9.7c0,1.8-2.4,5.3-5.6,5.3h-8.9c-2,0-5.2,2.4-5.2,5.2V32.3z
		 M9.1,12.7c-2.1,0-3,1.5-4,4.6c-0.9,2.8-0.9,5.4,0,9.2c0.7,2.9,2,4.2,4,4.2h3.4v-3c0-3.7,3.7-6.8,6.8-6.8h8.9c2.3,0,4-2.8,4-3.7
		V7.4c0-2.4-2.6-3.6-4.2-4c-3.2-0.9-5.9-0.9-9.1,0c-2.8,0.8-4.7,2.2-4.6,3.6l0,4.1l10,0v1.6l-0.8,0L9.1,12.7z"/>
</g>
<path class="st5" d="M12.5,30.7v-2.8c0-3.7,3.4-7,7-7h8.7c2.2,0,4-2.2,4-4.4l-0.1-9c0-1-0.4-1.8-1.1-2.5c-0.7-0.7-1.9-1.2-3.1-1.5
	c-2.9-0.8-5.6-1-9.1,0c-1.1,0.3-2.6,0.9-3.4,1.6c-0.8,0.7-1.3,1.3-1.3,2.4v3.6h10.1v1.7L9.1,12.7c-1.2,0-1.8,0.5-2.4,1.2
	c-0.6,0.7-1.1,2-1.6,3.5c-0.9,2.8-0.9,5.4,0,9.2c0.3,1.3,0.8,2.3,1.4,3.1c0.6,0.7,1.4,1.1,2.5,1.1L12.5,30.7L12.5,30.7z M10.9,29
	H9.1c-0.5,0-1.2-0.4-1.3-0.6c-0.4-0.4-0.8-1.2-1.1-2.4c-0.9-3.5-0.9-5.8-0.1-8.2c0.5-1.3,0.9-2.6,1.3-3c0.3-0.3,1-0.5,1.2-0.5
	l16.8,0.1V9.4H15.9v-2c0-0.7,1-1.2,1.1-1.3c0.5-0.4,1.4-0.8,2.3-1.1c3.2-0.9,5.5-0.8,8.2,0c1,0.3,1.9,0.7,2.4,1.2
	c0.2,0.1,0.3,0.3,0.4,0.5c0.2,0.2,0.2,0.6,0.2,0.8v9c0,1.2-1.1,2.8-2.3,2.8h-8.7c-4.6,0-8.7,4-8.7,8.7C10.9,28.2,10.9,29,10.9,29
	L10.9,29z"/>
</svg>
