<?xml version="1.0" encoding="utf-8"?>
<!-- Generator: Adobe Illustrator 22.1.0, SVG Export Plug-In . SVG Version: 6.00 Build 0)  -->
<svg version="1.1" id="Layer_1" xmlns="http://www.w3.org/2000/svg" xmlns:xlink="http://www.w3.org/1999/xlink" x="0px" y="0px"
	 viewBox="0 0 1300 1300" style="enable-background:new 0 0 1300 1300;" xml:space="preserve">
<style type="text/css">
	.st0{display:none;}
	.st1{display:inline;}
	.st2{fill:#990000;}
	.st3{fill:#FFFFFF;}
	.st4{fill:#CC9966;}
</style>
<g id="PERM_Clock" class="st0">
	<g class="st1">
		<circle cx="650" cy="650" r="25"/>
		<path d="M902.9,892.7L690.8,680.6c-0.4-0.4-0.8-0.7-1.2-1c-2.3,4.4-6,8-10.4,10.4c0.3,0.4,0.6,0.8,1,1.2l212.1,212.1
			c1.5,1.5,3.4,2.2,5.3,2.2s3.8-0.7,5.3-2.2C905.8,900.4,905.8,895.6,902.9,892.7z"/>
		<path d="M650,600c2.3,0,4.5,0.3,6.7,0.9c0.5-1,0.8-2.2,0.8-3.4v-400c0-4.1-3.4-7.5-7.5-7.5s-7.5,3.4-7.5,7.5v400
			c0,1.2,0.3,2.4,0.8,3.4C645.5,600.3,647.7,600,650,600z"/>
	</g>
</g>
<g id="Red_Logo">
	<rect x="26.6" y="27.1" class="st2" width="1246.7" height="1246.7"/>
	<g>
		<circle class="st3" cx="650" cy="649.7" r="25"/>
		<path class="st3" d="M902.9,892.4L690.8,680.3c-0.4-0.4-0.8-0.7-1.2-1c-2.3,4.4-6,8-10.4,10.4c0.3,0.4,0.6,0.8,1,1.2L892.3,903
			c1.5,1.5,3.4,2.2,5.3,2.2s3.8-0.7,5.3-2.2C905.8,900.1,905.8,895.4,902.9,892.4z"/>
		<path class="st3" d="M650,599.7c2.3,0,4.5,0.3,6.7,0.9c0.5-1,0.8-2.2,0.8-3.4v-400c0-4.1-3.4-7.5-7.5-7.5s-7.5,3.4-7.5,7.5v400
			c0,1.2,0.3,2.4,0.8,3.4C645.5,600.1,647.7,599.7,650,599.7z"/>
	</g>
	<g>
		<g>
			<path class="st3" d="M371.1,1188.7c-9.3,0-18-1.4-25.9-4.3s-14.1-6.5-18.5-10.9c-2-2.1-2.8-4.6-2.5-7.3c0.3-2.7,1.6-5,3.9-6.7
				c2.7-2.1,5.3-3,7.9-2.7s4.8,1.5,6.7,3.5c2.3,2.5,5.9,4.9,10.9,7.1s10.6,3.3,16.7,3.3c7.7,0,13.6-1.3,17.7-3.8s6.2-5.8,6.3-9.8
				c0.1-4-1.8-7.5-5.7-10.4c-3.9-2.9-11.1-5.3-21.5-7.2c-13.5-2.7-23.2-6.7-29.3-12c-6.1-5.3-9.1-11.9-9.1-19.6c0-6.8,2-12.4,6-16.9
				s9.1-7.8,15.4-10s12.8-3.3,19.6-3.3c8.8,0,16.6,1.4,23.4,4.2c6.8,2.8,12.2,6.7,16.2,11.6c1.9,2.1,2.7,4.4,2.6,6.7
				c-0.1,2.3-1.3,4.3-3.4,5.9c-2.1,1.5-4.7,1.9-7.6,1.4s-5.4-1.7-7.4-3.6c-3.3-3.2-6.9-5.4-10.8-6.6s-8.3-1.8-13.4-1.8
				c-5.9,0-10.8,1-14.9,3s-6.1,4.9-6.1,8.8c0,2.4,0.6,4.6,1.9,6.5s3.8,3.7,7.5,5.2s9.2,3,16.4,4.5c10,2,17.9,4.5,23.7,7.6
				c5.8,3.1,10,6.6,12.5,10.7s3.8,8.8,3.8,14.1c0,6.1-1.6,11.7-4.9,16.6c-3.3,4.9-8.1,8.9-14.4,11.8
				C388.5,1187.3,380.6,1188.7,371.1,1188.7z"/>
			<path class="st3" d="M436.7,1187.9c-2.9,0-5.3-0.9-7.1-2.7c-1.8-1.8-2.7-4.2-2.7-7.1v-136.6c0-2.9,0.9-5.3,2.7-7.1
				c1.8-1.8,4.2-2.7,7.1-2.7c2.9,0,5.3,0.9,7.1,2.7c1.8,1.8,2.7,4.2,2.7,7.1v136.6c0,2.9-0.9,5.3-2.7,7.1S439.6,1187.9,436.7,1187.9
				z M446.1,1147.9l-12.4-13.6l61.4-54.8c2-1.9,4.2-2.7,6.7-2.6s4.6,1.2,6.3,3.2c1.9,2,2.7,4.2,2.6,6.6c-0.1,2.4-1.2,4.5-3.2,6.4
				L446.1,1147.9z M508.1,1186.9c-2.1,1.7-4.5,2.5-7.1,2.3s-4.8-1.4-6.5-3.5l-40.6-50.2l14-13.2l41.6,51.2c1.7,2.1,2.5,4.4,2.3,6.9
				C511.6,1182.9,510.4,1185.1,508.1,1186.9z"/>
			<path class="st3" d="M579.1,1188.7c-11.1,0-20.9-2.4-29.5-7.1s-15.3-11.3-20.2-19.6c-4.9-8.3-7.3-17.9-7.3-28.7
				c0-10.9,2.3-20.6,6.9-28.9c4.6-8.3,11-14.9,19.1-19.6s17.5-7.1,28-7.1c10.4,0,19.3,2.3,26.8,6.9s13.2,10.9,17.1,19
				c3.9,8.1,5.9,17.4,5.9,27.9c0,2.5-0.9,4.6-2.6,6.3c-1.7,1.7-3.9,2.5-6.6,2.5h-80.6v-16h80l-8.2,5.6c-0.1-6.7-1.5-12.6-4-17.9
				s-6.1-9.4-10.8-12.5s-10.3-4.6-17-4.6c-7.6,0-14.1,1.7-19.5,5s-9.5,7.9-12.3,13.7c-2.8,5.8-4.2,12.4-4.2,19.7
				c0,7.3,1.7,13.9,5,19.6s7.9,10.3,13.8,13.6c5.9,3.3,12.6,5,20.2,5c4.1,0,8.4-0.8,12.7-2.3s7.8-3.3,10.5-5.3
				c2-1.5,4.2-2.2,6.5-2.3c2.3-0.1,4.4,0.6,6.1,2.1c2.3,2,3.5,4.2,3.6,6.6s-0.9,4.5-3.2,6.2c-4.5,3.6-10.2,6.5-16.9,8.8
				C591.7,1187.6,585.2,1188.7,579.1,1188.7z"/>
			<path class="st3" d="M688.5,1188.7c-10.4,0-19.8-2.4-28.1-7.3s-14.9-11.5-19.8-19.9c-4.9-8.4-7.3-17.9-7.3-28.4s2.2-20,6.7-28.3
				s10.6-14.9,18.3-19.8s16.5-7.3,26.2-7.3c7.9,0,15.1,1.6,21.8,4.9s12.3,7.7,16.8,13.3v-54c0-3.1,1-5.5,2.9-7.4s4.4-2.8,7.3-2.8
				c3.1,0,5.5,0.9,7.4,2.8s2.8,4.3,2.8,7.4v91.2c0,10.5-2.4,20-7.3,28.4c-4.9,8.4-11.4,15-19.7,19.9
				C708.2,1186.3,698.9,1188.7,688.5,1188.7z M688.5,1170.7c6.8,0,12.9-1.6,18.2-4.9s9.5-7.8,12.6-13.5s4.6-12.1,4.6-19.2
				c0-7.2-1.5-13.6-4.6-19.2s-7.3-10-12.6-13.3s-11.4-4.9-18.2-4.9c-6.7,0-12.7,1.6-18.1,4.9c-5.4,3.3-9.7,7.7-12.8,13.3
				c-3.1,5.6-4.7,12-4.7,19.2c0,7.1,1.6,13.5,4.7,19.2c3.1,5.7,7.4,10.2,12.8,13.5S681.8,1170.7,688.5,1170.7z"/>
			<path class="st3" d="M812.1,1188.7c-10,0-18.8-2.4-26.5-7.1s-13.7-11.3-18.1-19.6c-4.4-8.3-6.6-17.9-6.6-28.7
				c0-10.9,2.4-20.6,7.1-28.9c4.7-8.3,11.2-14.9,19.5-19.6s17.8-7.1,28.6-7.1c10.7,0,20.1,2.4,28.4,7.1c8.3,4.7,14.8,11.3,19.5,19.6
				c4.7,8.3,7.1,18,7.1,28.9h-11.8c0,10.8-2,20.4-6.1,28.7c-4.1,8.3-9.6,14.9-16.7,19.6C829.4,1186.4,821.3,1188.7,812.1,1188.7z
				 M815.7,1233.3c-9.5,0-18.3-1.9-26.6-5.6s-15.3-9.2-21-16.4c-1.7-2.3-2.4-4.6-1.9-7s1.8-4.3,3.9-5.8c2.4-1.6,4.9-2.1,7.5-1.6
				s4.7,1.9,6.3,4c3.6,4.5,8.1,8.1,13.6,10.6s11.7,3.8,18.6,3.8c6.4,0,12.3-1.5,17.7-4.6s9.7-7.6,12.9-13.6s4.8-13.3,4.8-22v-28.4
				l6.6-17.6l13,4.2v43.2c0,10.5-2.3,20.1-7,28.7s-11.2,15.4-19.5,20.5C836.3,1230.8,826.6,1233.3,815.7,1233.3z M816.1,1170.7
				c6.9,0,13.1-1.6,18.4-4.8c5.3-3.2,9.5-7.6,12.5-13.2s4.5-12.1,4.5-19.4s-1.5-13.8-4.5-19.5s-7.2-10.1-12.5-13.3
				c-5.3-3.2-11.5-4.8-18.4-4.8s-13.1,1.6-18.4,4.8c-5.3,3.2-9.5,7.6-12.6,13.3c-3.1,5.7-4.6,12.2-4.6,19.5s1.5,13.8,4.6,19.4
				s7.3,10,12.6,13.2C803,1169.1,809.2,1170.7,816.1,1170.7z"/>
			<path class="st3" d="M939.9,1188.7c-11.1,0-20.9-2.4-29.5-7.1s-15.3-11.3-20.2-19.6c-4.9-8.3-7.3-17.9-7.3-28.7
				c0-10.9,2.3-20.6,6.9-28.9c4.6-8.3,11-14.9,19.1-19.6s17.5-7.1,28-7.1c10.4,0,19.3,2.3,26.8,6.9s13.2,10.9,17.1,19
				s5.9,17.4,5.9,27.9c0,2.5-0.9,4.6-2.6,6.3c-1.7,1.7-3.9,2.5-6.6,2.5h-80.6v-16h80l-8.2,5.6c-0.1-6.7-1.5-12.6-4-17.9
				s-6.1-9.4-10.8-12.5c-4.7-3.1-10.3-4.6-17-4.6c-7.6,0-14.1,1.7-19.5,5s-9.5,7.9-12.3,13.7c-2.8,5.8-4.2,12.4-4.2,19.7
				c0,7.3,1.7,13.9,5,19.6s7.9,10.3,13.8,13.6c5.9,3.3,12.6,5,20.2,5c4.1,0,8.4-0.8,12.7-2.3c4.3-1.5,7.8-3.3,10.5-5.3
				c2-1.5,4.2-2.2,6.5-2.3c2.3-0.1,4.4,0.6,6.1,2.1c2.3,2,3.5,4.2,3.6,6.6s-0.9,4.5-3.2,6.2c-4.5,3.6-10.2,6.5-16.9,8.8
				C952.5,1187.6,946,1188.7,939.9,1188.7z"/>
		</g>
	</g>
</g>
<g id="Cut_Through_Logo">
	<rect id="Gold" x="204.3" y="112.5" class="st4" width="899" height="1187.5"/>
	<path id="Cut_Through_Box" class="st2" d="M600.6,1131.3c1.9,3.9,3.1,8.2,3.7,12.8h-69.4c0.7-4,1.9-7.7,3.6-11.2
		c2.9-6,7.2-10.8,12.8-14.3s12.4-5.2,20.3-5.2c7,0,12.9,1.6,17.7,4.8C594.2,1121.4,598,1125.8,600.6,1131.3z M1300,0v1300H0V0H1300z
		 M680.5,690.9c0.3,0.4,0.6,0.8,1,1.2l221.2,221.2c1.5,1.5,3.5,2.3,5.5,2.3s4-0.8,5.5-2.3c3.1-3.1,3.1-8,0-11.1L692.5,681.1
		c-0.4-0.4-0.8-0.7-1.2-1C688.8,684.7,685.1,688.5,680.5,690.9z M642.2,594.5c0,1.3,0.3,2.5,0.9,3.6c2.2-0.6,4.5-0.9,7-0.9
		s4.7,0.3,7,0.9c0.5-1.1,0.9-2.3,0.9-3.6V177.4c0-4.3-3.5-7.8-7.8-7.8s-7.8,3.5-7.8,7.8v417.1H642.2z M415.6,1177
		c0-5.6-1.3-10.5-4-14.7c-2.6-4.2-7-8-13-11.2s-14.3-5.8-24.7-7.9c-7.5-1.5-13.2-3.1-17.1-4.7s-6.5-3.4-7.8-5.4s-2-4.3-2-6.8
		c0-4,2.1-7.1,6.4-9.2c4.2-2.1,9.4-3.1,15.5-3.1c5.3,0,9.9,0.6,14,1.9c4,1.3,7.8,3.5,11.3,6.9c2.1,1.9,4.7,3.2,7.7,3.8
		c3.1,0.6,5.7,0.1,7.9-1.5c2.2-1.7,3.4-3.7,3.5-6.2c0.1-2.4-0.8-4.8-2.7-7c-4.2-5.1-9.8-9.2-16.9-12.1s-15.2-4.4-24.4-4.4
		c-7.1,0-13.9,1.1-20.4,3.4s-11.9,5.8-16.1,10.4c-4.2,4.7-6.3,10.5-6.3,17.6c0,8.1,3.2,14.9,9.5,20.4c6.3,5.6,16.5,9.7,30.6,12.5
		c10.8,1.9,18.3,4.5,22.4,7.5c4.1,3.1,6.1,6.7,5.9,10.8c-0.1,4.2-2.3,7.6-6.6,10.2c-4.2,2.6-10.4,4-18.5,4c-6.4,0-12.2-1.1-17.4-3.4
		s-9-4.8-11.4-7.4c-1.9-2.1-4.3-3.3-7-3.6c-2.7-0.3-5.5,0.6-8.2,2.8c-2.4,1.8-3.7,4.1-4.1,7c-0.3,2.9,0.5,5.4,2.6,7.6
		c4.6,4.6,11,8.4,19.3,11.4s17.3,4.5,27,4.5c9.9,0,18.1-1.5,24.7-4.6s11.6-7.2,15-12.3C413.9,1189.2,415.6,1183.4,415.6,1177z
		 M513.1,1195.4l-40.4-49.7l38.3-34.2c2.1-1.9,3.2-4.2,3.3-6.7s-0.8-4.8-2.7-6.9c-1.8-2.1-4-3.2-6.6-3.3c-2.6-0.1-4.9,0.8-7,2.7
		l-50.7,45.2v-84.9c0-3.1-0.9-5.5-2.8-7.4c-1.9-1.9-4.3-2.8-7.4-2.8c-3.1,0-5.5,0.9-7.4,2.8s-2.8,4.3-2.8,7.4V1200
		c0,3.1,0.9,5.5,2.8,7.4c1.9,1.9,4.3,2.8,7.4,2.8c3.1,0,5.5-0.9,7.4-2.8s2.8-4.3,2.8-7.4v-31.9l10.4-9.3l39.7,49.1
		c1.8,2.2,4.1,3.4,6.8,3.6s5.2-0.6,7.4-2.4c2.4-1.9,3.6-4.2,3.9-6.8C515.7,1200,514.9,1197.6,513.1,1195.4z M623.5,1151.6
		c0-11-2.1-20.7-6.2-29.1c-4.1-8.4-10-15-17.8-19.8s-17.1-7.2-27.9-7.2c-11,0-20.7,2.5-29.2,7.4s-15.1,11.8-19.9,20.4
		c-4.8,8.7-7.2,18.7-7.2,30.1c0,11.3,2.5,21.2,7.6,29.9c5.1,8.7,12.1,15.5,21.1,20.4s19.2,7.4,30.8,7.4c6.4,0,13.1-1.2,20.1-3.5
		c7-2.4,12.9-5.4,17.6-9.2c2.4-1.8,3.5-4,3.3-6.5c-0.1-2.5-1.4-4.8-3.8-6.9c-1.8-1.5-3.9-2.3-6.4-2.2c-2.4,0.1-4.7,0.9-6.8,2.4
		c-2.8,2.1-6.4,3.9-10.9,5.5s-8.9,2.4-13.2,2.4c-7.9,0-14.9-1.7-21.1-5.2c-6.1-3.5-10.9-8.2-14.4-14.2c-2.3-4-3.9-8.4-4.6-13.1H614
		c2.8,0,5.1-0.9,6.9-2.6C622.6,1156.4,623.5,1154.2,623.5,1151.6z M623.9,649.2c0,14.4,11.7,26.1,26.1,26.1s26.1-11.7,26.1-26.1
		c0-14.4-11.7-26.1-26.1-26.1S623.9,634.8,623.9,649.2z M743.7,1058.2c0-3.2-1-5.8-2.9-7.7c-1.9-1.9-4.5-2.9-7.7-2.9
		c-3.1,0-5.6,1-7.6,2.9s-3,4.5-3,7.7v56.3c-4.7-5.8-10.6-10.5-17.5-13.9c-7-3.4-14.5-5.1-22.7-5.1c-10.2,0-19.3,2.5-27.3,7.6
		c-8.1,5.1-14.4,12-19.1,20.6c-4.7,8.7-7,18.5-7,29.5s2.5,20.9,7.6,29.6c5.1,8.8,12,15.7,20.6,20.8c8.7,5.1,18.5,7.6,29.3,7.6
		s20.6-2.5,29.2-7.6c8.6-5.1,15.5-12,20.5-20.8c5.1-8.8,7.6-18.6,7.6-29.6L743.7,1058.2L743.7,1058.2z M870.9,1153.5
		c0-11.4-2.5-21.4-7.4-30.1s-11.7-15.5-20.3-20.4s-18.5-7.4-29.6-7.4c-11.3,0-21.2,2.5-29.8,7.4s-15.4,11.8-20.3,20.4
		c-4.9,8.7-7.4,18.7-7.4,30.1c0,11.3,2.3,21.2,6.9,29.9c4.6,8.7,10.9,15.5,18.9,20.4s17.2,7.4,27.6,7.4c9.6,0,18.1-2.5,25.4-7.4
		c6.4-4.3,11.6-10,15.6-17.1v10.3c0,9-1.7,16.7-5,22.9c-3.3,6.3-7.8,11-13.5,14.2c-5.6,3.2-11.8,4.8-18.5,4.8
		c-7.2,0-13.7-1.3-19.4-4c-5.7-2.6-10.4-6.3-14.2-11.1c-1.7-2.2-3.9-3.6-6.6-4.2c-2.7-0.6-5.3,0-7.8,1.7c-2.2,1.5-3.6,3.5-4.1,6
		s0.2,4.9,2,7.3c6,7.5,13.3,13.2,21.9,17.1c8.6,3.9,17.9,5.8,27.7,5.8c11.4,0,21.4-2.6,30.1-7.9c8.7-5.3,15.5-12.4,20.3-21.4
		c4.9-9,7.3-18.9,7.3-29.9v-44.8H870.9z M989.5,1151.6c0-11-2.1-20.7-6.2-29.1s-10-15-17.8-19.8s-17.1-7.2-27.9-7.2
		c-11,0-20.7,2.5-29.2,7.4s-15.1,11.8-19.9,20.4c-4.8,8.7-7.2,18.7-7.2,30.1c0,11.3,2.5,21.2,7.6,29.9c5.1,8.7,12.1,15.5,21.1,20.4
		s19.2,7.4,30.8,7.4c6.4,0,13.1-1.2,20.1-3.5c7-2.4,12.9-5.4,17.6-9.2c2.4-1.8,3.5-4,3.3-6.5c-0.1-2.5-1.4-4.8-3.8-6.9
		c-1.8-1.5-3.9-2.3-6.4-2.2c-2.4,0.1-4.7,0.9-6.8,2.4c-2.8,2.1-6.4,3.9-10.9,5.5s-8.9,2.4-13.2,2.4c-7.9,0-14.9-1.7-21.1-5.2
		c-6.1-3.5-10.9-8.2-14.4-14.2c-2.3-4-3.9-8.4-4.6-13.1h79.3c2.8,0,5.1-0.9,6.9-2.6C988.6,1156.4,989.5,1154.2,989.5,1151.6z
		 M832.8,1119.3c-5.6-3.3-12-5-19.2-5s-13.6,1.7-19.2,5c-5.6,3.3-9.9,8-13.1,13.9c-3.2,5.9-4.8,12.7-4.8,20.3
		c0,7.6,1.6,14.4,4.8,20.2c3.2,5.8,7.6,10.4,13.1,13.8c5.6,3.3,12,5,19.2,5s13.6-1.7,19.2-5c5.6-3.3,9.9-7.9,13-13.8
		c3.1-5.8,4.7-12.6,4.7-20.2s-1.6-14.4-4.7-20.3C842.7,1127.2,838.3,1122.6,832.8,1119.3z M955.3,1118.2c-4.9-3.2-10.8-4.8-17.7-4.8
		c-7.9,0-14.7,1.7-20.3,5.2s-9.9,8.2-12.8,14.3c-1.7,3.5-2.8,7.2-3.6,11.2h69.4c-0.6-4.6-1.8-8.9-3.7-12.8
		C963.9,1125.8,960.2,1121.4,955.3,1118.2z M705.4,1119.4c-5.6-3.4-11.9-5.1-19-5.1c-7,0-13.2,1.7-18.9,5.1
		c-5.6,3.4-10.1,8-13.3,13.9c-3.3,5.8-4.9,12.5-4.9,20c0,7.4,1.6,14,4.9,20c3.3,6,7.7,10.7,13.3,14.1s11.9,5.1,18.9,5.1
		c7.1,0,13.4-1.7,19-5.1s9.9-8.1,13.1-14.1c3.2-6,4.8-12.7,4.8-20c0-7.5-1.6-14.2-4.8-20C715.3,1127.4,710.9,1122.8,705.4,1119.4z"
		/>
</g>
</svg>
