<?xml version="1.0" standalone="no"?>
<!DOCTYPE svg PUBLIC "-//W3C//DTD SVG 20010904//EN"
 "http://www.w3.org/TR/2001/REC-SVG-20010904/DTD/svg10.dtd">
<svg version="1.0" xmlns="http://www.w3.org/2000/svg"
 width="642.000000pt" height="642.000000pt" viewBox="0 0 642.000000 642.000000"
 preserveAspectRatio="xMidYMid meet">
<metadata>
Created by potrace 1.11, written by Peter Selinger 2001-2013
</metadata>
<g transform="translate(0.000000,642.000000) scale(0.100000,-0.100000)"
fill="#000000" stroke="none">
<path d="M2018 6415 c-2 -2 -93 -6 -203 -9 -110 -4 -258 -8 -328 -11 -70 -3
-185 -7 -255 -10 -351 -13 -529 -23 -557 -31 -123 -37 -230 -151 -319 -339
-95 -200 -105 -251 -82 -400 10 -58 64 -251 96 -340 18 -49 32 -106 32 -125 0
-29 1 -31 6 -11 6 21 11 16 37 -40 17 -35 32 -66 35 -69 3 -3 14 -22 25 -42
11 -21 23 -38 27 -38 5 0 8 -5 8 -10 0 -19 121 -194 154 -223 85 -74 370 -159
621 -184 148 -15 405 -7 550 17 33 5 78 12 100 15 22 4 47 7 55 9 25 5 83 16
115 22 66 12 94 23 143 56 47 32 122 105 122 118 0 5 4 10 8 12 32 12 158 243
217 398 98 258 195 636 199 775 l1 40 349 5 c192 3 368 3 391 2 l42 -4 6 -81
c2 -45 22 -149 42 -232 21 -82 39 -157 40 -165 2 -8 4 -15 5 -15 1 0 3 -7 5
-15 3 -18 29 -102 57 -185 56 -168 153 -375 221 -474 45 -66 104 -128 162
-171 57 -41 91 -56 155 -66 25 -3 54 -8 65 -11 11 -2 36 -6 55 -9 19 -2 46 -7
60 -10 14 -3 41 -7 60 -9 19 -3 55 -8 80 -11 25 -3 61 -8 80 -10 19 -3 101 -6
183 -8 179 -3 290 7 437 39 41 9 86 18 100 21 40 8 229 73 261 89 48 25 111
98 179 206 81 130 93 151 126 217 15 31 30 49 36 46 6 -4 8 -2 5 3 -4 6 9 55
29 109 20 55 38 110 40 123 3 13 9 32 15 42 5 10 8 22 8 26 -1 4 0 15 4 23 21
54 48 217 44 268 -6 71 -5 68 -47 177 -4 11 -19 45 -34 75 -14 30 -26 61 -26
68 0 6 -4 12 -8 12 -5 0 -15 15 -24 33 -27 56 -105 151 -155 188 -91 69 -138
76 -658 94 -195 6 -447 16 -560 22 -127 6 -2631 14 -2637 8z m967 -75 c44 0
96 1 115 1 19 0 46 0 60 0 14 -1 33 -1 43 -1 9 0 44 1 77 1 33 0 68 0 78 0 9
1 55 0 102 0 47 0 99 0 115 2 17 1 41 0 55 -4 14 -3 36 -3 50 1 14 4 33 3 43
-2 16 -8 16 -10 -4 -31 -28 -30 -78 -133 -93 -193 l-12 -49 -60 -2 c-32 -1
-79 -2 -104 -2 -46 0 -61 0 -82 -2 -7 -1 -38 -1 -68 0 -30 0 -62 0 -70 0 -8
-1 -31 -1 -50 0 -19 1 -42 1 -50 0 -13 -1 -82 0 -155 1 -30 0 -75 0 -83 -1 -4
-1 -23 -1 -43 0 -33 1 -36 3 -47 49 -17 66 -56 147 -93 193 l-31 39 76 -2 c41
-1 78 0 80 3 3 3 20 4 38 2 18 -1 69 -3 113 -3z"/>
<path d="M6017 5115 c-4 -8 -2 -17 3 -20 6 -4 10 3 10 14 0 25 -6 27 -13 6z"/>
<path d="M398 5065 c-2 -25 0 -53 3 -63 4 -9 8 11 10 46 5 70 -7 86 -13 17z"/>
<path d="M6015 5070 c3 -5 8 -10 11 -10 2 0 4 5 4 10 0 6 -5 10 -11 10 -5 0
-7 -4 -4 -10z"/>
<path d="M6018 5038 c-2 -7 -1 -35 3 -63 l6 -50 1 63 c2 59 -1 76 -10 50z"/>
<path d="M398 4955 c2 -14 6 -25 8 -25 2 0 4 11 4 25 0 14 -4 25 -9 25 -4 0
-6 -11 -3 -25z"/>
<path d="M402 4890 c0 -19 2 -27 5 -17 2 9 2 25 0 35 -3 9 -5 1 -5 -18z"/>
<path d="M6018 4913 c-2 -5 -1 -24 3 -43 l6 -35 2 43 c1 39 -3 52 -11 35z"/>
<path d="M402 4825 c0 -16 2 -22 5 -12 2 9 2 23 0 30 -3 6 -5 -1 -5 -18z"/>
<path d="M6021 4814 c0 -11 3 -14 6 -6 3 7 2 16 -1 19 -3 4 -6 -2 -5 -13z"/>
<path d="M401 4774 c0 -11 3 -14 6 -6 3 7 2 16 -1 19 -3 4 -6 -2 -5 -13z"/>
<path d="M409 4458 c0 -2 -2 -181 -4 -399 -1 -218 -5 -402 -9 -407 -3 -6 -3
-13 2 -16 4 -2 5 -31 2 -63 -8 -85 -5 -798 4 -868 10 -87 35 -234 47 -280 5
-22 12 -53 15 -69 7 -35 80 -257 101 -306 81 -189 250 -483 330 -577 10 -11
25 -31 33 -43 17 -25 29 -40 103 -125 127 -145 341 -344 507 -468 41 -31 80
-60 85 -64 6 -5 51 -35 100 -68 50 -33 92 -63 93 -67 2 -5 8 -8 14 -8 5 0 29
-13 53 -30 24 -16 48 -30 54 -30 6 0 11 -5 11 -12 0 -6 3 -8 7 -5 3 4 13 1 22
-7 34 -29 403 -219 446 -230 14 -4 25 -11 25 -16 0 -6 7 -10 15 -10 9 0 33 -9
54 -20 22 -11 56 -26 78 -34 21 -7 99 -37 173 -66 74 -28 162 -61 195 -72 77
-25 214 -68 240 -74 11 -3 25 -6 30 -8 6 -2 21 -6 35 -10 23 -6 222 45 285 74
11 5 65 25 120 45 280 102 691 304 887 437 31 21 59 38 62 38 5 0 137 90 146
100 3 3 41 32 85 64 190 142 402 338 536 497 31 37 61 73 68 80 6 8 25 32 41
54 16 22 34 45 40 52 20 24 139 210 168 263 54 98 137 271 157 330 1 3 5 12 8
20 17 39 77 229 82 259 3 19 8 37 10 41 2 3 6 17 9 31 3 13 8 35 11 49 5 26 9
46 20 120 4 25 9 53 10 62 15 80 19 218 16 633 -1 264 -3 641 -4 837 -1 197
-5 358 -8 358 -4 0 -7 -12 -6 -27 0 -28 -11 -208 -13 -208 -1 0 -3 -22 -5 -48
-5 -66 -14 -155 -20 -192 -2 -16 -7 -50 -10 -75 -3 -25 -7 -54 -9 -65 -4 -19
-11 -74 -22 -154 -2 -18 -6 -36 -8 -40 -3 -3 -7 -27 -11 -51 -3 -25 -8 -53
-11 -63 -4 -11 -7 -29 -9 -40 -6 -37 -15 -80 -31 -137 -15 -55 -18 -69 -30
-125 -3 -16 -9 -34 -12 -40 -4 -5 -7 -14 -8 -20 -4 -29 -78 -233 -114 -318
-37 -86 -129 -263 -152 -292 -4 -5 -33 -44 -64 -85 -141 -188 -316 -315 -507
-369 -38 -11 -73 -18 -77 -16 -4 3 -11 35 -15 72 -4 36 -8 76 -10 87 -2 12 -6
38 -9 59 -3 20 -9 54 -12 75 -3 20 -7 48 -10 62 -3 14 -7 41 -10 60 -7 55 -14
100 -25 170 -6 36 -13 74 -14 85 -2 11 -8 47 -14 80 -14 74 -17 91 -32 187
l-12 77 -111 38 c-61 20 -113 38 -116 38 -3 1 -12 4 -20 8 -14 5 -209 70 -220
72 -3 1 -12 4 -20 8 -57 22 -686 227 -691 225 -3 -2 -13 3 -22 11 -10 7 -17
11 -17 9 0 -3 -19 -1 -42 3 -79 17 -152 23 -268 23 -170 0 -239 -11 -410 -67
-69 -22 -133 -42 -143 -44 -10 -2 -31 -10 -48 -18 -16 -9 -29 -13 -29 -9 0 4
-7 0 -17 -7 -9 -8 -17 -12 -17 -10 -1 2 -77 -21 -171 -52 -93 -31 -174 -57
-180 -58 -5 -1 -18 -5 -28 -11 -10 -5 -26 -11 -35 -13 -9 -2 -51 -15 -92 -30
-41 -14 -83 -28 -92 -30 -19 -4 -251 -84 -254 -88 -1 -1 -7 -33 -13 -72 -6
-38 -13 -81 -15 -95 -11 -58 -38 -221 -41 -247 -2 -15 -4 -28 -5 -28 -3 0 -9
-38 -15 -85 -3 -25 -7 -56 -10 -70 -3 -14 -7 -41 -10 -60 -2 -19 -7 -51 -10
-70 -4 -19 -8 -48 -10 -65 -2 -16 -6 -42 -9 -58 -2 -15 -7 -55 -11 -90 -4 -34
-10 -65 -14 -69 -19 -20 -277 83 -329 132 -12 11 -25 20 -30 20 -25 0 -282
279 -282 305 0 4 -13 25 -28 48 -40 59 -114 207 -152 302 -40 100 -120 343
-120 365 0 9 -5 21 -12 28 -7 7 -9 12 -6 12 3 0 2 17 -3 38 -19 81 -48 209
-53 237 -3 17 -8 40 -10 52 -3 11 -8 43 -12 70 -3 26 -8 57 -11 68 -2 11 -6
39 -8 63 -3 23 -7 55 -9 70 -3 15 -8 52 -11 82 -3 30 -8 73 -10 95 -10 84 -28
307 -28 358 -1 22 -4 35 -8 25z m2976 -1462 c39 -4 81 -8 95 -10 88 -13 118
-17 140 -21 14 -3 34 -7 45 -9 89 -17 318 -84 400 -116 11 -4 70 -27 130 -51
61 -23 113 -47 117 -53 6 -9 18 -67 34 -161 9 -51 71 -294 102 -396 l28 -96
-42 -42 c-34 -33 -120 -104 -229 -189 -99 -76 -284 -172 -440 -229 -39 -14
-188 -40 -225 -39 l-45 1 0 285 0 285 -73 5 c-41 3 -76 2 -79 -3 -2 -4 -9 -5
-15 -1 -13 8 -133 8 -146 0 -6 -4 -13 -3 -15 1 -3 5 -56 6 -119 3 l-113 -5 0
-288 0 -289 -70 7 c-86 8 -199 36 -285 71 -109 44 -279 136 -288 157 -2 4 -8
7 -13 7 -20 0 -202 143 -282 222 -40 39 -46 50 -38 65 10 17 55 173 75 261 2
9 13 55 24 102 23 97 40 173 46 213 9 55 16 62 89 90 39 16 86 35 102 42 26
11 213 75 240 82 55 13 163 42 175 46 8 4 31 9 50 12 48 8 69 12 110 20 41 7
77 12 180 21 41 3 76 7 77 8 4 3 196 -3 258 -8z"/>
<path d="M2537 2683 c-3 -5 -4 -30 -3 -58 l2 -50 679 0 680 0 1 45 c0 25 -2
51 -4 58 -3 9 -148 12 -677 12 -371 0 -676 -3 -678 -7z"/>
</g>
</svg>
