<?xml version="1.0" encoding="utf-8"?>
<!-- Generator: Adobe Illustrator 22.1.0, SVG Export Plug-In . SVG Version: 6.00 Build 0)  -->
<svg version="1.1" xmlns="http://www.w3.org/2000/svg" xmlns:xlink="http://www.w3.org/1999/xlink" x="0px" y="0px"
	 viewBox="0 0 242 220.5" style="enable-background:new 0 0 242 220.5;" xml:space="preserve">
<style type="text/css">
	.st0{display:none;}
	.st1{display:inline;}
	.st2{fill:#333333;}
</style>
<g id="Layer_1" class="st0">
	<g id="OuNRki_1_" class="st1">
		
			<image style="overflow:visible;" width="1000" height="1000" id="OuNRki" xlink:href="1FDDACA1B2F320C.jpg"  transform="matrix(0.287 0 0 0.287 -16.9795 -31.6015)">
		</image>
	</g>
</g>
<g id="Layer_2">
	<path d="M126,104l78-67.7c0,0,1-2.1,8-1.2c4.8-3.1,30-21.2,30-21.2s-6.7-5-6.9-6.1c-1.6-1.5-4.2-8.2-5.8-7.7s-28.6,21.3-28.6,21.3
		s-0.7,2.9-1.7,3.8s-81.2,66.3-81.2,66.3s-15.1-16-23.4-14.3c-8.4,1.8-14.2,6.7-17.2,10.9c-3,4.2-11.6,15.2-18.5,16.5
		c-6.9,1.3-31.8,8-35.4,11.1c-4,2.2-16.2,11.5-19.6,20s-5.5,18.4-1.6,27.8s13.2,23.7,16,27.3c6.6,8.5,15,17.3,21.6,22.2
		c6.3,4.7,27.3,12.2,41.2,3.4s26.7-33.3,28.6-39.3c2.1-5.8-2.2-10.3,17.1-22.8s20.5-20,16.7-29.2C139.4,115.9,131.9,107.4,126,104z"
		/>
	<path d="M225.6,25.6l1.2,1.3c0,0,1.3-0.9,2.7-0.7c0.7,0.7,1.3,1.5,1.3,1.5s-0.1,1.5-1.6,2.7c-1.5,1.2-3.1,1.1-3.1,1.1l-1.5-1.8
		c0,0,0.2-1,1.2-1.8c-0.3-0.5-1.2-1.6-1.2-1.6L225.6,25.6z"/>
	<path d="M234.8,19l1.2,1.3c0,0,1.3-0.9,2.7-0.7c0.7,0.7,1.3,1.5,1.3,1.5s-0.1,1.5-1.6,2.7c-1.5,1.2-3.1,1.1-3.1,1.1l-1.5-1.8
		c0,0,0.2-1,1.2-1.8c-0.3-0.5-1.2-1.6-1.2-1.6L234.8,19z"/>
	<path d="M216.4,31.9l1.2,1.3c0,0,1.3-0.9,2.7-0.7c0.7,0.7,1.3,1.5,1.3,1.5s-0.1,1.5-1.6,2.7c-1.5,1.2-3.1,1.1-3.1,1.1l-1.5-1.8
		c0,0,0.2-1,1.2-1.8c-0.3-0.5-1.2-1.6-1.2-1.6L216.4,31.9z"/>
	<path d="M221.7,6.9l-1.1-1.4c0,0-1.4,0.9-2.7,0.5c-0.7-0.7-1.2-1.5-1.2-1.5s0.2-1.5,1.7-2.6c1.5-1.1,3.2-0.9,3.2-0.9l1.4,1.9
		c0,0-0.3,1-1.3,1.7c0.3,0.5,1.1,1.6,1.1,1.6L221.7,6.9z"/>
	<path d="M212.9,13.5l-1.1-1.4c0,0-1.4,0.9-2.7,0.5c-0.7-0.7-1.2-1.5-1.2-1.5s0.2-1.5,1.7-2.6c1.5-1.1,3.2-0.9,3.2-0.9l1.4,1.9
		c0,0-0.3,1-1.3,1.7c0.3,0.5,1.1,1.6,1.1,1.6L212.9,13.5z"/>
	<path d="M204.6,20.4l-1.1-1.4c0,0-1.4,0.9-2.7,0.5c-0.7-0.7-1.2-1.5-1.2-1.5s0.2-1.5,1.7-2.6c1.5-1.1,3.2-0.9,3.2-0.9l1.4,1.9
		c0,0-0.3,1-1.3,1.7c0.3,0.5,1.1,1.6,1.1,1.6L204.6,20.4z"/>
</g>
<g id="Layer_3">
	<circle class="st2" cx="90.4" cy="125.4" r="14.2"/>
</g>
</svg>
