<?xml version="1.0" encoding="utf-8"?>
<!-- Generator: Adobe Illustrator 22.1.0, SVG Export Plug-In . SVG Version: 6.00 Build 0)  -->
<svg version="1.1" id="Layer_1" xmlns="http://www.w3.org/2000/svg" xmlns:xlink="http://www.w3.org/1999/xlink" x="0px" y="0px"
	 viewBox="0 0 500 500" style="enable-background:new 0 0 500 500;" xml:space="preserve">
<style type="text/css">
	.st0{display:none;fill:none;stroke:#000000;stroke-width:20;stroke-miterlimit:10;}
</style>
<g id="Arrow_Base">
	<polygon points="14.1,500 0,500 0,485.9 485.9,0 500,0 500,14.1 	"/>
</g>
<rect x="480" width="20" height="100.2"/>
<rect x="399.8" width="100.2" height="20"/>
<g>
	<g>
		<path d="M412.5,129.9c25.1,33.7,40,75.4,40,120.6c0,111.4-90.6,202-202,202c-45.1,0-86.9-14.9-120.6-40l-14.4,14.4
			c38.5,29.6,85.5,45.7,134.9,45.7c59.3,0,115-23.1,157-65s65-97.7,65-157c0-49.4-16.1-96.4-45.7-134.9L412.5,129.9z"/>
	</g>
	<g>
		<path d="M87.7,369.9c-24.6-33.5-39.2-74.8-39.2-119.4c0-111.4,90.6-202,202-202c44.6,0,85.9,14.6,119.4,39.2l14.4-14.4
			c-38.3-29.1-84.8-44.8-133.8-44.8c-59.3,0-115,23.1-157,65c-41.9,41.9-65,97.7-65,157c0,48.9,15.7,95.4,44.8,133.8L87.7,369.9z"/>
	</g>
</g>
<line class="st0" x1="0" y1="500" x2="500" y2="0"/>
<line class="st0" x1="28.5" y1="472.5" x2="28.5" y2="500"/>
<g>
	<rect x="48.5" y="441.5" width="20" height="58.5"/>
</g>
<g>
	<rect x="78.5" y="411.5" width="20" height="88.5"/>
</g>
<line class="st0" x1="27.5" y1="470.8" x2="0" y2="470.8"/>
<g>
	<rect y="431.5" width="58.5" height="20"/>
</g>
<g>
	<rect y="401.5" width="88.5" height="20"/>
</g>
</svg>
