<svg xmlns="http://www.w3.org/2000/svg" viewBox="0 0 295.39 320.99"><defs><style>.a{fill:#60402e;}.b{fill:none;stroke:#000;stroke-miterlimit:10;stroke-width:6px;}</style></defs><title>Artboard 2</title><path class="a" d="M7.61,51.28c-.26,4.49-1,20.23-.24,40.37L7.69,50S7.66,50.44,7.61,51.28Z"/><path class="a" d="M287.78,51.28c0-.84-.09-1.29-.09-1.29L288,91.65C288.81,71.51,288,55.77,287.78,51.28Z"/><path class="a" d="M288,91.65C286.18,138.26,276,208.4,231.69,217c-2-17-8-51-8-51l-60-20a89.6,89.6,0,0,0-16-2,89.6,89.6,0,0,0-16,2l-60,20s-6,34-8,51C19.42,208.4,9.21,138.26,7.37,91.65L6.69,180c7,109,145,141,145,141s130-32,137-141ZM161.69,242V213h-28v29c-25,0-49-25-49-25s6-20,8-33c34-15,55-13,55-13s21-2,55,13c2,13,8,33,8,33S186.69,242,161.69,242Z"/><path d="M294.66,30.16C292,22,284.77,3.73,271.9,2.92,258.34,2.08,204.69,0,185.37,0H110c-1.83.05,5.62,0,0,0C90.7,0,37,2.08,23.48,2.92,10.62,3.73,3.35,22,.73,30.16A15.46,15.46,0,0,0,.3,37.89c4.59,23.51,10.07,30.94,18.48,44a15.74,15.74,0,0,0,7.66,6.18c28.62,10.89,50,6.09,67.69,3.14,18.7-3.11,29.09-41.55,33.24-61.29a32.48,32.48,0,0,0,.68-9h39.28a33.27,33.27,0,0,0,.68,9c4.16,19.74,14.55,58.18,33.25,61.29,17.68,3,39.07,7.75,67.69-3.14a15.79,15.79,0,0,0,7.66-6.18c8.4-13.08,13.89-20.51,18.48-44A15.58,15.58,0,0,0,294.66,30.16Zm-122.81-23A29.35,29.35,0,0,0,167.68,18h-40l.13.86a29.36,29.36,0,0,0-4.29-11.7A15.59,15.59,0,0,0,120.88,4h53.63A15.59,15.59,0,0,0,171.85,7.15Z"/><line class="b" x1="113.69" y1="189.49" x2="181.69" y2="189.49"/></svg>