<?xml version="1.0" encoding="utf-8"?>
<!-- Generator: Adobe Illustrator 22.1.0, SVG Export Plug-In . SVG Version: 6.00 Build 0)  -->
<svg version="1.1" id="Layer_1" xmlns="http://www.w3.org/2000/svg" xmlns:xlink="http://www.w3.org/1999/xlink" x="0px" y="0px"
	 viewBox="0 0 1140 500" style="enable-background:new 0 0 1140 500;" xml:space="preserve">
<style type="text/css">
	.st0{fill:#666666;stroke:#FFFFFF;stroke-width:0.7437;stroke-miterlimit:10;stroke-opacity:0.5;}
	.st1{fill:#FF0000;stroke:#666666;stroke-width:0.7437;stroke-miterlimit:10;stroke-opacity:0.5;}
	.st2{fill:none;stroke:#000000;stroke-miterlimit:10;stroke-opacity:0;}
	.st3{fill:#FFFFFF;fill-opacity:0;}
</style>
<desc>Created with Fabric.js 1.7.19</desc>
<path class="st0" d="M423.8,344.1l-0.1,3.3l-0.1,3.3l-0.1,3.3l-0.1,3.3l-0.1,3.3l-0.1,3.3l-0.1,3.3l-0.1,3.2l-0.1,3.2l-0.1,3.2
	l-0.1,3.2l-0.1,3.2l-0.1,3.2l-0.1,3.2l-0.1,3.2l-0.1,3.1l-0.1,3.1l-0.1,3.1l-0.1,3.1l-0.1,3.1l-0.1,3.1l-0.1,3.1l-0.1,3.1l-0.1,3.1
	l-0.1,3.1l-0.1,3.1l-0.1,3l-0.1,3l-0.1,3l-0.1,3l-0.1,3l-0.1,3l1.2,0.4l1.2,0.4l0.4-0.8l1.3,0.7l1.1,0.6l0.7-0.7l0.8-0.8h1.1
	l1.2-0.1h0.8v0.7l-0.3,1.1l-0.2,0.9l0.7,0.8l0.1,0.1l0.9,0.5l0.8,0.5l0.4,1.3l0.9,1l0.7,0.7l0.7,0.7l1,1l0.7,0.7l0.9,0.9l0.6,0.6
	l0.3,1.1l0.3,1.3l-0.2,0.8l0.4,0.1l0.8-0.9l0.8-0.6l1-0.7l0.6-0.5l1.2-0.1l0.5-1.3l-0.1-1.8h0.6l0.4-0.3l0.1-0.5l-0.4-0.7l1.1-0.4
	l0.8-0.3l1.2-0.7l1.1-0.7l0.6,0.5l0.6,0.5l1.1,1.1l0.1,0.3v0.6l-0.1,0.6l0.7,1.5l0.2,0.2l0.6,0.2l0.7,0.5l0.3,0.4l1,0.7l0.2,0.3
	l0.1,0.5l0.2,0.4l0.2,0.3l0.2,0.4l0.4,0.5l0.8,0.5l0.6,0.3l0.8,0.5l0.8,1l0.7,0.9l0.8,0.9l-0.1,0.8l0.9,1.1l0.9,1.4l0.7,1.3l0.5,0.7
	l0.6,1l0.8,1.2l0.9,1.4l0.7,0.9l0.9,1.3l0.4,0.7l-0.2,0.6l-0.3,0.7l1,0.2l0.7,0.2l-0.1,0.7l-0.1,1l0.8,0.3l0.5,0.2l-0.1,0.5l0.3,0.5
	l0.1,0.9l0.9-0.1l0.4-0.1l0.6,0.4l0.8,0.5l0.8,0.5l0.7,0.4l0.9,0.2l1.1,0.3l0.6,0.7l1,0.2l0.5,1l1.1,0.3l0.6-0.3l0.3,0.4l0.2,0.5
	l0.1,0.6v0.6l-0.2,0.5l-0.2,0.6l-0.1,0.6v0.6l0.1,0.7l0.2,0.6l0.5,1.1l0.2,0.7l0.1,0.5l-0.6,1.7l-0.2,0.8l0.1,0.3l-0.5,0.8l-0.9,1.2
	l-0.4,0.7l-0.2-0.2h-1.3l-0.6-1.4l-0.4-1.1l-0.5-0.9v-0.2l0.3-0.7l1.3-0.6v-0.2l-0.5-0.1l-0.1-0.2l-0.2-1v-0.9l-0.1-0.6l-0.3-1.2
	l-0.4-0.7l-1-1.4l-0.1-0.4l0.3-0.5l0.2-0.5l-1.3,0.9l-1.9,1l-0.8,0.6l-0.2,0.2v0.2l0.2,0.5v0.2l-0.1,0.3l-0.1,0.9l-0.3,1l-0.2,0.2
	l-0.8-0.3l-0.2-0.3l-0.5-1.2l0.1-0.3l0.3-0.3l0.3-0.6l0.4-0.9l0.7-2.4l0.6-0.1l1-0.5l-1.6-0.1l-0.2-0.1l-0.2-0.3l-0.2-0.5l-0.4-0.5
	l0.1-0.4l-0.3-0.2l-0.5-0.7l-0.3-0.3l-0.2-0.4l-0.1-0.5l-0.1-0.2h-0.4l-0.2-0.1l-0.1-1.2l-0.9-0.2l-0.4-0.2l-0.6-0.7l-0.2-0.3
	l-0.1-0.3l0.1-0.8l-0.1-0.1l-0.5,0.1l-3.1-1l0.1-1.7l-0.7-2.1l-0.6-0.8l0.1-0.3l0.1-0.2h0.3l1.2,0.6l1.1,0.7l0.1-0.1l-1.8-1.5
	l-0.5-0.5l-0.1-0.6v-0.3l0.1-0.2h1.6l0.1-0.1l-1.7-0.4h-0.3l-0.3,0.7l-0.2,0.2h-0.3l-0.1-0.1l-0.5-0.8l-0.4-0.6l-0.8-0.8l-0.2-0.6
	l-0.1-0.8l0.1-0.8l0.5-1.8l0.2-0.3l0.1-0.2h-0.2l-0.2,0.2l-0.4,0.9l-0.4,1.4l-0.4,0.5l-0.3-0.1l-0.4-0.5l-0.9-0.6l-1-0.1l-0.6-0.7
	l-1-1.9l-0.2-1l-0.1-0.2l-0.5-0.3l-0.3-0.5l-0.6-2.4l-0.7-1.6l-0.2-0.9v-0.9l-0.1-0.1l-0.2,0.7v0.4l-0.4,0.1l0.4,0.7l0.1,0.3h-0.2
	l-0.4,0.1l0.7,1.1l0.3,1.8l0.5,1.3l0.3,1.1l0.2,0.8l0.2,0.8l0.6,1.7l0.1,0.3v0.3l-0.1,0.3l-0.3,0.1l-0.9-0.2l-0.3-0.4l-0.5-0.8
	l-0.7-0.3l-1.6,0.2l-0.1-0.1v-0.6l0.1-1.1l-0.2-0.5l-0.9-1.7v-0.3l1.1-0.8h-0.6l-0.4,0.3l-0.2-0.2l-0.3-1.1l-0.2-0.4l-0.1-0.1v1
	l0.2,0.5v0.3v0.4l-0.1,0.3l-0.2,0.2l-0.2,0.1l-0.4-0.2l-0.4-0.4l-0.4-0.2l-0.1-0.2l-0.2-0.5l-0.3-0.3l-1.4-0.4l-0.8-0.5l-0.1,0.1
	l0.3,0.5v0.3l-0.2,0.1l-0.4,0.5l0.1,0.1l0.4-0.2h0.4l0.7,0.3l0.7,0.4l0.2,0.2l0.1,0.3l0.1,0.1l0.7,0.4v0.2l-0.4,0.6l0.9-0.1l0.5,0.2
	l0.7,0.9l0.2,0.5l0.1,0.7l-0.1,0.2L447,464l-1.8,0.3l-0.6,0.9h-0.1L444,465l-0.9-0.6l-1.1-0.6l-2.5-1.8l-0.1-0.1v-0.4l-0.2-0.2
	l-0.3-0.2l-0.5-0.5l-0.6-0.8l-0.4-0.6l-0.1-0.4l-0.4-0.5l-1.1-1.1l-0.6-0.4l-0.5-0.2h-0.5l-0.1-0.1l0.2-0.2v-0.1l-1-0.2l-0.9-0.5
	l-2.4-1.4l-1.2-0.9l-0.7-0.4l-0.3-0.2l-0.1-0.2l0.2-0.2l0.5-0.2l0.3-0.2l0.5-0.9v-0.3l-0.3-0.7l-0.1-0.6V449l0.1-0.3l0.1-0.2
	l0.2-0.2l0.1-0.1l0.2,0.1l0.6,0.8l0.1,0.3v1.1l0.2,1.3l0.1-0.1l0.1-0.4v-0.8l0.1-0.4l0.1-0.4l0.2-0.2l0.7,0.1l0.3-0.1l-1.3-0.6
	l-0.8-1.1l-0.1-0.1l-0.5-0.1l-0.5,0.4l-1.2,1.5l-0.3,0.3l-1.6,0.8l-1,0.1l-1.2-0.1l-1-0.3L420,449l-0.4-0.3l0.6-0.8v-0.2l-0.2-0.8
	l-0.2-0.2l-0.2-0.1l-0.1,0.1v0.2l0.1,0.4l-0.2,0.2L419,448l-0.7,0.2l-2.2-0.7l-2.3-0.6l-2-0.2l-2.9,0.3l-1.6,0.4h-0.9l-0.9-0.1
	l-0.1-0.3l0.4-0.2v-0.2l-0.5-0.7l-0.7-0.5l-1-0.2L403,445l-0.1-0.3l-0.3-0.3l-0.6-0.3l-0.2-0.4l0.3-1.3l0.2-0.8l0.2-0.5l0.5-0.8
	l-0.2,0.1l-0.7,0.6l-0.7,0.6l-0.6,0.8l-0.4,0.4l-0.5,0.3l-0.7-0.1l-0.9-0.6l-0.8-0.3l-0.7-0.1l-0.3-0.1l0.5-0.4l0.3-0.4l0.4-0.6
	l0.1-0.3l-2.4-0.3l-0.1-0.3v-0.2l-0.1-0.2l-0.3-0.2l-0.5,0.1l-0.8,0.3l-0.3-0.3l0.1-0.2l0.3-0.1l0.6-0.5l-0.7-0.3l-0.3-0.4l-0.2-0.3
	l0.1-1l0.2-0.6l1.6-0.5l-0.5-0.3h-1l-0.7,0.5l-0.9,0.7l-0.6,0.2l-0.3-0.2l-0.3-0.1h-0.5l-0.3,0.2l-0.2,0.3l-0.2,0.2l-0.2,0.1h-0.1
	l-0.2-0.3l-0.4-0.2l-0.2-0.3l-0.1,0.1l-0.2,0.5l-0.2,0.2l-0.8,0.2l-0.4-0.1l-0.4-0.6l-0.1-0.2l0.2-0.5l1.3-1.9h-0.1l-0.4,0.3
	l-0.8,0.8l-0.3,0.2h-0.5l-0.2-0.1h-0.3l-0.4,0.2l-0.3,0.2l-0.1,0.2l0.1,0.1l0.6-0.2h0.3l0.1,0.2l-0.5,0.9l0.1,0.5l-0.3,0.2l-0.4-0.1
	h-0.4v0.2l0.7,0.8l0.3,0.1l0.3,0.3v0.3l-0.2,0.7l-0.1,0.3l-0.2,0.1l-0.7-0.1h-0.2l-0.5,0.4l-0.3,0.3h0.1l0.4-0.2l0.6-0.1l0.7,0.1
	l0.6-0.1l0.4-0.3l0.3,0.1l0.3,0.5l0.1,0.4l-0.2,0.3l-0.3,0.2l-0.4,0.1l-0.3,0.2l-0.1,0.3l-0.1,0.4L385,443v1l-0.1,0.1l-0.2,0.1h-0.2
	l-0.2,0.2l-0.6,1.3l-0.2,0.1l-0.2-0.2h-0.2l-0.2,0.2l-0.4,0.1h-0.6l-0.5-0.1l-0.8-0.4l-0.3-0.2l-0.2-0.4l-0.8,0.3l-0.2-0.2l-0.4-1
	h-0.1l-0.2,1l-0.2,0.3l-0.5,0.7l-0.4,1.2h-0.1l-0.1-0.2l-0.1-1.2l-0.1-0.3l-0.5,0.6l-0.1,0.2v0.8l-0.1,0.1l-0.8-0.6h-0.2l-0.1,0.1
	l0.2,0.7l-0.1,0.2l-1.3,1.1l-0.3-0.1l-0.2-0.1h-0.2l-0.8,0.4h-0.2l-0.2-0.3h-0.1l-0.1,0.3l-0.1,0.6l-0.3,0.5l-1,0.7l-0.3,0.4
	l-0.3,0.5h-0.1l-0.5-0.4l-0.6-0.3l-0.1,0.1l0.1,0.4l-0.1,0.2h-0.3l-0.3-0.1l-0.4-0.2l-0.6,0.1l-0.8,0.3l-0.6-0.1L365,451l-0.2-0.1
	v-0.2l0.2-0.6l0.3-0.4l0.2-0.2l0.9-0.5l1-0.1l0.6-0.3l0.8-0.6l0.4-0.5l0.9-1.3v-0.1l-0.2-0.1l-1.8,1.1l-0.3,0.1l-0.3-0.1l-1.2-0.7
	l-0.2-0.2l-0.1-0.6l0.6-1.4l0.3-0.6l0.8-1l1-1l0.4-0.7l0.7-1.9l0.1-0.9V437l0.1-0.6l0.2-0.2l2-0.8l1-0.6l1.8-0.9l0.5,0.1l0.3,0.4
	l0.4,0.4l0.4,0.3h0.6l0.7-0.2l1.1,0.2l2.2,1l0.5,0.1v-0.1l-0.3-0.6l-1.5-0.5l-0.6-0.4l-1.7-1.5l-0.4-0.6l0.2-0.2l0.5-0.1l0.2-0.2
	l0.1-0.3l0.3-0.4l0.5-0.5l0.8-0.5l1.4-0.7l-0.5-0.1h-1l-0.4,0.1l-0.7,0.5l-0.3,0.4l-0.5,0.8l-0.2,0.1h-0.7l-1.8-0.1l-0.2-0.5
	l-0.2-0.1h-0.2l-1.8,0.8L372,432l-0.5,0.6l-0.7,0.4l-0.9,0.2l-0.7,0.3l-0.8,0.6l-0.3,0.5v0.2l0.1,0.8l-0.2,0.1h-0.4l-0.7,0.4
	l-1.6,1.4L365,438v0.2l0.2,0.5L365,439l-0.5,0.4l-1,0.6l-0.6,0.2h-0.4l-0.3-0.2l-0.6-0.6l-0.5-0.1v0.1l0.6,0.6l0.6,0.7l0.4,0.6
	l0.1,0.4l-0.1,0.4l-0.2,0.4l-0.6,0.7l-0.5,0.2h-1.3l-0.4,0.1l-0.1,0.1l0.8,0.5l0.1,0.2l-0.2,0.6l-0.3,0.2l-0.8,0.3h-0.7l-0.1-0.1
	l0.2-0.5v-0.1L358,445l-0.4,0.1l-1,0.6l-0.1,0.1l0.3,0.2l-0.1,0.2l-0.6,0.5l-0.3,0.3l-0.4,0.3l-1.6,0.9l0.1,0.3l-0.5,0.9l-0.3,0.8
	l0.2,0.4l1.1,0.6l0.6,0.2l0.6,0.4l1.1,1l0.3,0.6v0.3l-0.1,0.3l-0.2,0.3l-0.5,0.6l-1.1,0.9l-0.5,0.2l-0.6,0l-0.2,0.1l-1,0.8l-0.3,0.5
	v0.5l-0.2,0.3l-1.2,0.4v0.1l0.4,0.1l-0.2,0.5l-0.2,0.7l-0.2,0.1l-0.7-0.1l-0.9,0.1l-0.1,0.1l-0.1,0.5h-2.3l-0.7,0.9l-0.3,0.3l-1,0.6
	l-0.6,0.2l-0.6,0.1l-0.4,0.2l-0.1,0.3l-0.2,0.2l-0.6,0.4l-0.4,0.5l-0.2,0.1h-1l-0.2,0.1l-0.2,0.8h-0.2l-0.3-0.2l-0.5,0.1L338,466
	l-0.3,0.3v0.2l0.1,0.2l0.1,0.6l-0.1,0.3l-0.6,0.9l-0.2,0.1l-0.5,0.1l-0.3,0.5l-0.4-0.1h-0.4l-0.3,0.3l-0.3,0.2h-0.3l-0.4,0.2
	l-0.5,0.4l-0.5,0.3l-0.4,0.1h-0.4l-0.3-0.1h-0.3l-0.3,0.1l-0.3,0.2l-0.4,0.8l-0.3,0.3h-0.2l-0.3-0.1l-0.5-0.3h-0.5l-1,0.3l-0.4,0.3
	l0.5,0.2l0.2,0.2v0.1h-0.3l-0.5-0.1h-0.3l-0.4,0.1l-0.9,0.1l-0.4,0.1l-0.9,0.8l-0.1,0.2l0.1,0.1h0.4l0.4,0.3l0.2,0.3l0.1,0.3v0.5
	l0.1,0.1l-1,0.6l-0.3,0.3l-0.2,0.1l-0.1-0.1l0.1-0.9v-0.2l-0.2-0.1l-0.3,0.2l-0.7,1l-0.6,0.4l-3.8,0.6l-0.6,0.2l-0.2,0.6l-0.3,0.5
	l-0.3,0.4l-0.3,0.2V479l0.4-1.4v-0.3L317,477h-0.2h-0.2l-0.4,0.2H316l-0.3-0.1l-0.5,0.2l-1.3,0.7l-0.8,0.1l-0.2,0.2l-0.4,0.5
	l-0.2,0.1L312,479l-0.4-0.3h-0.3L311,479l-0.3,0.1l-0.6-0.5l-0.3,0.1l-0.5,0.4l-0.5,0.2l-0.5,0.1l-1.2-0.1l-0.4-0.2l-0.1-0.2
	l0.2-0.6l0.3-0.4l0.2-0.2l0.3-0.1l0.3,0.1l0.6,0.3v-0.2l-0.2-0.2l-0.5-0.5l-0.5-0.3H307l-0.5,0.1l-0.4,0.2l-0.2,0.3l-0.5,1l-0.2,0.3
	l-1.8,1.5l-0.7,0.4l-0.5-0.2l-0.3,0.2l-0.5,0.4l-0.4,0.1l-0.3-0.1l-0.2-0.1l-0.1-0.2l0.1-0.1l0.3-0.1v-0.4l-0.2-0.7l-0.2-0.4
	l-0.5-0.2l-0.1,0.3l-0.2,1.4l-0.1,0.3l-0.4,0.3l-0.9,0.2l-0.2-0.1l-0.5-1.1l-0.6-0.4l-0.1,0.3v0.6l-0.3,0.5l-0.6,0.4l-0.4,0.1
	l-0.3-0.1l0.1-0.4l0.4-0.6l0.2-0.6v-0.5l0.1-0.3l0.2-0.2l1.1-0.4h0.4l0.2,0.2l0.2,0.1h0.3l0.2-0.2l0.2-0.3l0.5-0.3l0.8-0.3l1-0.7
	l1.3-1.2l1.4-0.9l1.5-0.7l1.5-0.5l2.9-0.5l0.2,0.1l-0.3,0.3l0.1,0.3l0.2,0.1l1,0.1l0.4-0.1l0.1,0.2l-0.2,0.2l-0.6,0.1v0.2l0.6,1.3
	l0.2,0.2h0.2l0.1-0.1l0.1-0.8l0.3-0.1l0.6,0.1l0.3,0.2l0.1,0.3l0.3,0.3l0.5,0.3h0.3l0.2-0.2l-0.1-0.4l-0.8-0.9l-0.2-0.3v-0.4
	l0.3-0.5l0.5-0.7l0.7-0.9l0.6-0.6l1-0.6l0.6-0.3l1.7-0.9l3-0.6l0.8-0.6l1.1-0.7l0.4-0.1l-0.1,0.3l0.1,0.3l0.6,0.3l0.4,0.2h0.2
	l0.1-0.3v-0.6l0.1-0.6l0.2-0.5l0.2-0.4l0.6-0.6l0.8-0.7l1-0.8l0.6-0.3l0.5-0.1l0.6-0.3l1-0.8l0.3-0.1l0.6-0.1l0.2,0.1l0.1,0.3
	l0.1,0.2l0.6,0.3l0.4-0.1v-0.1l-0.3-0.1l-0.2-0.2l-0.1-0.6l-0.3-0.4v-0.4l0.2-0.6l0.6-1.4l0.4-1.5l0.5-0.8l0.7-0.2h1.3l-0.7-0.6
	l-0.3-0.1l-0.5-0.3v-1l0.1-0.7l0.5-0.7l1.5-1.1l1.5-0.7l-0.2-0.1l-0.1-0.3l1-1.8l0.9-1.6l-1.1,1.3l-1.1,0.9l-3,0.7l-2.1,0.7
	l-0.9,0.1l-0.5-0.4l-0.2-1.1l-0.2-0.4l-0.2-0.7l0.3-0.8l0.4-0.6h0.6l0.6,0.4l0.6,0.1l-0.6-0.7l-0.9-0.7l-0.5,0.1l-0.5,0.8l-0.6,0.5
	l-0.4-0.3l-0.2-0.3v0.7l-0.6,1l-0.3,0.7v2.1L328,453l-0.9,0.2l-0.5-0.8l-0.9-2.8l-0.3-0.8l-0.8-1.4l-0.4,0.1l-0.6,0.5l-0.5,0.1
	l-1-1.1l-0.4-0.8l-0.3-0.9l-0.9,0.2l-0.8,0.3l-1,0.6l-0.5-0.1l-1.7,0.3h-0.2l-0.3,0.3l-0.2,0.1l-0.3,0.7l-2.2,0.1l-1.9-0.8l0.8-0.2
	l0.9-0.1l0.9-0.6V445l0.1-0.5l0.2-0.7l1-0.7l-0.8-0.2l-0.6,0.2l-0.3-0.8l0.1-1.4l0.7-0.7l0.4-0.6l0.4-0.8l0.2-0.7l-0.1-1.3l-0.5-2.9
	v-2.1l-0.6-1.3l1.1-1.5l1.1-1.4l1.1-0.5V427l-0.5-0.1h-0.4l-0.4,0.4l-0.4,0.3l-1.5,1.7l-0.9,0.8l-0.5,0.2l0.6,0.6v0.3l-0.1,0.8
	l-0.4,0.8l-0.3,0.4l-0.8-0.2l-0.9,0.5l-1.9,0.3l-2.4-0.2l-1.1-0.4l-0.9-1.2l0.2-0.5l0.2-0.4l-1.2-2l-0.5-1.8l-0.7-0.2l-0.5-0.6
	l-0.5-0.8l0.2-0.5l0.2-0.3l-0.3-0.4l-0.6-0.1l-0.6-0.4l2.2-1.5l0.9-1.2l0.5-0.1l0.5,0.4l0.7,0.8l0.6,0.4l0.2,0.3l0.1,0.5l-0.5,0.7
	l-0.4,0.5l0.3-0.1l1.1-0.6l0.8-0.6l0.3,0.2l0.2,0.2l0.1,0.9l0.2,0.9l1.2-0.5l0.8-0.8l-0.3-0.5l-0.5-0.4l-1.3-0.7l0.4-0.2l0.9,0.3
	l0.4-0.2l-0.3-0.5l-0.3-0.4l-1.5,0.7l-2.2-0.7l-1.3-1l-1.5-0.3l-0.2-0.2l-0.2-0.4l1.1-0.5l0.7-0.3l0.1-0.2l-0.3-0.1h-0.7l-0.2-0.4
	l0.2-0.6h-0.1l-0.4,0.3l-0.3-0.3l-0.2-0.4l0.2-0.2l0.4-0.3l-0.1-0.1h-0.3l-0.4,0.5l-0.1,0.5l-0.2,0.6h-0.5l-0.4-0.2l-0.1-0.7
	l0.1-1.4l-0.7-0.6v-0.7l0.8-0.7l-0.1-0.5l-0.5-0.3l-0.8,0.2l-0.2-0.5l0.1-0.4l0.2-0.6h0.2l0.1,0.2h1.4l0.2-0.1l-0.8-0.8l-0.1-0.6
	l0.5-0.2l0.7,0.2h1.1l-0.3-0.7v-0.3l0.1-0.6l0.4-0.8l1.8-1.7l1.7-1.4l0.5-0.3l0.6-0.1l0.5,0.3l0.4,0.5l0.1-0.1l-0.1-0.2v-0.8
	l0.8-0.1l0.7-0.7l0.1-0.2l-0.6,0.2l-0.6,0.4v-0.6l0.2-1.3l0.6-1.1l0.3-0.5l0.5-0.4l1.2,0.1l0.2,0.2l0.1-0.2l-0.5-0.9l0.5-0.5
	l0.3-0.2l1.5-0.1l0.7,0.4l0.8,0.8l0.4,0.8l-0.2,0.3l-0.2,0.2l-0.3,0.1l-0.2,0.1v0.2l0.5-0.3l0.8-0.3l0.3,0.3l0.2,0.5l0.3,0.1
	l1.1-0.1l0.6-0.2l0.9-0.8l1-0.4l1.7-1.6l0.6-0.7h0.4l0.3,0.2l0.1,0.7l0.3,0.3l2.2,0.4h1.2l0.9-0.4l1-0.9l0.6-0.6l0.4-0.9v-1.3v-1.1
	l0.2-2.4l-0.7-1.8l-0.6-0.6l-0.5-0.1l0.6-0.9l1,0.3h0.7l0.6-0.3l0.3-0.3l0.4-0.7l0.1-0.8v-0.5l-0.2-0.5l-0.3-0.8l-0.2-0.3h-0.3
	l-1.6,1l-0.8-0.2l-0.5-0.4l-0.7,0.6l-1.5,0.3l-0.9,0.5l-1.8,1.3l-0.5,0.7l-0.4-0.1l0.1-1.6l-1.1-1.8l-0.6,0.4l0.1,0.5l0.2,0.4
	l0.5,0.3l-0.3,0.4l-0.3,0.5l-0.4-0.7l-0.8-1l-0.9-0.7l-2.6-0.7l-1.9,0.3l-0.1-0.2l-0.1-0.1l-0.3,0.1l-0.2,0.3l-0.2,0.1h-0.4
	l-0.7-0.3l-1.2-0.9l-2.9-1.6l-0.7-0.7l-0.4-1.3l0.2-0.7l0.4-0.2l0.3-1l-0.5-0.5l-0.7-1.8l-0.2-0.8h0.1l0.2,0.2l0.4,0.3l1.1,0.1
	l0.6-0.8h0.8l0.6,0.3l-0.1-0.3l-0.1-0.3l-1.6-1l-0.3,0.1l-2.9-1.9l-2-2.3l-0.1-0.4v-0.7l0.5-0.5l0.4-0.2l-0.1,0.4l-0.1,0.4l1.7-0.3
	l1.1-0.8l1.5,0.3l0.4-0.2l0.6-0.4l0.9-0.8l1-0.2l0.7-0.3h0.9l0.5,0.7l0.2,0.1l1.2,0.5l0.5-0.1l0.2-0.1l0.2-0.2l-0.9-1.2l0.3-0.4
	l0.2-0.3l1.7-0.5h1.1l0.6,0.2l2-0.8l1-0.1l1.8,0.2l1.4,0.3l0.3,0.5l-0.7-0.3h-0.3l0.2,0.2l0.2,0.4l-0.2,0.4l-0.8,1.1l-0.2,1
	l-0.4,0.2l-0.4,0.4l1.1,1.8l2.2,0.7l1.3,0.1l0.6,0.6l0.6,0.2l1.7,0.2l1.1,0.6h0.5l1.6-1.8l0.5-0.2l0.4,0.5l0.5,0.5l0.4-0.1l0.2,0.6
	l0.1-1.2l-0.1-0.5l-1.6-1.2l-1.3,0.1l-0.3-0.5l0.3-0.8l-0.7-2.5l-0.4-0.6L331,364l-0.1-0.8v-1l0.6-0.2h0.5l0.4,0.4l0.2,1.4l0.4,0.3
	l-0.5,1.2l0.3,1.3l1.1,1.4l1.2-0.1l0.8,0.2l0.4,0.3l0.9,1.2l0.5,0.3l1.9-0.1l0.2-0.9v-0.7l-0.3-0.5l-1.2-0.2l-0.8-0.9h-0.8l-1.7,0.7
	l-0.6-0.6l-0.3-0.7l-0.6-0.8l0.2-1.1l0.9-1.1l0.6-0.5l-0.3-0.5l-0.9-0.6l-1.9-0.1v-0.5l0.1-0.5l-1,0.7l-0.7-0.4l-1-0.2l-2-1.4
	l-0.5-1.2l-0.1-0.9v-2.4l-0.4-1.6l-3.7-6.2l-1.9-1.9l-0.7-1.6l-0.6-0.5l-0.6-0.3l-0.7-0.7l0.7-0.3l0.4-0.1l-0.6,0.4l0.3,0.2l0.6-0.2
	l0.4-0.3l0.9-1.5l1.1-2.3l0.2-1l2.7,1l1.9,0.4h0.7l2.4,0.3l0.7-0.1l1.3-0.5l1.7-1.1l1.6-1.6l0.3-0.5v0.2l0.1-0.1l0.3-0.7l0.6-1.7
	l1-1.5l3.3-3.1l1.4-1.2l0.5-0.6l0.5-0.4l0.1,0.5l0.1,0.2v0.2h-0.2l-0.5,0.4l-0.6,0.2L342,327h0.3l1-0.1l0.6-0.3l2.6-0.2l1.6-1
	l0.1-0.3l2.3-1.2l0.3,0.1l0.3,0.3l-0.8,1l0.3,0.4l-0.6,1.2l0.7,0.2v0.6l0.2-0.5l0.2-0.7l0.2-0.7l0.2-0.5l0.4,0.3l1.2-0.3l-1.3-0.4
	l-0.5-1.4l-0.5-0.1l1.9-1.4l1.6-0.7l0.3,0.1l0.1,0.2v0.3l-0.3,0.1l-0.4,0.3l0.1,0.4l0.2,0.1l0.7-0.1l0.4-0.3l1.4,0.3l0.5-0.1
	l0.2-0.2l1.8,0.3l0.4-0.1l1.3-0.7l1.3-0.9l0.6-0.5l1.1-1.4l0.9-0.9l1.4-0.8l0.3,0.2l-0.4,0.1l-0.3,0.4l0.2,0.6l2.2,1.7l0.6,0.2
	l0.1,0.8l-0.3,0.6l-0.8,0.6l-1.4,0.5l0.3,0.4l0.1,0.7l0.4,0.2l0.7-0.1l0.6-0.3l1.3-1.2l0.5-0.7l0.3-0.2l0.8,0.3l0.4,0.5l0.4,0.8
	l-0.3,0.6l-0.3,0.3l0.6,0.7l0.8,0.2l0.7,0.6l1.2-0.7l0.8-0.1l0.8,0.2l1.1-0.3l1.6,0.9l0.5-0.1l0.7,0.2l0.7,0.5l0.2,0.5l-0.9,0.8
	l-0.3,0.9l0.2,0.4l0.5,0.1v0.5l0.3,0.2l1.6,0.2l-0.2,0.2l-0.1,0.3l-0.6,0.6l2.7,0.8l0.4-0.3l0.6-0.1l1.3-0.4l0.4,0.3l0.5,0.6
	l0.5,0.2l0.5-0.1l1.2-0.6l1.3,0.1l0.5,0.3h0.6l1.5,1l0.6,0.2l0.7,1.2l0.4,0.1l0.5-0.4l0.4,0.1l0.4,0.5l0.6,0.2l0.2,0.8l0.3,0.3
	l2.5,0.8l1.3-0.1l1.8,0.2l0.8,0.4h0.9l1.4,1.4l0.8,0.2l0.1,0.3l2.3,0.5l0.8-0.6l1.4-0.1l1.3-0.5h0.7l0.8,0.2l0.3-0.1l0.2-0.2l2,1
	l1.1,1.1l0.5,0.8l2.3,1.2l0.7,0.7l0.5,0.7l0.3,0.1l0.2-0.2l0.8,0.1L423.8,344.1z M314.1,365h-0.2l0.1-0.2l0.6-0.3l1-0.3l-0.1,0.1
	l-0.6,0.3L314.1,365z M282.1,383.5v0.3l0.5,0.1l0.6,0.3l0.6,0.5l0.7,0.2l1.2-0.4h0.6l0.6,0.1l0.5,0.4l0.4,0.6l0.1,0.3v0.5l-0.1,0.5
	v0.4l0.9,0.8l0.6,0.4l0.1,0.3v0.4l0.5,0.5l0.6,0.1l0.3,0.2l1,0.4l1.1,0.8l-0.5,0.9l-0.6,0.3l-1.1-0.5l-1.2-0.3l-0.7,0.3l-0.6,0.5
	l-0.3,0.6l-0.3,0.2h-0.3l-0.1-0.4l0.1-1.1l-0.1-0.3l-0.1-0.2l-0.5-0.5l-0.5-0.4l-0.3-0.1l-0.1-0.4l0.1-0.6l-0.1-0.3l-0.3-0.5
	l-0.3-0.5l-1.2-1.2l-0.4-0.3l-0.5-0.1l-0.6,0.1l-0.7,0.3l-0.6,0.1l-0.6-0.1l-0.4-0.4l-0.3-0.6l-0.1-0.4l0.1-0.6l0.2-0.5l0.3-0.5
	l0.7-1.1l0.5-0.1L282.1,383.5z M387,437.5h-0.6l-0.3-0.2v-0.1l0.2-0.5v-0.2l0.3-0.1l0.3,0.3l0.1,0.3V437.5z M264.5,412.3l0.8,1
	l0.7,0.2l0.3,0.7l0.1,0.5l-0.7-0.6l-1.1-0.4l-1-1.9l-0.4-0.5l0.4-0.7l0.7-0.1l-0.1,1.1L264.5,412.3z M365.9,439.8h-0.2l0.4-0.5
	l0.4-0.9l0.3,0.2v0.2l-0.6,0.9L365.9,439.8z M388,441.5v0.3l-0.2,0.2l0.1,0.5l-0.3,0.8l-0.1,0.5l-0.2,0.3l-0.2,0.1l-0.1-0.1v-0.2
	l0.1-0.3h-0.3v-0.7l0.2-0.2l0.1-0.3v-0.2l0.3-0.9l0.1-0.1v0.2l0.1,0.1l0.1-0.1l0.2-0.4h0.1L388,441.5z M394.4,442.1l0.1,0.3h1
	l0.3,0.1l0.1,0.1l-0.1,0.2l-0.4,0.2l-1.1,0.4l-0.9,0.5l-0.1-0.1l-0.1-0.6l-0.1-0.3l-0.1-0.4v-0.1l0.2-0.2l0.4-0.3l0.2-0.1
	L394.4,442.1z M400.8,443.7l-0.2,0.2l-0.4-0.1l-0.2-0.2l0.8-0.6l0.1,0.1L400.8,443.7z M296,424l0.3,0.6l0.2,0.1l0.8,0.1l0.2,0.2
	l0.2,0.3l0.1,0.4l-0.1,0.6l-0.3,0.5l-0.2,0.7l-0.1,0.3l0.3,0.5v0.6l-0.1,0.6l-0.9-0.1l-0.9-0.2l-0.9,0.2l-0.2,0.2v0.5h-0.2l-0.2-0.2
	l-0.2-0.5l-0.3-0.3l-1.3-0.7l-1.4-1.7l-0.7-0.5l-0.5-1.1l-0.3-1.3h0.5l0.5,0.1l2,0.8l0.5-0.7l0.3-0.1h0.7l0.7-0.2l0.3,0.1l0.2,0.2
	l0.6-0.1h0.3L296,424z M387,448l-0.6,0.1l-0.1-0.3l0.4-0.7l0.3-0.4l0.2-0.1l0.7-0.8l0.8-0.6l0.7-0.8l0.8-1.2l0.2-0.5h0.3l0.5,0.4
	l0.3,0.5l-0.2,0.3l-1.8,1.7l-0.2,0.2l-0.2,0.6l-0.2,0.2l-0.2,0.1l-0.2,0.3l-0.1,0.4l-0.2,0.2h-0.3l-0.2,0.1l-0.1,0.2L387,448z
	 M385.8,445.3l-0.3,0.3l-1-0.3l0.3-0.6l0.8-0.3l0.8,0.7L385.8,445.3z M403.3,449.2h-0.2l0.4-0.6l0.5-0.7l0.5-0.4l0.6-0.2l-0.1,0.3
	l-0.8,0.6L403.3,449.2z M317.2,448.9l-0.4,0.1l-0.4-0.2l-0.1-1h0.2l0.7-0.5l1.2-0.2h0.3L317.2,448.9z M360.8,458.4h-0.2l-0.3-0.4
	l-0.2-0.4l0.2-0.2l0.8-0.4h0.4l0.1,0.1v0.2l-0.1,0.2l-0.2,0.3L360.8,458.4z M361,459.7l0.2,0.1l0.3-0.6h0.1l0.6,0.6l0.4-0.1l0.2,0.7
	l0.2,0.1h0.2l0.1,0.1l-0.1,0.6l-0.6,0.6l-0.2,0.1l-0.3-0.2l-0.1-0.1l-0.2-0.3l-0.1-0.4h-0.1l-0.4,0.4v0.2l0.1,0.3l-0.1,0.2h-0.4
	l-0.4-0.1l-0.5,0.2l-0.1-0.2v-0.5h-0.1l-0.3,0.6l-0.3,0.3l-0.5,0.3l-0.1,0.1h-0.3l-0.5,0.1l-0.3-0.1l-1.6-0.9l-0.4-0.3l1.6-1.3
	l0.8-0.5l0.4,0.1l0.4,0.2h0.2l0.1-0.7l-0.3-0.6v-0.2l0.9-0.2l0.3,0.1l0.3,0.2l0.3,0.3L361,459.7z M455,466.2l1.4,0.2l1-0.1l1,1.5
	l0.6,1.2l0.4,0.8l0.2,0.8l0.3,0.8v0.1l-0.6-0.5l-0.4-1.1l-0.2-0.4l-0.2-0.2l-0.2-0.4l-0.4-1v-0.3l-0.2-0.3l-0.2-0.1l-0.2,0.1
	l-0.1,0.1l0.1,0.7l0.2,0.8l1.1,1.7l0.7,0.9l0.1,0.3l0.1,0.9l-0.3,0.4l0.4,0.8v0.2l-0.1,0.2l-0.9,0.4l-0.8,1.6l-0.9,0.9l-0.4,0.2
	l-0.2-0.1l-0.2-0.3l-0.1-0.5l-0.1-0.6l0.2-0.4l0.4-1.9V473l-0.6-0.8l-0.4-0.7l-0.2-1l-0.4-2.6l-0.2-0.8l-0.2-0.7l-0.3-0.5l-0.2-0.6
	l-0.2-0.7v-0.3l0.5,0.3l0.6,0.9L455,466.2z M456.9,465.5v0.3h-0.7l-0.8-0.3L455,465l0.1-0.2l0.7-0.2l0.7,0.4L456.9,465.5z
	 M449.4,465.6l0.8,1v0.2l-0.1,0.7l-0.4,0.2l0.1,0.3l0.3,0.2l0.2-0.2l0.8-1l0.2-0.2h0.1l1,0.2l0.9,0.4l0.3,0.3l0.2,0.6l-0.2,1.4
	l-0.7,0.3h-0.3l-0.4-0.2l-0.6,0.5l0.5,0.3h1.5l0.5,0.7l0.2,0.6L454,473l-0.8-0.3l-0.8-0.6l-1.5-0.8h-0.4l-0.2,0.2v0.5l0.1,1.2
	l-0.4,0.6l-1.2-0.2l-0.5-0.9l-0.5-1.4l-1.7-1.6l-0.5-0.3l-0.6-1l0.2-0.8l0.1-0.5l0.3-0.1l0.4-0.4l0.2-0.8l0.4,0.6l0.6,0.6v-0.6
	l0.2-0.5h0.5l0.2-0.1l0.3-0.4l0.5-0.2L449.4,465.6z M357.6,464.7v0.6h0.2l0.9-0.4l0.5-0.1l0.6,0.1l0.4,0.3l0.1,0.2l-0.1,0.2
	l-0.4,0.4v0.3l0.3,0.6l0.9,0.4l0.1,0.2v0.2l-0.8,0.8l-0.3,0.2h-0.2l-1.1-0.3l-1-0.5l-0.4-0.1l-0.2,0.1l-0.3,0.2l0.2,0.1l0.9,0.2
	l0.3,0.5l0.1,0.3v0.3l-0.2,0.1h-0.4l-0.5-0.1l-0.7,0.3l-0.4,0.4l-1.2-0.1l-1,0.4l-0.4,0.2l-0.2,0.3l-0.4,0.2l-0.8,0.1l0.4,0.3v0.2
	v0.3l-0.1,0.2l-0.8,0.9l-1.3,0.6l-0.3-0.1l-0.1-0.1l-0.1-0.2v-0.2l1.8-1.4v-0.1l-0.4-0.1l-0.6-0.6l-0.5,0.2H350l0.2-0.4l0.4-0.4
	v-0.1l-0.1-0.1l-0.4-0.1l-0.6-0.1H349l-0.3,0.2v0.1l0.6,0.1l0.1,0.2l0.1,0.3l0.1,0.3v0.3l-0.2,0.4l-0.4,0.5l-0.4-0.2l-0.7-1.3
	l-0.1-1.7l-0.5-1.4v-0.3l0.3-0.8l0.9-1l0.8-0.2l0.6-0.4l0.6-0.1l0.3,0.1l0.4,0.3l0.1,0.5l-0.1,0.2v0.1l0.3,0.3l0.2,1l0.3,0.9
	l0.2,0.4l0.3,0.3l-0.3-0.7l-0.1-0.8l0.1-1.5v-0.4l0.2-0.1l0.6,0.2v-0.2l-0.5-0.6l-0.3-0.5l-0.1-0.4l0.1-0.3l0.4-0.4l0.2-0.1h0.2
	l0.4,0.2l0.2,0.2l0.3,1l0.2,0.3h0.2l0.2-0.1l0.2-0.3l0.2-0.2h0.2l0.5,0.2h0.2l0.1-0.2l0.1-0.4l0.2-0.1l0.1-0.3l-0.2-0.5l0.4-0.1
	l1.1,0.5l0.4,0.5L357.6,464.7z M355.8,464.1l-0.2,0.3l-0.1-0.1l-0.2-0.4l-0.5-0.6l-0.2-0.4v-0.1l0.2-0.1l0.7,0.5l0.2,0.4
	L355.8,464.1z M453.9,474.5l0.5,1.1l0.4,0.8l0.3,1l0.6,2.1l0.3,0.8l0.1,0.4l0.1,1.1l-0.1,0.2l-0.1,0.2v0.3l0.2,0.9l0.1,1.3l-0.1,0.8
	l-0.1,0.1l-0.4-0.2l-0.3-0.4l-0.2-0.4l-0.6-1.3l-0.2-0.6v-0.4l0.1-0.3l0.2-0.2l0.3-0.6v-0.1l-0.2,0.1l-0.5,0.1l-0.5-0.4l-0.3-0.2
	v-0.8l-0.1-0.2l-0.7,0.3l-0.3-0.2l-0.1-0.3v-0.4l0.1-0.4l0.6-1l-0.1-0.2h-0.3l-0.4-0.3l-0.2-1.1l-0.5-0.6l-0.3,0.1l-0.5,1.7
	l-0.3,0.4l-0.8,0.3l0.1-0.5l0.1-0.4l-0.3-1.3v-0.5l0.2-0.4l0.6-0.2l0.3-0.2l0.2-0.4v-0.3l0.4-0.9l0.2-0.2h0.6l1.2,1l0.4,0.1
	L453.9,474.5z M265.7,448.2l-0.7,0.3l-0.4-0.3v-0.4v-0.1l1.5,0.1L265.7,448.2z M356,471.5l-0.7,0.2h-0.1l-0.5,0.6l-0.4,0.2l-0.3-0.6
	l0.2-0.8l0.5-0.5l1.9,0.5l0.1,0.2v0.1l-0.2,0.1L356,471.5z M462.8,477.5l0.4,0.3l0.2-0.3h0.4l0.7,0.2l0.4,0.4l0.3,0.5v0.3v0.7
	l0.1,0.7v0.4l-0.1,0.3l-0.1,0.2h-0.2l-0.6-0.6l-0.7-1.1l-0.5-0.3v0.1l0.1,0.3l0.4,0.6l0.1,0.4l0.3,0.4l0.1,0.3l0.1,0.4v0.4l-0.1,0.3
	l-0.1,0.2l-0.2,0.1h-0.9l-0.5,0.3l-0.7-0.1l-0.2-0.2l-0.1-0.3l-0.1-0.8l-0.2-1.1v-0.9l-0.5-0.8l-0.4-0.5l-0.5-0.4l-0.4-0.4l0.1-0.3
	l0.5-0.3h0.9L462.8,477.5z M459.5,479.2l0.4,0.7l0.5-0.1l0.3,0.5l0.3,0.8l-0.1,0.5l-0.2-0.1l-0.2,0.3l-0.1,1l0.1,1v1l-0.2,1v0.7
	l-0.1,0.2l-0.1,0.1l-0.2-0.2l-0.2-0.1l-0.3,0.6H459l-0.4-1.2l0.2-2.1l0.6-0.5l-0.4-0.6l-1-0.7v-0.4l-0.6-1v-0.3v-0.9l0.5-0.8
	l0.7-0.2l0.5,0.3l0.3,0.3L459.5,479.2z M466.5,482v0.1h-0.7l-0.3-0.1l-0.1-0.4v-0.4l0.1-0.3l0.2-0.6l0.1-1l1.1,1l0.3,0.5l0.2,0.6
	l-0.3,0.2l-0.4,0.1L466.5,482z M265.9,454.1l0.6,0.4h0.4l0.3,0.2v0.2l-0.8,0.3l-0.2-0.1l-0.5-0.8L265.9,454.1z M348.5,476.5h-0.3
	l-0.4-0.3l0.1-0.3l0.6-0.3l0.6,0.2v0.2l-0.1,0.2l-0.1,0.1l-0.2,0.1L348.5,476.5z M345.8,476.9l-0.4,0.2l-0.1-0.1v-0.2l0.1-0.3
	l0.2-0.3l0.7-0.5l0.6-0.3l0.3,0.1l0.1,0.3l-0.4,0.5L345.8,476.9z M470.3,485.9v1.7l-0.2-0.1h-0.2l-0.4,0.3l-0.5-0.1l-0.2-0.2
	l-0.1-0.2v-0.5l-0.3-0.3h-0.8l-0.3-0.1l-0.2-0.5l-0.1-0.7l0.1-0.3l0.4-0.2l0.3-0.8l0.2-0.1l0.6-1.7l0.4,0.1l0.7,0.9l0.9,1.4
	L470.3,485.9z M466.5,484.8l-0.3,0.1l-0.3-0.1l-0.8-0.8v-0.2l0.1-0.3l0.4-0.5l0.2-0.1h1.1l0.4,0.1l0.1,0.2v0.2l-0.1,0.2v0.2l0.1,0.3
	l-0.1,0.3L466.5,484.8z M462.1,484.1l1.1,0.1l1-0.1l0.4,0.4l0.2,0.4l0.2,0.4l0.1,0.4v0.3l-0.1,0.3v0.1l1.9,0.8l1,0.9l0.4,0.5
	l0.2,0.4l0.5,1.1l0.9,1.2l0.4,0.4l0.3,0.4h-0.1l-0.6-0.2l-1.3-0.8h-0.1l-0.1,0.5l-0.2,0.4l-0.3,0.3l0.2,0.1l1-0.3l0.9,0.8l0.3,0.1
	l0.4,0.6v0.2l-0.1,0.5l-0.1,0.2l0.1,0.1h0.2l0.9-0.2l0.2,0.2v1.7l0.2,0.6v0.3l-0.1,0.4v0.3l0.1,0.3v0.3l-0.2,0.8l-0.2,0.1h-0.4
	l-0.3-0.2l-0.5-0.6l-0.5-1l-0.2-0.1l-0.6-0.1l-0.1-0.1h-0.4l-0.3-0.4v-0.6l-0.3-0.6v-0.3l-0.2-0.1l-0.2,0.2l0.1,0.6l-0.1,0.4
	l-0.5-0.1l-0.8-1.3l-0.9-1.1l-0.3-0.2l0.1-0.3l0.4-0.2h0.3l0.1-0.2l-0.8-1v-0.3l0.2-0.6l-0.3-0.2l-0.9,0.2l-0.3-0.1l-0.3-0.4
	l-0.2-0.4h-0.8l-0.3,0.1l-0.5-0.5l-0.2-0.3l0.1-0.2l0.4-0.3h0.3l0.5,0.3h0.2l0.5-0.5v-0.4l0.3-0.4l-0.1-0.4l-0.2-0.6l-0.5-0.1
	l-0.9,0.4l-0.8,0.6l-0.3-0.2l-0.1-0.3l0.8-1l0.3-0.5l-0.1-0.3l-0.3-0.4l-0.1-1L462.1,484.1z M477.1,491.5l-0.1,1.1l-0.3,1.1
	l-0.5,0.6l-0.4-0.1l-0.3-0.5l-0.3,0.1l-0.3-0.1l-0.2-0.4l0.1-0.5l-0.2-0.4l-0.1,0.4l-0.2,0.3l-0.6,0.5l-0.4,0.8L473,495l-0.3-0.5
	l-0.3-1.3l-0.1-0.6l0.4-0.9l0.6-0.9l-0.1-2.4l1.9-1.4h0.2l0.7,0.9l0.8,1.2l0.2,0.6l0.1,1L477.1,491.5z M339.9,482l-0.3,0.3l-0.4-0.1
	L339,482v-0.3l0.8-0.7l0.2-0.1l0.1,0.1v0.3L339.9,482z M464,491.9l0.1,0.3v0.2l-0.8,0.7v0.1l-0.2,0.4l-0.2,0.2l-0.3,0.5l-0.6,0.5
	v-1.4l-0.6-0.8l0.6-0.5l0.4,0.1h0.6l0.6-0.4L464,491.9z M310.7,481L310.7,481h0.3l0.5-0.5h0.1v0.2l-0.3,0.5l0.1,0.8l0.2,0.4
	l-0.1,0.1l-0.7,0.1l-0.5-0.3H310l-0.3,0.2l-0.1-0.3l0.2-1.4l0.1-0.2l0.4-0.4l0.4-0.1l0.1,0.1l0.1,0.2v0.2L310.7,481z M312.7,481.2
	l-0.3,0.7l-0.6-0.7l-0.1-0.3l0.2-0.1l0.7,0.1L312.7,481.2z M467,498.2l0.1,0.1l0.1-0.1l0.2-0.4h0.4l0.3,0.1l0.2,0.1l-0.1,0.5v0.8
	l-0.1,0.3L468,500l-0.6-0.2l-0.5-0.5l-0.7-0.9l-0.4-0.6v-0.3l-0.3-0.2l-0.5-1.1l-0.3-0.9l-0.4-0.1l-0.5-0.2l-0.2-0.5l0.1-0.4
	l0.7-0.3l1.2,1l0.2,0.5l0.4,0.5l0.1,0.8l0.2,0.3L467,498.2z M314.8,483.8l-0.4,0.1l-0.2,0.2l-0.3,0.1l-0.3,0.2l-1,0.8l-0.4,0.1
	l0.6-0.8l0.1-0.3V484v-0.7l0.2,0.1l0.2-0.1l0.5-0.5h0.3l0.5-0.6h0.2l0.1,0.1l-0.2,0.4l0.2,0.5l-0.2,0.3L314.8,483.8z M475.4,495.7
	l0.7,1.2l0.1,0.5l-0.5,0.2h-0.4l-0.2-0.1l-0.1-0.2l0.1-0.7l-0.3-0.4l-0.3-0.1l-0.3,0.2l-0.1-0.6l0.2-0.5l-0.2-0.6v-0.5l0.1-0.2h0.3
	l0.7,0.4L475.4,495.7z M316.8,484.1l-0.2,0.8l-0.1,0.1l-0.1-0.2L316,485l-0.1-0.2l0.1-0.2v-0.2h0.2l0.1-0.4v-0.2l0.2-0.3h0.2
	L316.8,484.1z M317.3,486h-0.2l-0.1-0.1l-0.1-0.6v-0.2l0.4,0.3l0.1,0.4L317.3,486z M294.6,480.2l0.1,1.7l0.1,0.4l0.3,0.3l0.4,0.3
	l0.2,0.3l0.2,0.4v0.2l-1.3-1l-1.2,0.7h-0.3l-2.7-0.7h-0.6l-0.4,0.2l-0.9,0.7l-0.4,0.2l-0.4,0.1h-0.8l-0.8-0.3l-0.4-0.2l-0.1-0.5
	v-0.8l0.1-0.2l0.2-0.3l0.9-0.3l0.3-0.2l1.5-1.5l0.3-0.2h0.3l0.8,0.4l0.9-0.3l1.7-0.4h0.4l1.1,0.3l0.3,0.2l0.2,0.3L294.6,480.2z
	 M300.7,483.2h-0.1l-0.3-0.4l-0.1-0.3v-0.4l0.9-0.3h0.2l0.1,0.3v0.2l-0.4,0.6L300.7,483.2z M298.2,487.1l-0.5,0.1l-0.5-0.3l-0.3-0.5
	l0.1-0.5l0.9,0.6l0.2,0.2L298.2,487.1z M280.8,484.9h-0.3v-0.1l0.1-0.4v-0.7l0.4-0.1h0.2l0.1,0.1l0.1,0.6l0.2,0.2l0.2,0.2l-0.4,0.1
	L280.8,484.9z M279.1,485.1l-0.3,0.1h-0.2l-0.1-0.1l-0.6-0.1l-0.1-0.1l-0.1-0.6l0.1-0.3l0.2-0.2l0.3-0.1l0.5-0.1l0.4,0.2l0.6,0.7
	l0.2,0.4v0.2l-0.3,0.1L279.1,485.1z M274.3,485.4l0.1,0.5l0.5-0.2l0.4-0.3l0.4-0.4l0.2-0.1l0.1,0.3l0.5,0.5l-0.7,0.4l-1.2,0.5
	l-0.5,0.5l-0.1,0.2l1,0.1l0.2,0.1l0.1,0.2l-0.3,0.1h-0.6l-0.6,0.3l-1.2,0.4L272,489l-0.5,0.1l-0.6-0.1h-1.2l-0.8,0.1l-0.2,0.1h-0.2
	l-0.2-0.1l-0.3,0.1l-0.4,0.2l-0.3,0.1l-0.4-0.1l-0.2,0.1l-0.2-0.1l-0.5-0.6l-0.1-0.3l0.7-0.3h0.4l0.6,0.1l0.7-0.2l1.4-0.1l0.5-0.2
	l0.6-0.9l0.3-0.1l0.3-0.4l0.7,0.2l0.2,0.6l0.1,0.1h0.1l0.1-0.4l0.4-0.1l-0.1-0.2l-0.6-0.4L272,486l-0.3-0.1l-0.2-0.2l-0.1-0.3V485
	l0.1-0.3l0.2-0.3l0.4-0.2l0.4-0.1l0.8,0.1h0.7l0.3,0.1l0.2,0.2L274.3,485.4z M276,487.7L276,487.7l-0.2-0.3l0.1-0.2l0.1-0.1l0.4-0.3
	l0.2-0.1h0.2v0.1l-0.3,0.4l-0.3,0.2L276,487.7z M265.2,488.2l-2,0.4l-0.8,0.5l-0.7,0.6l-0.5,0.3h-0.3l-0.3,0.1l-0.7,0.3h-0.3
	l-2.2,0.5h-0.1l0.2-0.3l0.7-0.2l0.5-0.3l0.6-0.5l0.3-0.2l0.2-0.3l0.2-0.6l0.2-0.2l0.6-0.4l0.4-0.2h0.4l0.7,0.3l0.4-0.1l0.2-0.2
	l-0.1-0.2l0.1-0.3l0.2-0.5l0.4-0.4l0.5-0.3l0.6-0.1h0.7l0.5,0.1l0.7,0.8l0.1,0.3l-0.4,0.4l-0.3,0.4L265.2,488.2z M254,489.5
	l-0.2,0.3l-0.1,0.1l-0.8-0.5l-0.6-0.1v-0.2l0.1-0.2h1l0.4,0.1l0.2,0.2L254,489.5z M247.3,489.9l-0.5,0.2l-0.1-0.1l0.1-0.4l0.3-0.2
	l0.8-0.4l0.4,0.3l0.1,0.2l-0.1,0.2l-0.3,0.2l-0.2,0.1l-0.2-0.1L247.3,489.9z M223.4,486.4l-3.1-0.9l-0.3-0.4h0.5l0.6,0.1h1.3
	l1.5,0.2h1.3l1,0.1l0.5-0.4l-0.7-0.6l-0.1-0.3l0.5-0.1l0.5-0.2l0.9-0.1l0.5,0.8v0.4l-0.2,0.4l-0.3,0.3h-0.7l-0.2,0.2l0.1,0.7h-1.4
	L223.4,486.4z M236.6,489.1h-0.5l-0.4-0.3l0.4-0.4l0.3-0.2l0.5-0.2l0.4,0.3l0.2,0.5L236.6,489.1z M230,488l0.9,0.8l1.4,0.5l0.5,0.3
	v0.1l-0.9-0.2l-0.3-0.2l-0.8-0.1l-0.5-0.2l-1.1-0.7l-1-0.2L228,488l-0.2-0.3l-0.2-0.4l0.1-0.2h0.3l0.7,0.6l0.1-0.1h0.8L230,488z
	 M215.8,483.5l-0.2,0.2l-0.4-0.5l-0.1-0.3l0.1-0.2l0.3-0.3l0.4,0.2l0.2,0.3l0.1,0.4v0.2L215.8,483.5z M212.2,483.4l-0.1,0.3l0.7,0.2
	l0.1,0.2l-0.3,0.6l-0.2,0.1h-0.1l-0.2-0.2l-0.4,0.2l-1.5,0.2l-0.2-0.6l-1,0.3l1.2-1.4h0.7l0.3-0.1l0.2-0.5l0.6-0.7l0.5,0.3l0.1,0.5
	l-0.1,0.2L212.2,483.4z M208.5,483.4h-0.2H208l-0.8-0.5l-0.5-0.2l-0.6-0.2h-0.5v-0.3l0.1-0.2l2.1,0.3l0.5-0.1l0.4-0.2l0.5-0.5
	l0.3-0.1l0.1,0.1l0.2,0.4l-0.2,0.3l-0.3,0.2l-0.2,0.2L208.5,483.4z M204.2,482.2l-0.3,0.2l-0.1-0.1l-0.5-0.8v-0.2h0.5l0.2-0.1
	l0.1-0.3l-0.2-0.5l-0.4-0.7l-0.1-0.4l0.2-0.1h0.3l0.9,0.4l0.2,0.7l0.3,0.3l0.8,0.5h-0.5l-0.3,0.1l-0.7,0.7L204.2,482.2z
	 M215.2,485.3h-0.6l-0.4-0.7l0.3-0.4l0.5,0.7L215.2,485.3z M213.5,484.8l-0.6,0.4l-0.2-0.3l0.2-0.8l0.3-0.1L213.5,484.8L213.5,484.8
	z"/>
<path class="st0" d="M759.4,243l0.5,1.9l0.5,1.9l0.5,1.9l0.5,1.9l0.5,1.9l0.5,1.9l0.6,1.9l0.6,1.9l0.6,1.9l0.6,1.9l0.6,1.9l0.6,1.9
	l0.6,1.9l0.6,1.9l0.6,1.9l0.6,1.9l0.4,0.8l0.4,1.4l2.3,3.9l0.7,1.7l-0.1,0.7l0.3,0.6l0.7,0.4v0.6l-0.7,0.8l-0.4,0.9l-0.2,1.5l0,0
	l-0.5,2.6l0.2,1.6l1,2l0,0l0.3,0.9v4.2l0.6,2.6l1,1.6l-4.2,0.5l-4.2,0.5l-4.2,0.5l-4.2,0.5l-4.2,0.4l-4.2,0.4l-4.2,0.4l-4.2,0.4
	l-0.1,1.1l0.2,1l0.5,0.9l2.1,1.7l0.2,0.4l-0.2,1.5l0.2,1l-0.1,0.6l-0.4,0.5l-0.1,0.5l-0.3,0.2l-1.3,1.7l-5,1l0.2-0.4l1-0.2l1.4-0.6
	l-0.4-0.8L738,315l-0.5-0.1l-0.4-0.5l-0.1-1.7l-0.4-1l-0.9-0.9l-0.3,0.2l-0.4,1.8l-0.3,2.3l-0.2,0.8l-1.5,0.2h-1.3l-0.6,0.1
	l-0.4-3.1l-0.4-2.8L730,307l-0.4-2.8l-0.4-2.8l-0.4-2.8l-0.4-2.8L728,293l0.1-2.8l0.1-2.8l0.1-2.8l0.1-2.8l0.1-2.8l0.1-2.8l0.1-2.8
	l0.1-2.8l0.1-2.8l0.1-2.8l0.1-2.8l0.1-2.8l0.1-2.8l0.1-2.8l0.1-2.8l0.1-2.8v-0.7v-0.2v-0.4l-1.2-0.9l-0.2-0.2l-0.2-0.2h0.2l2-0.1
	l2-0.2l2-0.2l2-0.2l2-0.2l2-0.2l2-0.2l2-0.2l2-0.2l2-0.2l2-0.2l2-0.2l2-0.2l2-0.2l2-0.2L759.4,243z M735.6,317.1l-1.1,0.4l-1.7,0.1
	l-0.4-0.1l0.7-0.3l2-0.5L735.6,317.1z"/>
<path class="st0" d="M708.3,232.7v0.3l0.3,0.6v0.3l-0.2,0.2l-0.4,0.1l-0.3,0.2v0.3v0.1v0.3l0.1,0.2l-0.2,0.3l-1.3,0.9l-0.5,1.1
	l0.3,1.3l-0.4,1.4l-1.1,1.4l-0.4,1.5l0.3,1.6l-0.5,1.4l-1.3,1.1l-0.4,0.7l0,0v0.5l0.2,0.4l-0.4,0.7l-1.1,0.8l-0.6,0.7v0.7l-0.3,0.3
	l-0.5,0.2l-0.2,1l-0.1,2.4l-0.6,1.4l-1,0.4l-0.5,0.6v0.7l-0.6,0.9l-1.1,1l-0.3,0.9l0.4,0.8l-0.1,0.3l-0.3,0.3l-1.2,0.5l-0.2,0.2
	l-0.1,0.2l0.3,0.4l0.2,0.6l-0.1,1.1l-0.3,0.5l-0.3,0.5l-1,0.8l-0.3,0.6l0.5,0.4v0.5l-0.5,0.5l0.2,0.5l0.1,0.4l0.5,0.3l0.2,0.9
	l-0.3,1.2l0.1,1l0.6,0.8l0.1,0.3l-0.4,2.7l0.1,0.4l-2.5,0.1l-2.3,0.1l-2.3,0.1l-2.3,0.1l-2.3,0.1l-2.3,0.1l-2.3,0.1l-2.3,0.1
	l-2.3,0.1l-2.3,0.1l-2.3,0.1l-2.3,0.1l-2.3,0.1l-2.3,0.1l-2.3,0.1l-2.3,0.1l-0.1-2l-0.1-2l-0.1-2l-0.1-2l-0.7-0.3l-1.2-0.1l-0.6,0.1
	l-0.7-0.1l-0.5,0.3l-0.3,0.1l-0.3-0.1l-0.2-0.3l-0.5-0.2l-0.7-0.7V269v-1.6v-1.6v-1.6v-1.6V261v-1.6v-1.6v-1.6v-1.6V253v-1.6v-1.6
	v-1.6v-1.6V245l-0.3-2.1l-0.3-2.1l-0.3-2.1l-0.3-2.1l-0.3-2.1l-0.3-2.1l-0.3-2.1l-0.3-2.1l3.4-0.1l3.4-0.1l3.4-0.1l3.4-0.1l3.4-0.1
	l3.4-0.1l3.4-0.1l3.4-0.1l3.4-0.1l3.4-0.1l3.4-0.2l3.4-0.2l3.4-0.2l3.4-0.2l3.4-0.2l3.4-0.2l0.6,1.1l0.6,0.7l0.1,0.6l-0.1,0.6
	l-0.8,1.3l-0.8,0.6l-0.4,0.6l-0.6,0.6l-0.8,1.6l2-0.2l2-0.2l2-0.2L708.3,232.7z"/>
<path class="st0" d="M476,209.2l-0.8,5.2l-0.8,5.2l-0.8,5.2l-0.8,5.3l-0.8,5.3l-0.8,5.3l-0.8,5.3l-0.8,5.3l-0.8,5.3l-0.8,5.3
	l-0.8,5.3l-0.8,5.3l-0.8,5.3l-0.8,5.3l-0.8,5.3l-0.8,5.3l-2.9-0.4l-4.5-0.7l-4.5-0.7l-4.5-0.7l-4.5-0.7l-4.5-0.7l-5.7-3.2l-5.6-3.2
	l-5.6-3.3l-5.6-3.3l-5.6-3.3l-5.5-3.4l-5.5-3.4l-5.5-3.4l0.8-0.7l1.3-2l0.1-0.1l0,0l1.8,0.2l0.9-0.4l0.7-0.9l0.3-1l-0.1-1.1
	l-0.6-0.9l-1.1-0.8l-0.4-1.6l0.3-2.4l0.5-1.2l0.7-0.1l0.7-0.5l0.8-0.8l0.6-1l0.5-1.1l0.4-1.4l0.2-1.8l1.6-1.9l1.4-1.1l2.4-1.2
	l0.6-0.4l0.1-0.4l0,0l-0.3-0.6l-1.6-1.5l-0.6-1l0.1-0.8l0,0l-0.1-0.8l-1.3-3.4l-0.3-1.8l0.3-1.2v-0.1l1.3-5.2l-0.3-1.9l0.1-1
	l0.5-1.2l0.1-0.8l-0.2-0.7l0.2-1.2l0.3-1.5l-0.3-1.1v-0.5l0.5-1l0.7-0.4l1-0.2l1.1,0.1l1.2,0.4l0.8,0.7l0.4,0.9l0.5,0.5l0.6,0.1
	l0.9-0.5l1-1.3l0.2-0.1l1.3-6.3l1.2-5.7l3.7,0.7l3.7,0.7l3.7,0.7l3.7,0.7l3.7,0.7l3.7,0.7l3.7,0.7l3.7,0.6l3.7,0.6l3.7,0.6l3.7,0.6
	l3.7,0.6l3.7,0.6l3.7,0.6l3.7,0.6L476,209.2z"/>
<path class="st0" d="M367,110.5l-0.7,2.7l-0.7,2.7l-0.7,2.7l-0.7,2.7l-0.7,2.7l-0.7,2.7l-0.7,2.7l-0.7,2.7l-0.7,2.7l-0.7,2.7
	l-0.7,2.7l-0.7,2.7l-0.7,2.7l-0.7,2.7L356,151l-0.7,2.7l2,3.1l2,3.1l2,3.1l2.1,3.1l2.1,3.1l2.1,3.1l2.1,3l2.1,3l1.6,2.5l1.6,2.5
	l1.6,2.5l1.6,2.5l1.7,2.5l1.7,2.5l1.7,2.5l1.7,2.5l2.3,3.6l2.3,3.6l2.4,3.6l2.4,3.6l2.4,3.6l2.4,3.6l2.4,3.6l2.6,3.8l-0.3,1.2
	l0.3,1.8l1.3,3.4l0.1,0.8l0,0l-0.1,0.8l0.6,1l1.6,1.5l0.3,0.6l0,0l-0.1,0.4l-0.6,0.4l-2.4,1.2l-1.4,1.1l-1.6,1.9l-0.2,1.8l-0.3,1.4
	l-0.5,1.1l-0.6,1l-0.8,0.8l-0.7,0.5l-0.7,0.1l-0.5,1.2l-0.3,2.4l0.4,1.6l1.1,0.8l0.6,0.9l0.1,1.1l-0.3,1l-0.7,0.9l-0.9,0.4l-1.8-0.2
	l0,0l-0.1,0.1l-1.5-0.1l-3.6-0.4l-3.6-0.5l-3.6-0.5l-3.6-0.5l-3.6-0.5l-3.6-0.5l-3.6-0.5l-3.6-0.5v-0.1l0.3-1.6l-0.4-0.7l-0.8,0.2
	l0.2-2.2l0.4-0.9l0.1-1l-0.1-2.5l-1.1-3.3l-3.1-4.5l-1.7-1.7l-1.2-2l-0.9-0.7l-1.2-0.4l-0.5,0.6l-1.3-0.8l0.6-1.6l-0.8-2.7l-1.1-0.5
	l-2.9-0.6l-3.4-2.2l-0.9-1v-1.5l-1.4-1.6l-2-1.8l-1.4-0.1l-1.6-0.6L337,219l-1.4-0.5l-2.8-0.5l-1-0.5l-0.7-1.3l-0.9-0.8l0.6-1.2
	l0.2-1.2l0.4-0.9l0.1-2.1l0.9-1.7l-0.1-0.7L332,207l-1.6-1.3l-0.1-1l0.7-1.2l-0.2-1l-1.2-1.2l-0.8-2.2l-1.4-1.5l-0.2-1.9l-0.8-1.3
	l-0.1-1l-1.4-3.9l-1.7-3.3v-1.6l0.5-2l1.3-0.9l0.8-0.9l0.2-1l0.1-0.8l-0.5-1.5l-3-1.7l-1.7-3.9l0.6-2.4l-0.3-2.7l0.5-1.6l0.4-1.8
	l0.9-0.1l0.7,0.3l-0.3,0.7l-0.1,1.3l0.5,1.2l0.7,0.6l0.5,1.1l0.5,0.4l0.5,0.2l-0.1-0.7l-0.2-0.5v-1.3l-0.3-1.7l-0.6-1.1v-1.6
	l-0.3-0.5l-0.1-0.6l1-0.4l1.2-0.1l1.5,0.3l4.1,1.5l1-0.1l0.7,0.3l0.6,0.1l-1-0.7l-0.7-0.1l-0.7-0.3l-1.5-0.4l-0.6-0.3l-0.5-0.7
	l-0.4-0.2l-1.6,0.4l-0.6-0.3l-1.2-1.3l-0.6-0.3l-1.2,0.2l-0.8,2.2l-0.2,1.7h-0.7l-0.5-0.9l-1-0.7l-0.7-0.9l-0.9-1.5l-0.5-0.6l-1,0.7
	l0.1-0.4l0.7-1l0.5-1.9l0.7,1.8V156l-0.5-1.4l-0.6-0.6l-0.2-2.3l-1.5-1.8l-0.9-2.5l-2.1-4.3l0.7-3v-4l1.1-1.9l0.4-1.5l0.2-2.4
	l-0.2-1.4l-1.4-4.1l-1.6-3l0.2-1.8l0.4-1.8l1-1.4l1-1.5l0.5-0.3l0.1,0.2l-0.2,0.3l0.3,0.2l0.3-0.7l0.3-0.3l-0.3-0.2l0.1-0.2l0.3-0.4
	l1.4-1.9l0.8-2.7l1.8-3l0.3-1.1l0.2-2.5v-1.5l-0.6-1.3l0.8-1.3l0.4-1.4l-0.1-0.3l2.9,0.9l2.8,0.9l2.8,0.9l2.8,0.9l2.8,0.9l2.8,0.9
	l2.8,0.8l2.8,0.8l2.8,0.8l2.8,0.8l2.8,0.8l2.8,0.8l2.8,0.8l2.8,0.8l2.8,0.8L367,110.5z M337.5,225.2l2.3,1.4h1.4l0.1,0.4l-0.2,0.3
	l-3.1-0.2l-0.8-0.6l0.1-0.6l-0.2-0.6L337.5,225.2z M332.2,224.6l-0.7-0.1l-0.9-0.4l0.4-0.2l0.6-0.1l0.1,0.2L332.2,224.6z M334.9,227
	H334l-0.6-0.4l-0.6-1.7l2.2,0.4l0.8,0.9l0.1,0.2L334.9,227z M353.5,240.1l0.3,1.2L353,241l-0.9-0.2l-0.1-0.7l-0.1-0.9l-0.1-0.3
	l-0.6-0.2v-0.1v-0.4l0.2-0.1l1.8,1.4L353.5,240.1z M339.6,239.1L339,239l-0.7-0.3l-0.2-0.9l0.6,0.1l0.5,0.3l0.3,0.7L339.6,239.1z
	 M351.4,248.2h-0.7l-0.7-0.5l-0.3-1.6l-0.5-1.3l0.5-0.2l0.3,1.2l1.1,2L351.4,248.2z"/>
<path class="st0" d="M562.7,173.2l-0.2,2.8l-0.2,2.8l-0.2,2.8l-0.2,2.8l-0.2,2.8l-0.2,2.8l-0.2,2.8l-0.2,2.8l-0.2,2.8l-0.2,2.8
	l-0.2,2.8l-0.2,2.8l-0.2,2.8l-0.2,2.8l-0.2,2.8l-0.2,2.8l-3-0.2l-3-0.2l-3-0.2l-3-0.2l-4.5-0.4l-4.5-0.4L534,216l-4.5-0.4l-4.5-0.4
	l-4.5-0.5l-4.5-0.5l-4.5-0.5l-4.5-0.5l-4.5-0.5l-4.5-0.5l-4.5-0.6L489,211l-4.5-0.6l-4.5-0.6l-4.5-0.6l0.5-3.7l0.5-3.7l0.5-3.7
	l0.5-3.7l0.5-3.7l0.5-3.7l0.5-3.7l0.5-3.7l0.5-3.7l0.5-3.7l0.5-3.7l0.5-3.7l0.5-3.7l0.5-3.7l0.5-3.7l0.5-3.7l3.5,0.5l3.5,0.5
	l3.5,0.5l3.5,0.5l3.5,0.5l3.5,0.4l3.5,0.4l3.5,0.4l3.5,0.4l3.5,0.4l3.5,0.4l3.5,0.4l3.5,0.4l3.5,0.3l3.5,0.3l3.5,0.3l2.8,0.2
	l2.8,0.2l2.8,0.2l2.8,0.2l2.8,0.2l2.8,0.2l2.8,0.2l2.8,0.2l-0.1,1.9l-0.1,1.9l-0.1,1.9l-0.1,1.9l-0.1,1.9l-0.1,1.9l-0.1,1.9
	L562.7,173.2z"/>
<path class="st0" d="M898.9,109.7l0.2,0.8l0.3,1.1l0.2,0.8l0.3,1.1l0.3,1.2l0.3,1.1l0.3,1l0.1,0.6l0.2,0.9l-0.2,0.4l0.1,0.9l-1,0.2
	l-1.5,0.6l-2,1.1h-1.2l-1,0.8l-4,1.2l-0.9-0.1l-0.8,1.3l-1.6,1l-3.8,3.3l-0.4,0.6l-0.8-0.8l-0.6-0.6l0.8-0.8l0.6-0.6l0.5-0.6
	l0.3-0.4l-0.5-0.5l-0.5-0.5l-0.3-1.4L882,122l-0.3-1.4l-0.3-1.4l-0.3-1.4l-0.3-1.4l-0.3-1.4l-0.3-1.4l0.9-0.2l0.9-0.2l0.9-0.2
	l0.9-0.2l0.9-0.2l0.9-0.2l0.9-0.2l0.9-0.2l0.1,0.4l0.5-0.2v-0.3l1.3-0.3l1.3-0.3l1.3-0.3l1.3-0.3l1.3-0.3l1.3-0.3l1.3-0.3l1.3-0.3
	L898.9,109.7z"/>
<path class="st0" d="M851.8,169.1l-0.3-0.3l-0.6-0.2l-0.3-0.1l0.7-1.2l0.8,0.7l0.9,0.8l-0.8,1.4L851.8,169.1z"/>
<path class="st0" d="M867,151.6l-0.4,0.6l-0.2,1l-0.7,1.3l0.2,0.7l0.3,0.5l0.2,1.1l0.9,0.9l1.6,1.5l0.9,2.7l1.4,1.6l1.9,1.8l1.2,0.3
	l0.2,0.8l-0.2,1.4l-0.5,0.8l0.8-0.3l0.5,0.2l0.7,1l0.1,0.7l-1.2,0.3l-2.5,0.6l-2.5,0.6l-1.2,0.3l0,0l0,0l0,0l0,0l0,0l0,0l0,0l0,0
	l-0.6-2.3l-0.6-2.3l-0.6-2.3l-0.6-2.3l-0.6-2.3l-0.6-2.3l-0.6-2.3l-0.6-2.3l0.6-1.4l0.3-0.4l0.4-0.3l1.4-0.4L867,151.6z"/>
<path class="st0" d="M819.9,299.4l0.8,1.3l1.8,5.4l0.9,1.8l2,5l2.7,4.7l3.7,5.6l5.7,6.6l0.7,1l-0.4,1v1l0.2,1.4l0.4,1.3l0.8,1.6
	l1.5,2.4l-0.7-0.4l-2.1-3.4l-0.5-2.1l-0.3-3.1l-0.3,0.1l-0.1,1v1.2l-0.3,0.5l-0.8-1.7l-0.1-0.8l0.4-1l-0.2-0.3l-0.9-0.3l-0.3-0.7
	v-0.8l-0.6-0.3l-0.4,0.1l0.6,1.8l0.6,1l1,2.6l1.1,1.5l0.7,1.3l8.2,13.6l1.7,1.6l0.7,1.3l1,2.7l0.8,3.6l0.2,6.7l0.6,4.5l-0.2-0.1
	l-0.2-0.5h-0.2l-0.5,2.2l-0.8,2.1l0.1,3l-0.3,1.5l-1.4,1.8l-1,0.1l-2.3,1.6h-1.8l-1.9,1l-1.4,0.2l-1-1.2v-0.6l0.2-0.7l0.5-0.2
	l2.1,1.1l0.2-0.7l-0.7-0.6l-1.1-0.2l-0.8-0.3l-2.1-3l-2-2l-0.5-1.5l-2.9-0.5l-2.2-1.1l-1.7-2.3l-1.4-4.2l-1-0.3L824,364l0.6-1.7
	l0.7-1.5l-0.7,0.5l-0.5,0.6l-0.5,1.3l-0.5,0.3l-0.5-0.1l-0.9-2.2l-0.3-2.8l0.6-1.2l-1.1,0.1l-1.1,0.6l0.3,0.9l-0.1,0.5h-0.9
	l-0.7-0.2l-1-0.8l-1.5-1.7l-3.2-4.8l-0.6-0.7l-0.9-0.6l0.3-0.3l0.7-0.2l1.2-2.5l1-1.6l0.3-1l-0.1-0.4L814,344l-0.6,0.6l-0.3-0.1
	l-1-1.1l-0.8-0.2l-0.5,0.3l0.7,0.9l0.6,0.3v1.5l-0.1,0.5l-0.4,0.5l-0.8-0.1l-0.3,0.4l-0.5-0.3l-0.5-0.6l-0.6-1l0.4-6.1l0.6-3.9
	l-0.5-4.3v-0.6l-0.3-1.1l-1.9-2.2l-7.7-5l-6.3-6.4l-4.9-2.1l-3.4,1l-0.5,0.6l-0.2,0.7l0.3,0.8l-0.3,0.4l-0.9,0.1l-1.2,0.3l-3,2.3
	l-1.2,0.1l-1,0.6l-0.7,0.5l-2,0.4l-1.7,0.6l-0.8-0.1l-0.6-1l-0.1-1.1l0.5,0.8l0.7,0.6l0.2-0.3v-0.6l-0.7-1.1l-2.1-1.3l-2.5-1.9h0.7
	l0.1-0.5l-0.8-0.5l0.2-0.7l0.4-0.8l-0.9,0.2l-0.8,0.6v0.7l-0.1,0.5h-0.5l-0.9-0.5l-4.4-1.3l-3.7-0.6l2.7-0.7l1.5,0.2l-0.2-0.5
	l-0.4-0.3l-1.2-0.3l-1.5,0.3l-1-0.1l-0.9,0.5l-1,0.7l-0.9,0.4l-3.7,0.8l-3,0.8l0.4-0.6l0.5-0.4l1.7-0.7l0.2-1.1l-0.5-1l-0.4,0.3
	l-0.4,0.9l-0.7-0.5l-0.7,0.1l-0.1,1.3l-0.8,0.9l-0.3,0.9l-2.5,0.9l-0.3-0.2l0.7-0.9l-0.1-0.5l-0.5,0.3l0.1-0.5l0.4-0.5l0.1-0.6
	l-0.2-1l0.2-1.5l-0.2-0.4l-2.1-1.7l-0.5-0.9l-0.2-1l0.1-1.1l4.2-0.4l4.2-0.4l4.2-0.4l4.2-0.4l4.2-0.5l4.2-0.5l4.2-0.5l4.2-0.5
	l0.7,1.1l1.3,2.3l0.1,0.6l1.2-0.1l2.1-0.1l2.1-0.1l2.1-0.1l2.1-0.1l2.1-0.1l2.1-0.1l2.1-0.1l2.1-0.1l2.1-0.1l2.1-0.1l2.1-0.2
	l2.1-0.2l2.1-0.2l2.1-0.2l2.1-0.2l2.1-0.2l0.1,0.5l0.5,0.7l0.2,0.9l0.2,0.4l0.5,0.2h0.7l0.6-0.6l0.2-1.2l-0.1-1.2l-0.5-1.4l-0.1-1.2
	l0.2-0.7l0.4-0.2l0.3-0.4l0.3-0.1l0.7,0.1l2.8,0.6L819.9,299.4z M778,321.9l-1.3,0.7l-1.5-0.2l0.9-0.2l0.7,0.1l1.5-1l0.8-0.7l1-0.3
	L778,321.9z M845.8,348l0.4,1.1l-1.7-2.3l-2.2-3.8l-1.3-3l0.7,0.7l0.8,1.6L845.8,348z M822.1,363.2l0.1,0.9l-0.9-1.4l-0.7-1.6
	l0.7,0.4L822.1,363.2z M822.9,364.5l-0.4,0.5l-1-0.1l-0.6-0.4l-0.4-1l1,0.9l0.3,0.2L822.9,364.5z M848.8,380.6l-2.2,3.3l0.2-0.8
	l0.8-1.7l0.2-0.8l0.6-0.6l0.5-0.9l-0.1-1l0.9-0.8l0.3-0.2L848.8,380.6z M845.9,384.8l-0.4,0.1l0.4-0.7h0.2L845.9,384.8z
	 M843.5,386.8h-0.3l0.1-0.2l0.5-0.5l0.2,0.1v0.2L843.5,386.8z M840.7,388.6l-0.6,0.5l-0.7-0.2l0.7-0.5l2.1-0.7l-0.7,0.6L840.7,388.6
	z M836.9,390.3l-0.4,0.4l-0.2-0.1l-0.1-0.5l-0.8-0.9v-0.3l1.5,0.8l0.1,0.3L836.9,390.3z M833.8,391.6l-0.9,0.3l0.6-0.7l0.1-0.9
	l0.5,0.6l0.1,0.4L833.8,391.6z M830.9,392.9l-0.3,0.1l-0.1-0.2l0.6-0.4h0.4v0.3L830.9,392.9z"/>
<path class="st0" d="M824.7,278.8l-0.4,1.4l-1.4,1h-0.5l-0.3,0.3l0.3,0.5l0.5,0.3v0.4l-0.3,0.6l-0.8,0.3l-0.4,0.7l0.2,0.5l0.3,0.3
	v0.5l-0.8,0.7l-0.1,0.6l0.5,0.1l0.3-0.2l0.3,0.1l-0.4,1l-0.4,0.6l-0.3,1l-1,0.4l0.1,0.3l0.7,0.2l0.6,0.7l-0.8,1.5H820l-0.4-0.2
	l-0.1,1.1l0.2,0.6v1.2l-0.1,1.5l-0.2,0.6l0.2,1.1l0.3,1l-2.2,0.2l-2.8-0.6l-0.7-0.1l-0.3,0.1l-0.3,0.4l-0.4,0.2l-0.2,0.7l0.1,1.2
	l0.5,1.4l0.1,1.2l-0.2,1.2l-0.6,0.6h-0.7l-0.5-0.2l-0.2-0.4l-0.2-0.9l-0.5-0.7l-0.1-0.5l-2.1,0.2l-2.1,0.2l-2.1,0.2l-2.1,0.2
	l-2.1,0.2l-2.1,0.2l-2.1,0.1l-2.1,0.1l-2.1,0.1l-2.1,0.1l-2.1,0.1l-2.1,0.1l-2.1,0.1l-2.1,0.1l-2.1,0.1l-2.1,0.1l-1.2,0.1l-0.1-0.6
	l-1.3-2.3l-0.7-1.1l-1-1.6l-0.6-2.6v-4.2l-0.3-0.9l0,0l-1-2l-0.2-1.6l0.5-2.6l0,0l0.2-1.5l0.4-0.9l0.7-0.8v-0.6l-0.7-0.4l-0.3-0.6
	l0.1-0.7l-0.7-1.7l-2.3-3.9l-0.4-1.4l-0.4-0.8l-0.6-1.9l-0.6-1.9l-0.6-1.9l-0.6-1.9l-0.6-1.9l-0.6-1.9l-0.6-1.9l-0.6-1.9l-0.6-1.9
	l-0.6-1.9l-0.5-1.9l-0.5-1.9l-0.5-1.9l-0.5-1.9l-0.5-1.9l-0.5-1.9l4-0.4l4-0.4l4-0.4l4-0.5l3.7-0.5l3.7-0.5l3.7-0.6l3.7-0.6h-0.1
	l-0.5,1.1l-1.5,2.1l-0.3,1.5l2.5,1.3l0,0l1.6,1.1l1,0.4h1l0.7,0.3l0.5,1l0,0l3.6,4.8l0,0l3.3,2.2l1.4,1.1l0.8,1.2l2.8,1.7l1,1
	l0.2,0.8l0.4,0.6l0.6,0.3l0.7,0.7l0.7,1.1l1.2,0.9l1.6,0.6l1.4,1.8l1.2,3l1,1.7l1.2,0.6l1.9,2.4l0.7,1.5l0.2,1.4l0.9,0.9
	L824.7,278.8z M820.4,295.6v3.7l-0.5-1.2l-0.2-1.2l0.3-0.8L820.4,295.6z"/>
<path class="st1" d="M514.1,391.8l-1-0.1l-0.2-0.5l-0.6-0.6v-0.5l-0.5-0.9v-0.6l1.1-0.4l1.6,0.2l1.6,1.4l-0.1,0.8l-0.3,0.4l-0.6,0.2
	l-0.6,0.5L514.1,391.8z M507.8,387.7l-0.4,0.2l-0.2-0.3l0.2-0.3l0.5-0.3h0.7l0.9-0.2l0.3,0.4l-0.5,0.2l-0.3,0.4l-0.7-0.2
	L507.8,387.7z M522.2,404.6l0.2,0.2l0.4,0.2l-0.4,0.7l0.1,0.6v0.3l-0.6-0.1l-0.8-0.5l-0.2-0.5l-0.1-0.7l-0.5-0.2l0.2-0.4v-0.1
	l-0.3-0.1l-0.1,0.6l-0.7-0.5l-0.2-0.2l0.2-0.6v-1.4l0.3-0.3l0.1-0.6l1.2,0.8l1.3-0.1l0.5,0.3l-0.1,1.8l-0.3,0.3l-0.1,0.5
	L522.2,404.6z M525,409.8l1.4,1.4l0.4,0.2l0.1,0.4l1.2,1.1l0.2,0.2l-0.6,0.2l-1.1-0.3l-0.9-1.2l-1.9-1.7l0.3-0.2l0.4-0.1l0.3-0.4
	L525,409.8z M528.5,416.2l0.1,0.3l0.9,0.4l0.6,0.4l0.5,1.3l0.1,0.6l0.3,0.9v0.4l-0.4,0.2h-1.1l-1-0.6l-0.7-0.2l-0.7-0.6L527,419
	l0.5-0.7l0.3-0.9l-0.5-0.3l-0.3-0.7l-0.1-1l0.2-0.4l0.8-0.3l0.6,0.3l0.1,0.6L528.5,416.2z M524.9,415.3l-0.6-0.1l-0.4-0.5l0.3-0.6
	l0.1-1l0.9,0.5l0.3,0.5l0.1,0.4v0.6L524.9,415.3z M523.5,436.4l-0.6,0.1l-0.4-0.3l-0.9-2l0.2-0.6l1.7-1.9l0.7-2.1l0.4-1.7l0.9-0.3h1
	l1.4-0.4l0.4-1.6l0.7-0.6l0.4,0.1l0.9,2.1l2.1,3.7l0.1,1.6l-0.6,1.1l0.5,0.6l-0.2,0.9l0.4,1.2v0.6l-0.8,0.3l-2.3-0.1l-2.3-1
	l-2.6-0.1L523.5,436.4z"/>
<path class="st0" d="M691.1,136.2l0.7,1l1.2,0.9l0.7,0.8l0.2,0.8l0.8,0.8l1.3,0.8l0.8,0.8l0.2,0.7v1.1l-0.2,1.5l-0.4,1.1l-0.6,0.7
	l-0.4,0.9l-0.2,1.2l-0.9,1.1l-1.6,1.1l-1.8,0.8l-2.1,0.5l-1.2,0.9l-0.3,1.4l0.2,1.1l0.8,0.9l0.5,0.9l0.2,1l-0.4,1.7l-1,2.4l-1.2,1.6
	l-1.4,0.8l-0.6,1l0.2,1.3l-0.1,0.8l-0.6,0.3l-1-0.7l-0.2-0.5l-0.8-0.5l-0.1-0.3l-0.6-0.3l-0.6-1.1l-2.9,0.1l-2.9,0.1l-2.9,0.1
	l-2.9,0.1l-2.9,0.1l-2.9,0.1l-2.9,0.1l-2.9,0.1l-2.9,0.1l-2.9,0.1l-2.9,0.1l-2.9,0.1l-2.9,0.1H640h-2.9h-2.8l-0.7-1.1l-0.4-1
	l0.2-0.5v-1.7l-0.1-2.9L633,158l-0.4-0.4v-0.5l0.3-0.6l-0.1-0.4l-0.5-0.2l-0.2-0.5l0.2-0.9l-0.1-0.5l-0.4-0.2l-0.2-0.3l0.1-0.4
	l-0.2-0.3l-0.5-0.1l-0.2-1l0.1-1.8l-0.2-1.3l-0.5-0.8l-0.2-0.7v-0.7l-0.5-1.1l-1-1.4l-0.7-1.9l-0.3-2.4l-0.7-1.3l-0.3-0.1l-0.3-1.2
	l-0.3-0.6V136l-0.9-1.1l-0.1-0.4l0.1-0.5l0.6-1l0.6-1.7l0.1-1.1l0.4-0.8v-0.5l-0.1-0.6l-0.2-0.5l-0.7-0.4l-0.1-0.2l-0.1-0.6l0.3-0.4
	l0.1-0.4l0.1-0.8l-0.4-0.9l-0.2-0.9h1.6h3.6h3.6h3.5h3.6h3.6l3.6-0.1l3.6-0.1l3.6-0.1l3.6-0.1l3.6-0.1l3.5-0.1l3.6-0.1l3.5-0.1
	l3.6-0.2l3.5-0.2l3.6-0.2l0.1,0.9l0.2,0.7l0.5,0.5l0.7,0.4l0.2,0.8l-0.4,1.2l-0.1,1.5l0.2,1.7l0.4,1.5l0.6,1.4l1.3,0.9l1.9,0.5
	l1.2,0.9l0.4,1.3L691.1,136.2z"/>
<path class="st0" d="M470.8,94.8l-0.4,2.3l-0.4,2.3l-0.4,2.3l-0.4,2.3l-0.4,2.3l-0.4,2.3l-0.4,2.3l-0.4,2.3l-0.4,2.3l-0.4,2.3
	l-0.4,2.3l-0.4,2.3l-0.4,2.3l-0.4,2.3l-0.4,2.3l-0.4,2.3l-2.1-0.3l-2.1-0.3l-2.1-0.4l-2.1-0.4l-2.1-0.4l-2.1-0.4l-2.1-0.4l-2.1-0.4
	l-2.1-0.4l-2.1-0.4l-2.1-0.4l-2.1-0.4l-2.1-0.4l-2.1-0.4l-2.1-0.4l-2-0.4l-4.1-0.8l-4.1-0.8l-4.1-0.9l-4.1-0.9l-4.1-0.9l-4.1-0.9
	l-4-0.9l-4-0.9l0.8-3.3l0.8-3.3l0.8-3.3l0.8-3.3l0.8-3.3l0.8-3.3l0.8-3.3l0.8-3.6v-0.1l1.2-2.1l0.4-1v-0.7l0.3-0.6l0.5-0.5l0.1-0.6
	l-0.3-0.8l-0.7-0.6l-1.1-0.5l-0.4-0.9l0.3-1.4l1.4-1.9l2.4-2.4l1.4-1.8l0.4-1.1l1.7-2.4l2.9-3.8l1.4-2.5l-0.2-1.3l-0.7-1.4l-1.3-1.4
	l-0.8-1.5l-0.1-0.7l-0.2-0.9l0.1-1l0.4-0.5v-1.1l-0.3-1.6l-0.1-1l0.1-0.3l0.1-0.1l0.5-2.4l0.5-2.4l0.6-2.4l0.5-2.4l0.5-2.4l0.6-2.4
	l0.5-2.4l0.6-2.4l0.6-2.4l0.5-2.4l0.6-2.4l0.6-2.4l0.5-2.4l0.6-2.4l0.6-2.4l0.5-2.4l3.1,0.7l4.2,1l2.4,0.5l-0.8,3.7l-0.8,3.7
	l-0.8,3.7l-0.8,3.7l0.7,1.7l0.6,1.1l0.3,1.1l0.5,1.2l0.1,0.4v1.2l-0.4,0.8l0.2,0.9l-0.2,0.4l-0.4,0.1l-0.1,0.1v0.1l0.1,0.2l0.9,1
	l0.8,1.3l1.2,1l0.3,0.5l1.3,2.6l0.6,1.6l0.8,1.2l0.2,1.3l0.8,1.2l0.1,0.6l0.1,0.1h0.1l0.7-0.1l0.2,0.1l0.2,0.5l-0.1,0.6l0.2,0.3
	l0.4,0.2l0.4,0.1h1.5l0.3,0.1l0.1,0.2v0.3l-0.1,0.5L441,57l-0.6,0.7l-0.1,0.7l-0.7,1.6l-0.5,1l-0.2,1l-0.5,0.5l0.1,0.8l-0.4,1.1
	l0.1,0.3l0.4,0.6l-0.1,1.4l-0.1,0.2l-1,0.3l-0.4,0.3l-0.2,0.5l0.1,1.5l-0.5,0.7l-0.2,0.7l0.1,0.2l0.8,0.5l0.9,1l0.3,0.2h0.2l0.5-0.2
	l0.6-0.4l1.1-0.3L443,72l0.1-0.3l0.1-0.2h0.1l0.3,0.2l0.6,0.9l0.5,0.5l0.1,0.1v0.2l-0.2,0.7l0.2,0.6l-0.1,0.9l0.2,1v1.1l0.7,1.6
	l0.3,1.1l0.5,0.6l0.2,0.6l0.1,0.7v0.5l-0.5,0.9v0.4l0.2,0.5l0.8,1.2l0.2,0.1l0.9,0.1l0.5,0.3l0.4,0.6l0.4,0.8l0.2,0.8l-0.1,0.9
	l0.3,1.1l-0.1,0.9l0.2,0.4l0.5,0.6l0.5,0.4l0.2,0.1l0.2-0.1l0.1-0.5l0.3-0.3l0.8-0.4l0.7,0.1l2.6,0.9h0.2l0.1-0.1l0.6-0.7l0.4-0.2
	h0.6l1.6,0.5l1.9,0.2l1,0.4h1.5l1.6,0.5l0.2-0.1l0.1-0.1l-0.1-0.3l0.1-0.6l0.5-0.6l0.2-0.6l0.4-0.3l0.5-0.1l0.4,0.1l0.3,0.4l0.3,0.6
	l0.5,1.6l0.3,0.6l0.4,0.5L470.8,94.8z"/>
<path class="st0" d="M722.5,134.1l0.2,2.3l0.3,1.9l0.4,0.8l0.4,0.6l0.5,0.4l0.6,1.2l0.7,2.1l0.6,1.3l0.5,0.5l0.4,4l0.4,4.5l0.4,4.5
	l0.4,4.5l0.4,4.5l0.4,4.5l0.4,4.5l0.4,4.2v0.1l-0.5,0.5l-0.3,0.8l0.2,0.8l-0.1,0.6l-0.3,0.4l0.3,0.9l0.9,1.4l0.6,1.4l0.3,1.4v1
	l-0.5,1l-0.4,2.1l-0.4,0.9l-0.6,0.3l-0.5,0.8l-0.4,1.3l-0.5,0.6h-0.6l-0.4,0.3l-0.2,0.5l0.1,0.5l0.4,0.5l-0.1,0.5l-0.5,0.5v0.2
	l0.2,0.1v0.2l-0.3,0.2l-0.2,0.7l0.1,1.1l-0.1,0.6l-0.4,0.1v0.3l0.7,1.2l-0.3,0.3l-0.6,1.1v1.2l0.5,1.3l-0.9,1.1l-2.3,1l-1.2,0.8
	l-0.1,0.6l0.2,0.9l0.6,1.2l0.2,0.8l-0.3,0.5l-1.7-0.2l-3.2-0.9l-2.1,0.2l-1,1.3l-0.3,0.9l0.2,0.7l-0.9-0.8l-0.6-0.4h-0.1l-0.1,0.1
	v0.3v0.2l0.1,0.2v0.2h-0.1l-0.6-0.3l-0.8-0.9l-1-1.6l-0.3-1.3l0.4-1l-0.1-1l-0.6-1l-0.3-1l-0.1-1l-1.3-1.4l-2.5-1.9l-1.8-1.1
	l-1.1-0.4l-1.4-0.9l-1.6-1.5l-0.9-1.1l-0.1-0.8l0.5-2.3l1.6-4.9l0.2-0.6v-0.2l-0.1-0.2l-0.2-0.2l-0.9-0.5l-1.6-0.4l-1.5-0.2
	l-1.1,0.6l-1.1-1.1l-1-2.9l-2.3-2.9l-3.5-3l-2.1-2.1l-0.6-1.1l-0.6-1.7l-0.5-2.3l-0.1-1.9l0.5-2.3l0.6-0.3l0.1-0.8l-0.2-1.3l0.6-1
	l1.4-0.8l1.2-1.6l1-2.4l0.4-1.7l-0.2-1l-0.5-0.9l-0.8-0.9l-0.2-1.1l0.3-1.4l1.2-0.9l2.1-0.5l1.8-0.8l1.6-1.1l0.9-1.1l0.2-1.2
	l0.4-0.9l0.6-0.7l0.4-1.1l0.2-1.5v-1.1l-0.2-0.7l-0.8-0.8l-1.3-0.8l-0.8-0.8l-0.2-0.8l-0.7-0.8l-1.2-0.9l-0.7-1l5.1-0.3l5-0.3l5-0.3
	l5-0.3l5-0.4l5-0.4L722.5,134.1z"/>
<path class="st0" d="M757.2,142.4l0.6,4.8l0.6,4.8l0.6,4.8l0.6,4.8l0.6,4.8l0.6,4.8l0.6,4.8l0.6,4.9l-0.2,0.2l-0.2,0.7l0.4,0.6
	l0.1,0.5l-0.3,0.4l0.1,0.3l0.6,0.1l0.3,0.4v0.7l-1.1,0.9l-2.1,1.1l-0.5,0.3l-0.4,0.1h-0.2l0,0l-0.3-0.1l-0.5-0.3l-0.7-0.1l-1.1,0.2
	l-0.4,0.7l0.4,1.3l-0.3,1l-0.9,0.8l-0.6,1l-0.3,1.2l-0.6,0.8l-0.9,0.3l-0.7,1.1l-0.4,1.9l-0.5,1.2l-0.7,0.5h-1l-1.3-0.5l-0.8-0.6
	l-0.3-0.7l-0.4-0.5l-0.4-0.2h-0.2v0.1l0.1,0.2l-0.1,0.2l-0.7,0.2l-0.3,0.3l0.2,0.5l-0.1,0.4l-0.4,0.3l-0.2,0.5l0.1,0.8l-0.2,0.7
	l-0.5,0.7l-0.9-0.1l-1.3-0.9l-1.2-0.1l-1.1,0.7l-0.8,0.9l-0.5,1l-0.5,0.3l-0.9-0.7l-2-0.8l-1-0.1l-0.7,0.3l-0.5-0.1l-0.2-0.3
	l-0.1-0.1l-0.1,0.1l0.1,0.9l-0.1,0.6l-0.3,0.3l-0.3-0.2l-0.2-0.6l-0.4-0.2l-0.6,0.3h-0.7l-0.6-0.3l-0.2,0.1l-0.1,0.2l0.1,0.7
	l-0.1,0.6L728,204l-0.4,0.1L727,204l-0.2,0.2l-0.7-1.2v-0.3l0.4-0.1l0.1-0.6l-0.1-1.1l0.2-0.7l0.3-0.2v-0.2l-0.2-0.1v-0.2l0.5-0.5
	l0.1-0.5L727,198l-0.1-0.5l0.2-0.5l0.4-0.3h0.6l0.5-0.6l0.4-1.3l0.5-0.8l0.6-0.3l0.4-0.9l0.4-2.1l0.5-1v-1l-0.3-1.4l-0.6-1.4
	l-0.9-1.4l-0.3-0.9l0.3-0.4l0.1-0.6l-0.2-0.8l0.3-0.8l0.5-0.5v-0.1l-0.4-4.2l-0.4-4.5l-0.4-4.5l-0.4-4.5l-0.4-4.5l-0.4-4.5l-0.4-4.5
	l-0.4-4l0.1,0.1l0.5,0.3l0.4,0.2h0.2l0.2,0.3l0.7,0.1h1.2l1-0.2l0.9-0.4l2.2-1.6l2.8-0.3l3.4-0.4l3.4-0.4l3.4-0.4l3.4-0.4l3.4-0.4
	l3.4-0.4L757.2,142.4z"/>
<path class="st0" d="M648.4,220.2h-2.8h-2.8H640h-2.8h-2.8h-2.8h-2.8H626h-2.8h-2.8h-2.8h-2.8H612l-2.8-0.1l-2.8-0.1l-2.8-0.1
	l-2.8-0.1l-2.8-0.1l-2.8-0.1l-2.8-0.1l-2.8-0.1l-2.8-0.1l-2.8-0.1l-2.8-0.1l-2.8-0.1l-2.8-0.1l-2.8-0.1l-2.8-0.1l-2.8-0.2l-2.8-0.2
	l-2.8-0.2l-2.8-0.2l0.2-2.8l0.2-2.8l0.2-2.8l0.2-2.8l0.2-2.8l0.2-2.8l0.2-2.8l0.2-2.8l0.2-2.8l0.2-2.8l0.2-2.8l0.2-2.8l0.2-2.8
	l0.2-2.8l0.2-2.8l0.2-2.8l2.4,0.2l2.4,0.1l2.4,0.1l2.4,0.1l2.4,0.1l2.4,0.1l2.4,0.1l2.4,0.1l2.4,0.1l2.4,0.1l2.4,0.1l2.4,0.1
	l2.4,0.1l2.4,0.1l2.4,0.1l2.4,0.1l2.4,0.1l2.4,0.1l2.4,0.1l2.4,0.1h2.4h2.4h2.4h2.4h2.4h2.4h2.4h2.4h2.4h2.4h2.4h2.1l2.7,1.9h0.7
	l0.8-0.3l0.6,0.4l0.4,1.2l-0.1,0.6h-0.5l-0.7,0.7l-0.8,1.4l0.2,1.3l1.2,1.2l0.8,1.2l0.4,1.3l0.8,1l1.8,1v0.6v1.9v1.9v1.9v1.9v1.9
	v1.9v1.9v1.9v1.9v1.9v1.9v1.9v1.9v1.9v1.9L648.4,220.2z"/>
<path class="st0" d="M788.6,187.2l0.3,0.4l0.5,2.2v0.4l-0.3,1l0.1,0.5l0.5,0.7l1.5,1.5l0.2,0.6l0.6,0.6l0.6,0.9l1.6,1.9l2.3,1.4
	l1.7,0.2l-3.9,4.3l-1.8,1.6l-1.8,1.3l-0.1,0.2l-0.3,1.2l-1,1.2l-0.6,1.2l-1.6,1.2l-1.1,1.4l-3,1.7l-1.7,0.7l-1.1,0.9h-0.1H780h-0.1
	h-0.1h-0.1h-0.1h-0.1h-0.1l-4.2,0.4l-4.2,0.4l-4.2,0.4l-4.2,0.4l-4.2,0.3l-4.2,0.3l-4.2,0.3l-4.2,0.3l-4,0.5l-4,0.5l-4,0.5l-4,0.4
	l-0.4-0.4h-1.1h-1.6h-0.1l0.6,1.5l0.1,1.3l0,0l-1.9,0.2l-2.1,0.2l-2.1,0.2l-2.1,0.2l-2.1,0.2l-2.1,0.2l-2.1,0.2l-2.4,0.2l0.5-1.4
	l0.5-0.4l0.2-0.1l0.6,0.2l0.3,0.1l0.6-0.5l0.5-1.4l0.2-1.4v-1.5l-0.5-1.2l-0.2-0.7l0.3-0.9l1-1.3l2.1-0.2l3.2,0.9l1.7,0.2l0.3-0.5
	l-0.2-0.9l-0.6-1.2l-0.2-0.9l0.1-0.6l1.2-0.8l2.3-1l0.9-1.1l-0.5-1.3V206l0.6-1.1l0.3-0.3l0.2-0.2l0.6,0.1l0.4-0.1l0.3-0.4l0.1-0.6
	l-0.1-0.7l0.1-0.2l0.2-0.1l0.6,0.3h0.7l0.6-0.3l0.4,0.2l0.2,0.6l0.3,0.2l0.3-0.3l0.1-0.6l-0.1-0.9l0.1-0.1l0.1,0.1l0.2,0.3l0.5,0.1
	l0.7-0.3l1,0.1l2,0.8l0.9,0.7l0.5-0.3l0.5-1l0.8-0.9l1.1-0.7l1.2,0.1l1.3,0.9l0.9,0.1l0.5-0.7l0.2-0.7l-0.1-0.8l0.2-0.5l0.4-0.3
	l0.1-0.4l-0.2-0.5l0.3-0.3l0.7-0.2l0.1-0.2l-0.1-0.2v-0.1h0.2l0.4,0.2l0.4,0.5l0.3,0.7l0.8,0.6l1.3,0.5h1l0.7-0.5l0.5-1.2l0.4-1.9
	l0.7-1.1l0.9-0.3l0.6-0.8l0.3-1.2l0.6-1l0.9-0.8l0.3-1l-0.4-1.3l0.4-0.7l1.1-0.2l0.7,0.1l0.5,0.3l0.3,0.1l0,0h0.2l0.4-0.1l0.5-0.3
	l2.1-1.1l1.1-0.9v-0.7l-0.3-0.4l-0.6-0.1l-0.1-0.3l0.3-0.4l-0.1-0.5l-0.4-0.6l0.2-0.7l0.2-0.2l0.6-0.6l0.7-0.1l0.6,0.4h0.8l1-0.4
	l0.9,0.1l0.9,0.5l0.9,1l0.9,1.5l1.5,0.8l2,0.1l1.5,0.5l1,0.8l0.8,0.2l0.8-0.6l0.9-0.4l0.9,0.2l1.3,0.6l1.8-0.4l2.2-1.4l1.4-0.1
	l0.6,1.2l1.2,1.1l1.8,1.1L788.6,187.2z M710.4,225l-0.8,0.1v-0.2v-0.4l0.1-0.2h0.2h0.2l0.3,0.4V225z"/>
<path class="st0" d="M716.8,319.5l-0.9,0.5l-4.9-1.2l-1.3-1.2l-1.1-0.2l-1.3-0.1l-1.3,1.6l-0.9,2.1l1.7,1l1.5,0.5l2.3-0.6l1.2-1.1
	h1.1l0.5-0.2l0.4-0.6l0.9,0.3l0.1,0.4l-0.6,0.6l-0.8,0.5l-0.5,0.6l1,1.1l1.5,0.3l0.5-0.2l0.2-1.3l0.8-0.9l1.2,0.1L718,322l0.2,0.5
	l0.6,0.8v1.2l0.1,0.3l-1.3,0.6l-1,0.3l-0.7,0.8l0.4,0.4l-0.8,0.4l-0.6-0.1l-0.3,0.2l-0.1,0.4l-0.4,0.4l0.7,1.2l1.3,0.7l0.9,0.9
	l3.6,1l0.9-0.1l0.9,1.3l0.7,0.4l0.7,0.2v0.9l-1.1,0.8l-0.3,0.8l-0.3,0.5l-0.6-0.5l-0.6-0.4l-1.2,1.3l-0.6,0.3l0.2-1.4l-0.5-0.5
	l-0.8-1.3l-1.1-0.8l-0.8-0.2l-0.6-0.5l-0.7-0.2l-0.6,0.1l-1-0.2l0.8-0.5l-0.3-0.5l-0.8-0.6l-3.8-0.9v0.5l0.3,0.4l0.6,0.2l0.7,0.4
	l0.1,1.4l-0.2,0.6l-0.1,0.9l-0.2,0.9l-0.4,0.7l-1,0.5l-0.5-0.4l-0.8-1.8l-1.1-0.5h-1.6l-1.1,0.5l-1.1,1.9l-1,0.4l-3.4-0.8l-3.9-1.2
	l0.1-0.5l0.6-0.2l1.2,0.1l-0.1-0.5l-1.3-1.5l-0.3-0.7l0.1-0.9h-0.4l-0.7,0.8l-2.5-0.5l-0.7-0.7l-1.5-2.1h-2l-1-1.2l-1.6,0.6
	l-0.8,0.6l-0.7,1l0.3,0.5l0.8,0.7l-0.3,0.4l-2.3,0.6l-5.4-0.4l-1.6-0.5l-2.2-1.1l-3-0.9l-1.4-0.1l-1.4,0.2l-4,0.2l-0.9,0.3l-0.8,0.4
	l-0.5-0.5l-0.3-0.8l0.5-0.1l0.5-0.5l0.5-1v-0.6l-0.3-0.4l0.8-1.5l0.2-0.5l-0.2-2.6l-0.4-0.9v-0.5l0.4-1.4l-0.1-1.3l0.7-1.6l0.5-0.8
	l0.6-1.7l0.1-1.1l0.2-0.8l-0.2-0.9l0.4-0.6l-0.3-0.9l-0.1-1.1l-0.5-0.4l-0.9-1.7v-0.7l-1-1.6v-0.5l-0.9-0.8l-0.2-0.5l-0.1-2.2
	l-0.3-0.6l-0.8-1.2l-1.8-1.8v-1.9v-1.9v-1.9v-1.9v-1.9v-1.9v-1.9v-1.9l2.3-0.1l2.3-0.1l2.3-0.1l2.3-0.1l2.3-0.1l2.3-0.1l2.3-0.1
	l2.3-0.1l2.3-0.1l2.3-0.1l2.3-0.1l2.3-0.1l2.3-0.1l2.3-0.1l2.3-0.1l2.5-0.1l0.1,0.7l0.6,0.4l0.1,0.8l-0.5,1.2v0.8l0.6,0.4v0.5
	l-0.6,0.5l-0.1,0.5l0.5,0.6l0.2,0.7v0.8l0.6,1l0.9,0.6l0.6,0.7l0.1,0.4l0.1,0.4l-0.1,0.6l-0.7,0.9l-0.5,0.6l-0.3,0.2l-0.2,0.4v0.9
	l-0.8,1.2l-1.6,1.4l-1,1.7l-0.4,2l-0.5,1.3l-0.6,0.6l-0.2,1.1l0.1,1.6l-0.3,0.9l-0.8,0.2l-0.1,0.9l0.5,1.6l-0.2,0.7l-0.5,0.6v0.4
	l3.1-0.1l3.1-0.2l3.1-0.2l3.1-0.2l3.1-0.2l3.1-0.2l3.1-0.2l3.1-0.2l-0.3,1.8l-0.8,2.4v0.6l0.3,0.7v0.4l0.4,0.6l0.8,0.6l0.7,0.9
	l0.7,1.7l0.2,0.8l0.6,1.1l0.3,0.2l0.4,0.1L716.8,319.5z M720.8,320.8l0.1,0.7l-0.7-0.3h-1l0.4-0.3l0.3-0.3l0.1-0.3l1.1-1l-0.3,0.7
	L720.8,320.8z M726.3,324.6l-0.3,0.5l0.2-2.3l-0.7-1.9l0.6,0.8l0.3,1L726.3,324.6z M725.6,326.1l-0.7,0.8v-0.3l0.5-0.8l0.3-0.3
	L725.6,326.1z M687.5,331.7l-0.5,0.2l-2.2-1.2l-0.2-0.6l1.1-0.6h0.7l1.1,0.6l0.4,0.2l0.2,0.3L688,331L687.5,331.7z"/>
<path class="st0" d="M906,94.3v0.8l0.5,0.7l0.4,0.7l0.7,0.6h0.4l0.4-0.3l0.3-0.1L909,97v0.4l-0.5,0.2l-0.8,0.9l-0.8,0.5l-0.2,0.9
	l-0.4,1.1l-0.8,1.8l0.7,0.3h2.1l1,0.3l2.1,2.3l-0.2,0.4v0.5l1.4,0.4l0.9,1.8l1.1,0.4h1.5l1.6-1.1l1.2-1.2l-0.2-0.6l-1.4-1.3
	l-0.4-0.7l-0.8-0.3l-0.1,0.5l-0.6-0.4l-0.1-0.3l0.4-0.3l0.5-0.1l0.6,0.1l1.9,1.3l1,2.1l0.5,1.4v0.5h-0.4l-0.8,0.3l-3.5,1.8l-0.6,0.9
	l-1.7,1.2l-0.2-0.3l-0.1-0.8l-0.5-1.4H912l-2.3,3.2l-1.1,0.5l-0.8,1l-0.3-0.3l-0.7-1.7l0.2-1.7l-0.3,0.1l-0.4,0.7l-0.5-0.5l-0.5-0.2
	l-0.5-0.2l-0.1-0.5l-0.2-0.8H904l-0.3-1l-0.2-0.6l-0.8,0.2l-0.7,0.2l-1.1,0.3l-1.1,0.3l-0.8,0.2l-0.1-0.2l-1.3,0.3l-1.3,0.3
	l-1.3,0.3l-1.3,0.3l-1.3,0.3l-1.3,0.3l-1.3,0.3l-1.3,0.3v0.3l-0.5,0.2l-0.1-0.4l-0.9,0.2l-0.9,0.2l-0.9,0.2l-0.9,0.2l-0.9,0.2
	l-0.9,0.2l-0.9,0.2l-0.9,0.2l-0.4-0.3V112v-1.3v-1.3v-1.3v-1.3v-1.3v-1.3v-1.3l1.1-0.2l1.1-0.2l1.1-0.2l1.1-0.2l1.1-0.2l1.1-0.2
	l1.1-0.2l1.1-0.2l1.5-0.3l1.5-0.4l1.5-0.4l1.5-0.4l1.5-0.4l1.5-0.4l1.5-0.4l1.5-0.4l0.8-0.7l0.8-1.4l0.6-0.4l0.9-1l0.5-0.3L906,94.3
	z M915.4,115l-2.8,1.6l-0.6-0.3l0.7-0.4l0.6-1.3l0.6-0.3l1.2,0.3L915.4,115z M921.6,114.9l-0.8,0.5h-2.1l1.5-0.9l0.2-0.2v-0.7
	l-0.1-0.3l1,1.2L921.6,114.9z"/>
<path class="st0" d="M863.3,153.9l0.6,2.3l0.6,2.3l0.6,2.3l0.6,2.3l0.6,2.3l0.6,2.3l0.6,2.3l0.6,2.3l0,0l0,0l0,0l0,0l0,0l0,0l0,0
	l0,0l1.2-0.3l2.5-0.6l2.5-0.6l1.2-0.3l0.1,0.4v0.7l-0.2,0.3l-0.1-0.6l-0.2-0.2l-0.2,0.3l-0.1,0.4l0.2,1.3l-0.1,0.7l-0.7,0.4
	l-0.4,1.8l-0.5,1.1l-0.1,0.6l-1,0.4l-1.7,0.6l-0.3,0.8l-0.9-0.1l-1.3,0.3v-0.9l0.2-0.9l-0.9-0.6h-0.4l-0.5-0.2l0.3-0.8l0.1-0.7
	l-0.3-0.8l0.1-0.7l-0.3,0.2l-0.4,0.8l-0.3,0.3l-0.3-0.5l-0.2,0.2l-0.1,0.4l-0.3,0.3l-0.9-0.4l-1.2-0.4l-0.9-1l-0.5-0.8v-1.6l0.7-0.4
	h1l1.3-0.3l-0.3-0.3l-0.4,0.2l-1.6-0.9l-0.6-0.7h-0.8l-0.2,0.8l-0.3,0.3l0.1-1.7l0.6-0.2l0.8-0.6l-0.5-0.9l-0.7-0.3l-0.9,0.7
	l-0.1-0.6v-0.9l0.8-0.2l0.7,0.1l0.3-1.5l-0.1-0.6l-0.8,1.1l-0.6-1.8l0.5-2l0.7-1l1.1-0.2l1.1-0.4l-0.8-0.2h-0.8l0.4-0.8l0.4-0.2
	l0.3-0.7l-1.1,0.3l-0.1-1.2l-0.5,0.4l-0.6,0.3l-0.1,0.6l0.2,0.8l-0.1,0.6l-0.4,0.5l-0.8,0.5l-0.2-0.6l-0.3-0.2l0.2,1.3l-0.1,0.5
	l-0.9-1l-0.1,0.3l0.1,0.3v0.6l-0.5,0.4l0.2,0.7l-0.1,0.5l-1.8-0.3v0.2l1.3,1.2l0.8,0.3l0.3,0.7l-0.5,0.8l-1-0.4l-0.1,0.1l0.7,0.8
	l0.5,0.8l-0.1,0.7l0.2,0.8l0.1,0.8v0.7l1.1,3l0.7,0.7l0.7,0.7l0.4,0.7l-0.5,0.2l-1-0.4l-0.8-0.3l-1.2-1.3l-0.3-0.6l-0.3-0.4l0.3,1.1
	l0.6,1.1l3.3,2.1l0.7,0.9l0.6,0.7l0.1,0.8l-0.8-0.4l-0.8-0.6l-1.8-0.5l-2.1-0.1l-1.5-1.6l0.2,0.8l-0.1,0.7l-0.9-0.7l-0.6-0.6
	l-0.3-0.7l-0.9,0.2l-0.8,0.8h-0.9l-0.4-1.3l0.1-0.7l0.7-1.8l0.8-1l0.2-1.1l-0.5-1.6l0.4,1.2l0.8-1.4L852,168l-0.8-0.7l-0.7,1.2
	l-0.9-0.2l-1.5-1l-2.2-0.4l-0.4-0.4l-0.1-0.5l0.1-0.7l-0.8-0.5l-1.7-0.3l-0.8-0.4L842,164l-0.2-0.7l-0.3-0.4l-0.4-0.1l-0.1-0.3
	l0.1-0.4l-0.3-0.4l-0.7-0.3l-0.3-0.4l0.1-0.4l-0.3-0.1l-0.8,0.2l-0.9-0.2L837,160l-1,0.1l-1.5,1l-0.9,0.3l-0.3,0.5l-0.1,0.7
	l-0.3,0.4l-0.9,0.2h-0.1h-1.1l-0.8-0.3l-0.2-0.1v-0.4l-0.2-0.1h-0.2l-0.2,0.2l-0.1,0.7l-1.5,2.1l-0.9-0.2l-0.3,0.1l-2,2.9l-0.7,0.5
	l-1.3,1.4l-0.3-1.9l-0.3-1.9l-0.3-1.9l-0.3-1.9l2.6-0.5l2.6-0.5l2.6-0.5l2.6-0.5l2.6-0.5l2.6-0.5l2.6-0.5l2.6-0.5l2.6-0.5l2.6-0.5
	l2.6-0.6l2.6-0.6l2.6-0.6l2.6-0.6l2.6-0.6L863.3,153.9z M875.2,176.9l-0.3,0.1l0.2-0.6l0.5-2.7l0.3-0.9v1.8l-0.4,1.8L875.2,176.9z"
	/>
<path class="st0" d="M905.1,25.2l0.1,0.3l0.6,0.4l0.8,0.2h0.5l0.6-0.2l1.4-1.2l1.7-1l0.9-0.8l0.1-0.5l0.4-0.3L913,22l1.7,0.6l2.1,1
	l1.6,0.8l0.7,2.1l0.7,2.2l0.8,2.4l0.6,1.7l0.8,2.3l0.6,1.8l0.8,2.4l0.4,1.3l0.3,0.3l0.1,0.5v0.3l0.1,0.2l0.2,0.2l0.1,0.4l-0.1,0.4
	v0.4l0.2,0.6l0.3,0.3l0.4,0.1l0.2-0.1l0.4,0.1l0.5,0.3l0.7,0.1l0.7-0.1l0.4-0.2h0.6l0.4,0.5l0.1,0.5l-0.2,0.3l-0.3,0.3l0.1,0.4
	l0.3,0.3l0.3,0.3l0.5,0.5l0.1,0.6l-0.1,0.5v0.5l0.3,0.3l0.7,0.4l0.5,0.4l0.6,0.1l0.2-0.3l0.1-0.3l0.1-0.3h0.4h0.5h0.5l0.1,0.5
	l0.5,0.6l0.7,1.3l-0.1,0.8l0.3,0.8l1-0.1l0.3,0.2l0.1,0.3l-1.4,2.9l-1.9,0.3l-0.8,0.9l-0.9,0.5l-0.1,1.1l-0.5,0.4l-0.8,0.2l-0.7-0.1
	l-0.5,0.3l-0.1,2h-0.6V63l-0.2,0.4l-0.4,0.4l-0.6-0.7l-0.5-0.7h-0.4H926l-0.5,0.2l-0.3,0.2l-0.3,0.6l-0.5,0.6l-0.6-0.2l-0.5-0.4v1
	l-0.1,1.1l0.4,1.1v0.7h-0.5l-0.6-0.4l-1.3-0.1l-0.9,0.3v-0.7l0.6-1.1l-0.3-0.1l-0.4,0.3l-0.2-0.1l0.1-0.9l-0.2-0.9l-0.3,0.4
	l-0.2,1.1l-0.9,1.1l0.4,1.2l-0.3,2.9l0.3,1.1l-0.5,1.1l-0.7,1l-1.3,0.2l-0.7,0.9l-0.3,0.9l-0.4,0.2l-0.5-0.9l-0.2-0.2l0.1,1.5
	l-0.3,0.2l-0.4-0.9l-0.4-0.6l-0.3,0.7l0.1,1.6h-0.4l-0.3-0.5l-0.3-0.1l0.1,0.7l0.4,0.9v0.5l-0.4-0.2l-0.5-0.3l-0.5,0.5l-0.5,0.3
	l-0.1-0.4l-0.1-0.6l-0.9,0.6l-0.9,1.3l-0.6,1.6l0.4,0.1l0.5,0.3l-1,2.6l-1.1,2.4l-0.4,3.5l-0.4,0.5l-0.3,0.7l-1.2-1.1l-0.5-1l-1.3-1
	l-0.6-0.8l-0.4-1l-0.2-1.1l-0.5-1.6l-0.5-1.6l-0.5-1.6l-0.5-1.6l-0.5-1.6l-0.5-1.6l-0.5-1.6l-0.5-1.6l-0.5-1.6l-0.5-1.6l-0.5-1.6
	l-0.5-1.6l-0.5-1.6l-0.5-1.6l-0.5-1.6l-0.5-1.4l0.2-0.3l0.5-0.6l0.4-0.1l0.5,0.5l0.4,0.3l0.3-0.2L896,59l-0.2-0.8l0.2-0.7l0.4-0.2
	l0.4-0.1l0.1-0.3l-0.1-0.4l-0.3-0.6l-0.2-0.8l0.7-1.6l1.1-1.3l0.3-0.6l-0.1-1l0.5-1.2l0.2-0.7v-0.5l-0.4-0.5l-0.3-1.1l-0.1-1.4
	l-0.1-1.6l0.3-1.5l0.7-1.8l-0.3-2l-0.3-2.1l0.8-2.3l0.9-2.7l0.5-1.5l0.9-2.7l0.6-2l0.3-0.9l0.3-1.1h1h1l0.3,1.3L905.1,25.2z
	 M927.1,65.1l-0.5,0.5l-0.7,0.1l0.2,0.8v0.3l-0.8-0.2l-0.3-0.2l-0.3-1l0.3-1.1l0.4-0.5l0.7,0.1l0.8,0.9L927.1,65.1z M923.2,68.5
	l-0.3,0.4h-0.4l-0.2-0.7l0.1-0.3l0.1-0.2l0.3,0.1L923.2,68.5z"/>
<path class="st0" d="M703.6,53.7V54h0.4l-0.1,0.1l-0.4,0.3l-1.1,0.6l-0.8,0.2l-0.4-0.1l-0.1-0.3l0.3-0.5v-0.2h-0.3l0.1-0.2l0.4-0.4
	l3.8-2.6l1.6-1l0.9-0.3l0.2,0.1l-0.9,0.9L707,51l0.1,0.2l-0.3,0.5l-2.8,1.8L703.6,53.7z M711.9,63.9l-0.1,0.5l0.1,0.3l-1.1,1.4
	l-0.4,0.9l-0.4,0.2l-0.3-0.5v-0.4l0.3-0.4l0.3-0.5v-0.7l-0.1-0.2l-0.3,0.6l0.2,0.1l0.1,0.1l-0.1,0.2l-1.5-0.2l-0.5-0.4v-0.7l0.4-0.9
	l1.6-1.9l0.7-0.6l2.1-1l1.2-0.3l1.2-0.1l0.9,0.2l0.6,0.5l-0.5,0.4L714,61l-0.1,0.1l0.5,0.2l0.1,0.2l-0.4,0.6L711.9,63.9z
	 M752.9,70.2l0.3,0.2l0.3,0.3l0.7,0.9l0.3,0.6l0.3,0.9l0.2,0.3l0.1,0.5l-0.3,0.4l-0.1,0.3l0.3,0.3l1.2-0.1l0.6,0.2l0.3,0.3l-0.1,0.4
	V76l0.4,0.4l1.1,0.5l0.3,0.3v0.3l-0.3,0.2l-0.5,0.2l-3.8-0.1h-1.1L753,78h-0.1h-0.2h-0.3H752l-0.2-0.4l-0.4-0.2h-0.5l-0.4,0.3
	l-0.4,1.2l0.1,0.2v0.7l0.2,0.2v0.2l-0.1,0.2H750l-0.5-0.1l-2-1.5l-1.4-0.7l-1.7-0.4l-1.4-0.2l-1,0.1l-0.7,0.5l-0.5,0.9l-0.9,0.6
	l-1.3,0.3l-0.7,0.3l-0.1,0.4l-0.5,0.1l-0.9-0.2h-0.9l-0.9,0.2l-0.6,0.4l-0.6,1.1l-0.1,0.5l-0.5,0.5l-1.3,0.9v0.3l-0.6,0.9l-0.2,0.5
	v0.4h-0.2l-0.5-0.4l-0.1-0.7l0.4-0.9l0.3-0.4h0.3l0.2-0.4v-0.8l-0.2-0.4l-0.7,0.2l-0.3,0.3l-0.4,0.1l-0.6-0.1l-0.4,0.5l-0.3,1
	l-0.4,0.7l-0.5,0.4l-0.4-0.3l-0.3-1l-0.1-0.8l0.1-1l-0.1-0.2l-0.2,0.3l-0.3,0.8l-0.3,1.8l-0.3,0.6l-0.4,0.3l-0.6,1.1l-0.7,1.9
	l-0.8,1.9l-1,1.8l-0.6,1l-0.2,0.2L721,94v0.7l-0.5-0.2l-0.5-0.6l-0.3-0.6l-0.1-0.6l0.5-1.6v-0.3l-0.1-0.1l-0.4-0.1l-0.7,0.3
	l-0.8,0.1l-0.3-0.1L718,91v-0.4l0.1-0.5l0.4-0.9l-0.1-0.9l0.2-0.5l-0.3-0.9v-0.4l-0.4-0.5l-0.9-0.6l-2.1-0.7l0.1-1l-0.1-0.4
	l-0.6-0.6l-2.2-0.5l-1.5-0.2l-1.4,0.1l-1-0.2H707l-0.8-0.4l-0.8-0.4l-0.8-0.4l-0.8-0.4l-1.3-0.3l-1.3-0.3l-1.3-0.3l-1.3-0.3
	l-1.3-0.3L696,79l-1.3-0.3l-1.3-0.3l-0.3-0.6l-0.3-0.6l-0.3-0.6L692,76l-0.6-0.2l-0.3-0.1l-0.3-0.3l-0.5,0.2L690,75v-0.1l0.7-0.2
	l1.9-0.9l1.6-1.1l1.3-1.2l1.7-0.8l2-0.4l1.4-0.5l0.8-0.6l1.1-1.1l0.6-0.4l0.8-0.2l0.6-0.5l0.4-0.8l0.7-0.9l1.1-1l0.6-0.4l0.2,0.2
	l0.1,0.3v0.5l0.3,0.4l0.7,0.2l0.3,0.4v0.5l0.2,0.4l0.4,0.3l0.2,0.7l-0.1,1.2v0.7l0.2,0.3l0.2,0.2l0.2-0.2l0.2-0.4l0.1-0.3V69
	l1.6-1.3l0.3-0.1l0.6,0.2l2.6,0.2l1.1,0.2l1.1,0.6l0.4,0.2l1.5,2l0.7,0.8l0.4,0.2l0.2,0.3l0.2,0.7l0.2,0.2h2l0.9-0.2l0.5-0.4
	l0.6,0.1l0.7,0.6l0.7,0.1l0.6-0.4h0.6l0.6,0.3l0.3,0.2h0.2l1-1.2l1.2-1.1L733,70l1-0.6l0.3,0.1l1.6-0.5l1.5-0.2h2l1.8-0.5l1.6-0.9
	l1.4-0.6l1.3-0.2l0.5,0.1l-0.3,0.5l-0.1,0.8l0.1,1.1v0.7l-0.2,0.3v0.3l0.2,0.3h1.3l0.7,0.3l0.8-0.1l0.8-0.4h0.7l0.5,0.5h0.7l0.6-0.5
	l0.4-0.5l0.4-0.2L752.9,70.2z M755.5,72v0.3h-0.3l-0.3-0.2l-0.3-0.3l-0.4-0.9l-0.5-0.6l0.5-0.8l0.3-0.1l0.4,0.1l0.1,0.4l-0.2,0.7
	l0.1,0.7L755.5,72z M755.8,73.8L755.8,73.8l-0.7-0.4l-0.2-0.3v-0.3h0.2l0.4,0.2l0.2,0.3l0.1,0.4L755.8,73.8z M762.7,76.4l0.1,0.3
	l-0.2,0.5l-0.7,0.3l-1.5,0.2l-1-0.1l-0.5-0.3l-0.1-0.2v-0.4l0.2-0.1l0.3,0.2l0.5-0.2l0.6-0.5l0.3-0.3v-0.2l-0.2-0.3l0.1-0.2h0.8
	l0.3,0.2l0.6,0.8L762.7,76.4z M752.1,80.7h1.4l0.1-0.1L754,81l0.1,0.3l-0.1,0.3l-0.2,0.2l-0.3,0.1l-0.5-0.2l-0.9-0.7V80.7z
	 M750,81.4l0.8,0.2l1.5,0.8l1.3,0.4h1.2l0.9,0.2l0.6,0.4l0.5,0.5l0.3,0.6l0.6,0.3h0.9l0.7,0.2l0.6,0.4l3,0.8l1.3,0.4l0.7,0.5
	l0.2,0.4v0.4l0.1,0.4l0.6,0.7h0.2l0.2,0.4l0.1,0.7l0.2,0.4l0.3,0.2l-0.1,0.1l-0.9-0.3l-0.5,0.2l-0.2,0.5v0.5l0.2,0.4l1.3,1.2
	l0.5,1.2l0.3,1.5l-0.1,0.6l0.1,1.3l0.2,2l0.1,0.7l-0.3,0.7l-0.9,1.1v-0.2h-0.3l-0.2,0.2l-0.3,0.9l-0.1,1.6l-0.3,0.9l-0.4,0.2
	l-0.2,0.3l-0.1,0.3l-0.5,0.3l-0.9,0.2l-0.6,0.5l-0.3,1.4l0.1,0.6l-0.1,0.8l0.1,0.7l0.3,0.5l0.8,0.5l1.3,0.4h0.7l0.5-0.3l0.4-1
	l0.5-0.4l0.6-0.2l0.2-0.4l0.8-1.9l-0.1-0.4l-0.4-0.1v-0.1l0.5-0.1l0.4-0.3l0.3-0.5l0.6-0.4l1.4-0.7l0.7-0.7l0.5-0.2l0.8,0.2l1.1,0.5
	l0.9,0.8l0.8,1.2l1.2,3.2l1.7,5.1l1,2.9l0.4,0.6l0.2,0.3l-0.2,4.2l-0.4,1.8l-0.9,1.1l-0.9,1.1l-1.1,1.8l-1.4,1l-0.7,0.6l-0.1,0.3
	l-0.2-0.1l-0.3,0.9l-0.2,1.3v1l0.2,0.5l-0.3,0.4l-0.5,0.7l-0.1,0.2l0.1,0.4l-0.1,0.2h-0.3l-0.2,0.2l-0.4,0.7l-0.6,1.8l-0.1,0.3
	l-0.1,0.1l-3.7,0.6l-3.7,0.6l-3.7,0.6l-3.7,0.6l-0.1-0.9l-3.4,0.4l-3.4,0.4l-3.4,0.4l-3.4,0.4l-3.4,0.4l-3.4,0.4l-2.8,0.3l0.7-0.5
	l1.1-1.1l0.6-0.9l0.5-1.2l0.5-1.5l1-2.2l0.5-1.3l0.4-1.7l0.3-1.7l0.1-1.8l-0.1-1.8l-0.2-1.9l-0.5-1.9l-0.8-1.9l-0.4-1l-0.1-0.2
	l-1.3-2.4l-1.5-3.3v-0.3l0.9-2.2V113l-0.3-1.6l-0.3-0.8l-0.7-1.1v-0.3l1-1.5l0.6-1.2l0.5-1.4l0.2-1.6v-1.8l-0.1-1.2l-0.3-0.6v-0.5
	l0.2-0.3l1.1-0.5l0.3-0.7v-1.2l0.2-0.6h0.4l0.3-0.3l0.3-0.6l0.4-0.2l0.6,0.2l0.7-0.8l0.8-1.8l0.7-1.1l0.5-0.3l0.1,0.1l-0.3,0.6v0.6
	l0.2,0.6v0.6l-0.2,0.8l0.2,0.2l-0.3,1.4l0.1,0.7l0.3,0.5L743,97l0.3-0.9l0.1-0.5h-0.2v-0.4l0.2-0.7l0.2-0.3h0.2l0.1,0.4v0.7
	l-0.4,1.7l-0.1,0.5l0.1,0.1l0.6-1.1l0.4-1.7l0.3-1.3v-0.7l-0.3-1.7l-0.1-0.7l0.1-0.5l0.5-0.6l0.9-0.7l1-0.5l1-0.2l0.7-0.3l0.4-0.3
	l-0.2-0.2l-0.7-0.1l-0.6-0.3l-0.4-0.6l-0.2-0.7v-0.8l0.3-0.8l0.6-0.8l0.2-0.6l-0.3-0.3l0.3-0.2h0.9l0.6-0.2l0.3-0.3H750z
	 M742.1,85.2l-0.3,0.1l-0.3-0.1v-0.7l0.2-1.3l0.3-0.6l0.5,0.2l-0.1,0.2l0.2,1.3l-0.1,0.6L742.1,85.2z M738.5,93.2l-0.1,0.2h-0.3
	l-0.3-0.2l-0.3-0.6l0.1-0.2h0.6l0.2,0.3L738.5,93.2z"/>
<path class="st0" d="M658.3,45.6l1.2-0.2h1h1l0.6,0.1l1.6,0.6l1.1,0.5l1.5,1l0.9,0.4l0.4,1l0.5,1.3h0.7l0.5-0.8l1.3-0.2l1.7,0.5
	l1.6,1.5l2.2,1.3l1.3,0.6l1.3-0.1l1.7-0.8l1.7-1.4l1.3-0.3l0.8,0.1l0.5,1l0.6,0.4l1.4-0.2h2.9l2.3-0.4l0.6,0.6L693,53l1,0.2l1.3-0.4
	l2,0.1l-0.3,0.2h-0.3l-0.4,0.3l-0.5,0.5l-1.1,0.8l-1.7,1l-2,1l-4,1.7l-2.5,1.7l-1.1,1l-4.2,4.9l-2.5,2.6l-4.2,3.7l-0.4,0.5v0.4h-0.2
	l-0.7,0.9l-0.3,0.6l-0.7,0.2l0.1,2.2l0.1,2.2l0.1,2.2l0.1,2.2l-0.3,0.2l-0.4,0.5l-0.6,0.1l-2.8,1.9l-0.4,0.5l-0.5,1.2l-0.9,1.4
	l-0.2,0.7l0.1,1l1.5,0.7l0.6,0.7l0.3,0.9v0.8l-0.7,1.6l-0.1,0.6l0.1,1.9L666,99l0.3,1.5v0.5l-0.2,1.7l-0.1,0.5l0.3,0.9v0.1l1.4,1.2
	l1.2,0.6l1,0.2l0.8,0.5l0.6,0.8l0.8,0.5l1,0.2l1,0.6l1.6,1.6l0.8,1.4l1.4,1l2.2,1l1.5,0.9l0.7,0.8l0.6,2.1l0.6,4.4l-3.6,0.2
	l-3.5,0.2l-3.6,0.2l-3.6,0.1l-3.6,0.1l-3.6,0.1l-3.6,0.1l-3.6,0.1l-3.6,0.1l-3.6,0.1l-3.6,0.1h-3.6h-3.6h-3.6h-3.6H626V120v-3.4
	v-3.4v-3.4v-3.4V103v-3.4v-3.4l-0.8-1.1l-1.8-0.9l-0.4-0.5l-0.8-1.4l-0.3-0.6l-0.1-0.5l0.4-0.5l1.6-1.4l0.5-0.7l0.3-0.7l0.4-1.5
	l-0.1-1.2l0.1-1.8l-0.3-1.4l-0.1-0.7l-0.2-0.8l-1.2-2.2l-0.3-1.8l-0.3-0.9l-0.1-2.2v-0.6l0.2-1.2l-0.5-0.8l-0.1-0.7l-0.2-5.4
	l-0.1-0.8l0.1-2.5l-0.9-2.6l-0.4-0.9l-0.2-1.1v-0.5l-0.7-1.8l-0.5-2l0.1-1.7l-0.1-1.3l0.1-1l-0.1-1.5l0.2-0.9v-1.3l-0.9-4.8h1.2h4.3
	h4.3h4.3h4.3h2.4v-3.2v-2.5l2.2,0.3l0.6,0.5l0.2,0.2l-0.1,0.7l0.2,2.1l0.4,1.8l0.9,2.1l0,0l0.1,0.8l0.3,0.5l0.6,0.5l2.1,0.6l3.6,0.6
	l2.1,0.7l0.5,0.9l1,0.3l1.4-0.2l1-0.4L658.3,45.6z M658.3,45.6L658.3,45.6L658.3,45.6L658.3,45.6z"/>
<path class="st0" d="M684,168.6l-0.5,2.3l0.1,1.9l0.5,2.3l0.6,1.7l0.6,1.1l2.1,2.1l3.5,3l2.3,2.9l1,2.9l1.1,1.1l1.1-0.6l1.5,0.2
	l1.6,0.4l0.9,0.5l0.2,0.2l0.1,0.2v0.2l-0.2,0.6l-1.6,4.9l-0.5,2.3l0.1,0.8l0.9,1.1l1.6,1.5l1.4,0.9l1.1,0.4l1.8,1.1l2.5,1.9l1.3,1.4
	l0.1,1l0.3,1l0.6,1l0.1,1l-0.4,1l0.3,1.3l1,1.6l0.8,0.9l0.6,0.3h0.1v-0.2l-0.1-0.2v-0.2v-0.3l0.1-0.1h0.1l0.6,0.4l0.9,0.8l0.5,1.2
	v1.5l-0.2,1.4l-0.5,1.4l-0.6,0.5l-0.3-0.1l-0.6-0.2l-0.2,0.1l-0.5,0.4l-0.5,1.4l0,0l-0.2,0.1l-0.2-0.1v-0.1l-0.1-0.4l-0.3-0.4h-0.2
	h-0.2l-0.1,0.2v0.4v0.2l0.3,1.1l-0.1,0.8l-0.6,0.4l-0.1,0.5l0.4,0.5v0.2l-0.1,0.2l-0.4,0.1l-0.3,0.1l-0.2,0.4l0.5,0.8v0.9l-0.6,1.2
	l-0.1,0.4l-2.2,0.2l-2,0.2l-2,0.2l-2,0.2l0.8-1.6l0.6-0.6l0.4-0.6l0.8-0.6l0.8-1.3l0.1-0.6l-0.1-0.6l-0.6-0.7l-0.6-1.1l-3.4,0.2
	l-3.4,0.2l-3.4,0.2l-3.4,0.2l-3.4,0.2l-3.4,0.2l-3.4,0.1l-3.4,0.1l-3.4,0.1l-3.4,0.1l-3.4,0.1l-3.4,0.1l-3.4,0.1l-3.4,0.1l-3.4,0.1
	l-3.4,0.1v-1.9v-1.9v-1.9V220v-1.9v-1.9v-1.9v-1.9v-1.9v-1.9v-1.9v-1.9v-1.9V201v-1.9v-1.9v-1.9v-1.9v-1.9v-1.9V189l-1.8-1l-0.8-1
	l-0.4-1.3l-0.8-1.2l-1.2-1.2l-0.2-1.3l0.8-1.4l0.7-0.7h0.5l0.1-0.6l-0.4-1.2l-0.6-0.4l-0.8,0.3h-0.7l-2.7-1.9l-0.2-0.1l-0.8-1.3
	l-0.3-1.5l-0.7-1l-1-0.5l-0.6-1l-0.3-1.6l-0.6-1.6l-0.3-0.5h2.8h2.9h2.9l2.9-0.1l2.9-0.1l2.9-0.1l2.9-0.1l2.9-0.1l2.9-0.1l2.9-0.1
	l2.9-0.1l2.9-0.1l2.9-0.1l2.9-0.1l2.9-0.1l2.9-0.1l0.6,1.1l0.6,0.3l0.1,0.3l0.8,0.5l0.2,0.5L684,168.6z"/>
<path class="st0" d="M728.2,246.2l1.2,0.9v0.4v0.2v0.7l-0.1,2.8l-0.1,2.8l-0.1,2.8l-0.1,2.8l-0.1,2.8l-0.1,2.8l-0.1,2.8l-0.1,2.8
	l-0.1,2.8l-0.1,2.8l-0.1,2.8l-0.1,2.8l-0.1,2.8l-0.1,2.8l-0.1,2.8l-0.1,2.8l0.4,2.8l0.4,2.8l0.4,2.8l0.4,2.8l0.4,2.8l0.4,2.8
	l0.4,2.8l0.4,3.1l-3.8,0.5l-1.7-0.6l-0.7-0.1l-0.4,0.1l-1.9,0.9l-2.2,0.7L720,317h-0.7l-1.5,2l-1,0.5l-0.3-0.1l-0.4-0.1l-0.3-0.2
	l-0.6-1.1l-0.2-0.8l-0.7-1.7l-0.7-0.9l-0.8-0.6l-0.4-0.6V313l-0.3-0.7v-0.6l0.8-2.4l0.3-1.8l-3.1,0.2l-3.1,0.2l-3.1,0.2l-3.1,0.2
	l-3.1,0.2l-3.1,0.2l-3.1,0.2l-3.1,0.1v-0.4l0.5-0.6l0.2-0.7l-0.5-1.6l0.1-0.9l0.8-0.2l0.3-0.9l-0.1-1.6l0.2-1.1l0.6-0.6l0.5-1.3
	l0.4-2l1-1.7l1.6-1.4l0.8-1.2V292l0.2-0.4l0.3-0.2l0.5-0.6l0.7-0.9l0.1-0.6l-0.1-0.4l-0.1-0.4l-0.6-0.7l-0.9-0.6l-0.6-1v-0.8
	l-0.2-0.7l-0.5-0.6l0.1-0.5l0.6-0.5v-0.5l-0.6-0.4v-0.8l0.5-1.2l-0.1-0.8l-0.6-0.4l-0.1-0.7l-0.1-0.4l0.4-2.7l-0.1-0.3l-0.6-0.8
	l-0.1-1l0.3-1.2L693,271l-0.5-0.3l-0.1-0.4l-0.2-0.5l0.5-0.5v-0.5l-0.5-0.4l0.3-0.6l1-0.8l0.3-0.5l0.3-0.5l0.1-1.1l-0.2-0.6
	l-0.3-0.4l0.1-0.2l0.2-0.2l1.2-0.5l0.3-0.3l0.1-0.3l-0.4-0.8l0.3-0.9l1.1-1l0.6-0.9v-0.7l0.5-0.6l1-0.4l0.6-1.4l0.1-2.4l0.2-1
	l0.5-0.2l0.3-0.3v-0.7l0.6-0.7l1.1-0.8l0.4-0.7l-0.2-0.4V248l3.1-0.2l3.3-0.2l3.3-0.2l3.3-0.2l3.3-0.2l3.3-0.3l3.3-0.3L728.2,246.2z
	 M729.3,318.2l-0.1,0.2l-1.2-0.2l-0.7-0.2l-0.1-0.3l2,0.4L729.3,318.2z"/>
<path class="st0" d="M547.8,82.7l-0.3,3.5l-0.3,3.5l-0.3,3.5l-0.3,3.5l0,0l0,0l0,0l0,0h-0.1h-0.1h-0.1h-0.1l-2.3-0.2l-2.3-0.2
	l-2.3-0.2l-2.3-0.2l-2.3-0.2l-2.3-0.2l-2.3-0.2l-2.3-0.2l-2.3-0.3l-2.3-0.3l-2.3-0.3l-2.3-0.3l-2.3-0.3l-2.3-0.3l-2.3-0.3l-2.3-0.3
	l-2.3-0.3l-2.3-0.3l-2.3-0.3l-2.3-0.3l-2.3-0.3l-2.3-0.3l-2.3-0.3l-2.3-0.3l-2.3-0.3l-2.3-0.3l-2.3-0.3l-2.3-0.4l-2.3-0.4l-2.3-0.4
	l-2.3-0.4l-2.3-0.4l-0.3,1.9l-0.3,1.9l-0.3,1.9l-0.3,1.9l-0.6-0.5l-0.4-0.5l-0.3-0.6l-0.5-1.6l-0.3-0.6l-0.3-0.4l-0.4-0.1l-0.5,0.1
	l-0.4,0.3l-0.2,0.6l-0.5,0.6l-0.1,0.6l0.1,0.3l-0.1,0.1l-0.2,0.1l-1.6-0.5h-1.5l-1-0.4l-1.9-0.2l-1.6-0.5h-0.6l-0.4,0.2l-0.6,0.7
	l-0.1,0.1h-0.2l-2.6-0.9l-0.7-0.1l-0.8,0.4l-0.3,0.3l-0.1,0.5l-0.2,0.1l-0.2-0.1l-0.5-0.4l-0.5-0.6l-0.2-0.4l0.1-0.9l-0.3-1.1
	l0.1-0.9l-0.2-0.8l-0.4-0.8l-0.4-0.6l-0.5-0.3l-0.9-0.1l-0.2-0.1l-0.8-1.2l-0.2-0.5v-0.4l0.5-0.9v-0.5l-0.1-0.7l-0.2-0.6l-0.5-0.6
	l-0.3-1.1l-0.7-1.6v-1.1l-0.2-1l0.1-0.9l-0.2-0.6l0.2-0.7v-0.2l-0.1-0.1l-0.5-0.5l-0.6-0.9l-0.3-0.2h-0.1l-0.1,0.2L443,72l-1.4,0.9
	l-1.1,0.3l-0.6,0.4l-0.5,0.2h-0.2l-0.3-0.2l-0.9-1l-0.8-0.5l-0.1-0.2l0.2-0.7l0.5-0.7l-0.1-1.5l0.2-0.5l0.4-0.3l1-0.3l0.1-0.2
	l0.1-1.4l-0.4-0.6l-0.1-0.3l0.4-1.1l-0.1-0.8L440,63l0.2-1l0.5-1l0.7-1.6l0.1-0.7l0.6-0.7l0.3-0.7l0.1-0.5v-0.3l-0.1-0.2l-0.3-0.1
	h-1.5l-0.4-0.1l-0.4-0.2l-0.2-0.3l0.1-0.6l-0.2-0.5l-0.2-0.1l-0.7,0.1h-0.1l-0.1-0.1l-0.1-0.6l-0.8-1.2l-0.2-1.3l-0.8-1.2l-0.6-1.6
	l-1.3-2.6l-0.3-0.5l-1.2-1l-0.8-1.3l-0.9-1l-0.1-0.2v-0.1l0.1-0.1l0.4-0.1l0.2-0.4l-0.2-0.9l0.4-0.8v-1.2l-0.1-0.4l-0.5-1.2
	l-0.3-1.1l-0.6-1.1l-0.7-1.7l0.8-3.7l0.8-3.7l0.8-3.7l0.8-3.7l1.8,0.4l4.2,0.9l4.2,0.9l4.2,0.9l4.2,0.9l0.9,0.2l3.2,0.6l4.2,0.8
	l4.2,0.8l4.2,0.8l4.2,0.8l4.2,0.7l4.2,0.7l4.2,0.7l4.2,0.7l3.2,0.5l1,0.2l4.2,0.6l4.2,0.6l4.2,0.6l4.2,0.6l4.2,0.6l4.2,0.5l4.2,0.5
	l4.2,0.5l4.2,0.5l4.2,0.5l4.2,0.4l4.2,0.4l4.2,0.4l3.2,0.3l-0.2,2.9l-0.2,2.9l-0.2,2.9l-0.2,2.9l-0.2,2.9l-0.2,2.9l-0.2,2.9
	l-0.2,2.9l-0.2,2.9l-0.2,2.9l-0.2,2.9l-0.2,2.9l-0.2,2.9l-0.2,2.9l-0.2,2.9L547.8,82.7z"/>
<path class="st0" d="M871.6,200.6l-0.1,1.2l0.3,0.6l0.8,0.5l1.1,1.5l1.1,2.1l-0.9-0.7l-0.9-0.3l-1.3-0.1l-1.2-0.4l0.3,0.9l0.1,1
	l-0.9-0.1l-0.7-0.2l0.7,1l-1.2-0.1l-0.7,0.2l-0.3,1.1l-0.5,0.7l-0.9,0.4l-1.6-0.6l-0.7-1l-0.4-1.1l0.2,1.4l0.6,1.4l0.1,1.1l1.4-0.1
	l1.2-0.5l1.7-0.3l1.1-0.5l0.6-0.5l1.7-0.1l0.4,1.3l0.1,1.4l0.2,1.4l0.5-0.1l0.4-0.6l-0.3-2.6l1.3-1.3h0.5l0.7,0.7l0.3,0.8l0.4,1.1
	v1.8l-1.8,2.5l-1.2,2.2l-0.8,0.6l-1.3,0.1l-1.5-0.2l-0.7,0.1l-0.5,0.3l-0.4-0.5l-0.4-1l-0.6-0.2l-0.4,0.1v1.2L866,219l-1.8-0.1
	l-2-0.6l1,0.8l4.9,0.9l0.6,0.2l0.6,0.4l-0.5,0.9l-0.3,1l0.1,0.7l-0.1,0.5l-1.6,1.6h-1l-3-1.7l1.5,1.7l1.1,0.6h1.9l3.3-1.5l1.3,0.5
	l-0.6,1.6l-0.7,1.2l-1.2,0.4l-1,0.5l-0.2,0.7l-0.8,0.2l-1.2,0.3l-1.8,0.5l-1.1,0.1l-1.1,1.7l-0.5,0.3l-0.8-0.1l-0.5-1l-0.5-0.5
	l0.4,2l0.2,0.5l0.4,0.4l-1.4,1.5l-1.3,1.7l-0.5,0.5l-0.5,0.8l-0.9,2.3v1.5l-0.2,1.7L856,243l-0.2-1.2l-0.6-1.3l0.3,2.6l-0.3,1.3
	l-4.8,0.9l-1.8,1l-2.1-1.4l-2-1.4l-2-1.4l-2-1.4l-2-1.4l-2-1.4l-2-1.4l-1.9-1.4l-1.7,0.2l-1.7,0.2l-1.7,0.2l-1.7,0.2l-1.7,0.2
	l-1.7,0.2l-1.7,0.2l-1.7,0.2l-0.3-1.1l-0.2-0.8l-1.3-1.2l-0.8-0.7l-1.2,0.9l-0.1-0.3l-0.1-0.6l-0.2-0.2l-0.4-0.1l-1.9,0.2l-1.9,0.2
	l-1.9,0.2l-1.9,0.2l-1.9,0.2l-1.9,0.2l-1.9,0.2l-1.9,0.2l-0.5-0.1l-0.8,0.6l-2.2,1.1l-1,0.8h-0.4l-1.8,0.9l-1.9,0.9h-0.2l-3.7,0.6
	l-3.7,0.6l-3.7,0.5l-3.7,0.5l0.1-3.2l0.2-0.8l0.3-0.2l1.3-0.2l0.8-0.5l0.5-2l1.4-1.7l0.7-0.5l1-0.4l2.5-0.7l2.5-1.8l1.8-1.7l1.5-0.6
	l0.4-0.6l0.3-0.7l0.1-0.9l0.1-0.2l0.9-0.1l0.6-0.9l0.6-0.5l0.6-0.3l0.4-0.1l0.2,0.2l0.2,0.6l0.2,0.2h0.3l0.4-0.2l0.5-0.5l1.1-1.5
	l0.8-0.6l1.3-0.5l1.1,0.5l0.6-0.3l1.3-3l0.6-0.6l0.5-0.3l0.9-0.2l-0.1-0.7l0.1-1.2l-0.1-0.8l0.4-1.2l0.2,0.2l4.3-0.7l4.3-0.7
	l4.3-0.7l4.3-0.7l4.3-0.7l4.3-0.7l4.3-0.8l4.3-0.8l4.3-0.8l4.3-0.8l4.3-0.8l4.3-0.8l4.3-0.9l4.3-0.9l4.3-0.9L871.6,200.6z
	 M872.5,200.4l0.4-0.1l2.2,4.4l3.5,4.6l0.5,0.8l-0.7-0.6l-2.5-3l-1.5-2.2L872.5,200.4z M877.8,209.8l-0.1,0.3l-1.2-1.4l0.9,0.3
	l0.2,0.4L877.8,209.8z M880.9,218.6l-1.5,0.8l-0.2-0.1l1.6-1.3l-0.1-3.1l-0.2-1.4l-0.8-2.3l-0.1-0.5l0.5,0.7l0.8,2.2l0.3,1.7v2.6
	L880.9,218.6z M878.2,219.9l-1.9,1.5H876l1.3-1.1L878.2,219.9z M871.3,229.9l-0.3,0.2l0.7-2.1l1.7-2.8l0.5-0.5l-1.4,2.4L871.3,229.9
	z M870.8,229.8l-0.3,0.1l-0.5-0.1l-0.7-0.2l-0.2-0.2l0.6-0.1L870.8,229.8z"/>
<path class="st0" d="M626,86.4h-2.4h-2.4h-2.4h-2.5h-2.4l-2.4-0.1l-2.4-0.1l-2.5-0.1L604,86l-2.4-0.1l-2.4-0.1l-2.4-0.1l-2.4-0.1
	l-2.4-0.1l-2.4-0.1l-2.4-0.1l-2.4-0.1l-2.4-0.1L580,85l-2.4-0.1l-2.4-0.1l-2.4-0.1l-2.4-0.2l-2.4-0.2l-2.4-0.2l-2.4-0.2l-2.4-0.2
	l-2.4-0.2l-2.4-0.2l-2.4-0.2l-2.4-0.2l-2.4-0.2l0.2-2.9l0.2-2.9l0.2-2.9l0.2-2.9l0.2-2.9l0.2-2.9l0.2-2.9l0.2-2.9l0.2-2.9l0.2-2.9
	l0.2-2.9l0.2-2.9l0.2-2.9l0.2-2.9l0.2-2.9l0.2-2.9l1.1,0.1l4.3,0.4l4.2,0.3l4.3,0.3l4.3,0.3l4.3,0.3l4.3,0.3l4.3,0.2l4.3,0.2
	l4.3,0.2l4.3,0.2l4.3,0.2l4.3,0.1L608,40l4.3,0.1l4.3,0.1h3l0.9,4.8v1.3l-0.2,0.9l0.1,1.5l-0.1,1l0.1,1.3l-0.1,1.7l0.5,2l0.7,1.8V57
	l0.2,1.1l0.4,0.9l0.9,2.6l0,2.4l0.1,0.8l0.2,5.4l0.1,0.7l0.5,0.8l-0.2,1.2v0.6l0.1,2.2l0.3,0.9l0.3,1.8l1.2,2.2l0.2,0.8l0.1,0.7
	l0.3,1.3l-0.1,1.8L626,86.4z"/>
<path class="st0" d="M626.6,138l0.3,0.1l0.7,1.3l0.3,2.4l0.7,1.9l1,1.4l0.5,1.1v0.7l0.2,0.7l0.5,0.8l0.2,1.3l-0.1,1.8l0.2,1l0.5,0.1
	l0.2,0.3l-0.1,0.4l0.2,0.3l0.4,0.2l0.1,0.5l-0.2,0.9l0.2,0.5l0.5,0.2l0.1,0.4l-0.3,0.6v0.5l0.4,0.4l0.3,1.6l0.1,2.9v1.7l-0.2,0.5
	l0.4,1l0.7,1.1l0.3,0.5l0.6,1.6l0.3,1.6l0.6,1l1,0.5l0.7,1l0.3,1.5l0.8,1.3l0.2,0.1h-2.1h-2.4h-2.4h-2.4h-2.4h-2.4h-2.4h-2.4h-2.4
	h-2.4h-2.4h-2.4l-2.4-0.1l-2.4-0.1l-2.4-0.1l-2.4-0.1l-2.4-0.1l-2.4-0.1l-2.4-0.1l-2.4-0.1l-2.4-0.1l-2.4-0.1l-2.4-0.1l-2.4-0.1
	l-2.4-0.1l-2.4-0.1l-2.4-0.1l-2.4-0.1l-2.4-0.1l-2.4-0.1l-2.4-0.1l-2.4-0.2l0.1-1.9l0.1-1.9l0.1-1.9l0.1-1.9l0.1-1.9l0.1-1.9
	l0.1-1.9l0.1-1.9l-2.8-0.2l-2.8-0.2l-2.8-0.2l-2.8-0.2l-2.8-0.2l-2.8-0.2l-2.8-0.2l-2.8-0.2l0.3-3.7l0.3-3.7l0.3-3.7l0.3-3.7
	l0.3-3.7l0.3-3.7l0.3-3.7l0.3-3.7l3.8,0.3l3.8,0.3l3.8,0.3l3.8,0.3l3.8,0.3l3.8,0.3l3.8,0.2l3.8,0.2l3.8,0.2l3.8,0.2l3.8,0.2
	l3.8,0.2l3.8,0.2l3.8,0.1l3.8,0.1l4.4,0.1l3.2,2.3l1.9,0.7l0.9-0.6l2-0.3h3.1l1.9,0.3l0.8,0.7l1.6,0.8l2.4,0.9l1.4,1l0.5,1l0.8,0.7
	L626.6,138z"/>
<path class="st0" d="M906,91.3l0.1,2v1l-1.3,0.3l-0.5,0.3l-0.9,1l-0.6,0.4l-0.8,1.4l-0.8,0.7l-1.5,0.4l-1.5,0.4l-1.5,0.4l-1.5,0.4
	l-1.5,0.4l-1.5,0.4l-1.5,0.3l-1.5,0.4l-0.3-0.5l-0.8-0.8l-0.2-0.3l-0.1-0.4v-1.2l0.1-0.4l0.1-0.7l-0.3-2.8l-0.1-1.6l-0.5-2.9V89
	l0.1-0.6l0.1-1.5l0.5-1.3l0.1-1.5l0.3-1.3l-0.1-0.7l0.1-1.6l-0.4-2.8l0.2-0.5l1.3-0.7l0.4-0.4l1.2-1.5l0.3-0.6l-0.2-1v-0.8l0.1-0.2
	l-0.1-0.4l-1-1.6l-0.2-0.6l0.6-2.3l-0.6-1.1l0.1-0.3l0.2-3.1l0.6-1.6l1.4,0.1l0.7-0.2l0.4-0.6l0.5,1.4l0.5,1.6l0.5,1.6l0.5,1.6
	l0.5,1.6l0.5,1.6l0.5,1.6l0.5,1.6l0.5,1.6l0.5,1.6l0.5,1.6l0.5,1.6l0.5,1.6l0.5,1.6l0.5,1.6l0.5,1.6l0.2,1.1l0.4,1l0.6,0.8l1.3,1
	l0.5,1L906,91.3z"/>
<path class="st0" d="M879.7,130.4l0.1,1.2l-0.5,2.6l-0.3,0.6l-0.4,0.6l-0.4,0.3l-0.3,0.5l-0.3,0.7l-0.1,1.3l0.5,1l2.2-0.1l0.5-0.5
	l0.5,0.7l0.4,1l0.1,1.2l-0.1,1.2l0.1,1.5l0.3,2.2l0.1,2l-0.2-0.6l-0.4-2.4l-0.3,0.3l-0.1,0.6l0.1,3.2l-0.5,1.9l-0.6,1.3h-0.9
	l0.4,0.9l-0.1,0.5v1l-0.4,0.8l-0.5,0.1l-0.6,0.6v0.4l0.1,0.7l-0.3,0.7l-1,3.4l-1.3,1.2h-0.4l0.1-1.5l-0.1-1.5l-1-0.4l-0.9-0.1
	l-1,0.3l-1.3-0.9l-1.6-0.5l-2.4-1.7l-0.1-0.6l-0.3-1l0.2-1.7l0.3-1.3l0.6-0.8l2.1-1.1l0.3-1l0.2-0.8l0.5-0.6l1.1-1.2l1.7-1.6l-3.6-3
	l-0.7-0.1l-1.1-1.6l-0.9-0.3l-0.3-0.2l-0.4-1.4l-0.1-0.8v-0.5l0.6-0.6l0.2-0.9l-0.1-0.4l-0.8-1.1l-0.1-0.4l0.8-1l1-1.8l0.4-1.8
	l0.2-0.6l0.3-0.4l0.8-0.7l1.2,0.4l1.2,0.4l1.2,0.4l1.3,0.4l1.3,0.4l1.3,0.4l1.3,0.4L879.7,130.4z M882,150.1l-0.8,2.5l-0.1-0.4
	l1-3.1L882,150.1z"/>
<path class="st0" d="M547.5,224.6H547l-0.3,4.2l-0.3,4.2l-0.3,4.2l-0.3,4.2l-0.3,4.2l-0.3,4.2l-0.3,4.2l-0.3,4.2l-0.3,4.2l-0.3,4.2
	l-0.3,4.2l-0.3,4.2l-0.3,4.2l-0.3,4.2l-0.3,4.2l-0.3,4.2l-2.9-0.2l-2.9-0.2l-2.9-0.2l-2.9-0.2l-2.9-0.3l-2.9-0.3l-2.9-0.3l-2.9-0.3
	l-2.9-0.3l-2.9-0.3l-2.9-0.3l-2.9-0.3l-2.9-0.3l-2.9-0.3l-2.9-0.3l-2.9-0.3h-0.1l1,2.9l0,0l1.5,0.9h-0.1l-2.8-0.3l-2.8-0.3l-2.8-0.4
	l-2.8-0.4l-2.8-0.4l-2.8-0.4l-2.8-0.4l-2.8-0.4l-0.2,1.7l-0.2,1.7l-0.2,1.7l-0.2,1.7l-4.5-0.6l-4.5-0.6l-1.6-0.2l0.8-5.3l0.8-5.3
	l0.8-5.3l0.8-5.3l0.8-5.3l0.8-5.3l0.8-5.3l0.8-5.3l0.8-5.3l0.8-5.3l0.8-5.3l0.8-5.3l0.8-5.3l0.8-5.2l0.8-5.2l0.8-5.2l4.5,0.6
	l4.5,0.6l4.5,0.6l4.5,0.6l4.5,0.6l4.5,0.5l4.5,0.5l4.5,0.5l4.5,0.5l4.5,0.5l4.5,0.5l4.5,0.4l4.5,0.4l4.5,0.4l4.5,0.4l4.5,0.4
	L549,219l-0.1,1.9l-0.1,1.9L547.5,224.6z"/>
<path class="st0" d="M418.8,198.9l-1.2,5.7l-1.3,6.3L416,211l-1,1.3l-0.9,0.5l-0.6-0.1l-0.5-0.5l-0.4-0.9l-0.8-0.7l-1.2-0.4
	l-1.1-0.1l-1,0.2l-0.7,0.4l-0.5,1v0.5l0.3,1.1l-0.3,1.5l-0.2,1.2l0.2,0.7l-0.1,0.8l-0.5,1.2l-0.1,1l0.3,1.9l-1.3,5.2v0.1l-2.7-3.8
	l-2.5-3.6l-2.5-3.6l-2.5-3.6l-2.2-3.3l-2.5-3.6l-2.4-3.6l-2.4-3.6l-1.8-2.5l-1.8-2.5l-1.8-2.5l-1.8-2.5l-1.8-2.5l-1.6-2.5l-1.6-2.5
	l-1.6-2.5l-2.2-3l-2.2-3l-2.2-3.1l-2.2-3.1l-2.1-3.1l-2.1-3.1l-2.1-3.1l-2.1-3.1l0.7-2.7l0.7-2.7l0.7-2.7l0.7-2.7l0.7-2.7l0.7-2.7
	l0.7-2.7l0.7-2.7l0.7-2.7l0.7-2.7l0.7-2.7l0.7-2.7l0.7-2.7l0.7-2.7l0.7-2.7l0.7-2.7l4.1,1.1l4.1,1.1l4.1,1l4.1,1l4.1,1l4.1,1l4.1,1
	l4.1,1l4.1,0.9l4.1,0.9l4.2,0.9l4.2,0.9l4.2,0.9l4.2,0.9l4.2,0.8l4.2,0.8l-0.5,2.3l-0.5,2.3l-0.5,2.3l-0.5,2.3l-0.5,2.3l-0.5,2.3
	l-0.5,2.3l-0.5,2.3l-0.5,2.3l-0.5,2.3l-0.5,2.3l-0.5,2.3l-0.5,2.3l-0.5,2.3l-0.5,2.3l-0.5,2.3l-0.5,2.3l-0.5,2.3l-0.5,2.3l-0.5,2.3
	l-0.5,2.3l-0.5,2.3l-0.5,2.3l-0.5,2.3l-0.5,2.3l-0.5,2.3l-0.5,2.3l-0.5,2.3l-0.5,2.3l-0.5,2.3l-0.5,2.3L418.8,198.9z"/>
<path class="st0" d="M822.4,63.5L822.4,63.5L822.4,63.5L822.4,63.5z M880.4,103.1v1.3v1.3v1.3v1.3v1.3v1.3v1.3v1.3l0.4,0.3l0.3,1.4
	l0.3,1.4l0.3,1.4l0.3,1.4l0.3,1.4l0.3,1.4l0.3,1.4l0.3,1.4l0.5,0.5l0.5,0.5l-0.3,0.4l-0.5,0.6l-0.6,0.6l-0.7,0.8l0.6,0.6l0.8,0.8
	l-0.4,0.5l-0.9,1.6l-0.6,0.9l-0.6,0.4l-0.3,0.7l-0.3,0.5l0.1-1.4l0.2-1.2l-0.1-2.2l-0.5-1.6l-0.6-0.6l-0.6-0.3l1,1.5l0.6,2v0.1
	l-1.2-0.4l-1.3-0.4l-1.3-0.4l-1.3-0.4l-1.3-0.4l-1.2-0.4l-1.2-0.4l-1.2-0.4l-0.4-0.5l-0.5-0.3l-2.1-0.3l-0.6-0.4l-0.6-0.6l-0.5-0.7
	l-0.4-0.8l-0.2-0.7v-0.8l-0.6-0.4l-0.1-0.5l-0.4-0.2l-1.4-0.3l-0.6-0.7l-1-0.6l-1.5,0.3l-1.5,0.3l-1.5,0.3l-1.5,0.3l-1.5,0.3
	l-1.5,0.3l-1.5,0.3l-1.5,0.3l-1.5,0.3l-1.5,0.3l-1.5,0.3l-1.5,0.3l-1.5,0.3l-1.5,0.3l-1.5,0.3l-1.5,0.3l-1.5,0.3l-1.5,0.3l-1.5,0.3
	l-1.5,0.3l-1.5,0.3l-1.5,0.3l-1.5,0.3l-1.5,0.3l-1.5,0.3l-1.5,0.3l-1.5,0.3l-1.5,0.3l-1.5,0.3l-1.5,0.3l-1.5,0.3l-1.5,0.3l-0.4-2
	l-0.4-2v-0.1l0.6-0.5l1.8-1.7l0.9-1.2l1-1l1-0.9l0.8-1l0.5-1.1l0.6-0.9l0.7-0.6l0.3-0.6v-0.6l-0.3-0.7l-0.5-0.9l-0.2-0.7l0.2-0.6
	v-0.4l-0.2-0.2l-1.8-0.2l-0.4-2.5v-0.1h0.1l3.7-1.9l2.4-0.9l3-0.7l3.7-0.2l1.5,0.2l1,0.5h1.1l1.1-0.5l1.6-0.4l2.1-0.3l1.1-0.1
	l0.2,0.2l0.1-0.1l0.1-0.3l0.5-0.5l1.4-0.9l0.2,0.1l0.3-0.3l0.3-0.7l0.6-0.9l1-1l0.9-0.6l0.9-0.2l0.6-0.3l0.2-0.4v-0.3l-0.2-0.2v-0.3
	v-0.2l-0.1-0.1l-0.2-0.2l-0.4-1.3l-0.3-0.6l-0.3-0.4l-0.4-0.2v-0.3l0.5-0.5v0.4l0.2,0.1l0.2-0.2l0.4-0.9V93l0.3-0.4l0.2-0.5h-0.3
	l-0.7,0.3l-0.2-0.1l0.3-0.7l-0.2-0.3l-0.2-0.1h-0.3l-0.8,0.7l-0.3,0.1l-0.1-0.3l-0.6-0.5l1-1.4l3.6-4.1l0.3-0.6l0.1-0.5l-0.2-0.3
	l-0.1-0.1v-0.1l3.2-5l1.9-2.4l1.7-1.5l1.3-0.8l1-0.2l0.5-0.2l0.5-0.1l2.4-0.6l4.3-1.1l4.3-1.1l2.5-0.6l0.3,0.9l0.1,1.2l0.5,1.2
	l0.4,2.7l1.2,1.8l0.2,1.4l0.4,1.4v0.4l-0.3,1l-0.1,0.9v0.9l0.1,0.5l1,2.3l0.3,1l0.1,0.6l0.1,2.1l0.1,0.6l0.2,0.1h0.1l0.3-0.7
	l0.2-0.1l0.3,0.1l0.9,0.8l0.4,1.7l0.3,1.2l0.3,1.3l0.5,2l0.3,1.5l0.3,1.3l0.2,1v0.8L880.4,103.1z M844.8,88.1l-0.3,0.2l-0.1-0.2
	v-0.2l0.2-0.3l0.5-0.1v0.2L844.8,88.1z M844.1,92.7L844.1,92.7l-0.2-0.2l0.1-0.2l0.3-0.2v0.2L844.1,92.7z M818.5,112.8l-0.2,0.6H818
	l-0.3-0.1l-0.1-0.3v-0.4l0.2-0.2h0.8l0.1,0.2L818.5,112.8z M895.1,126.6l-0.5,1.1l0.7-0.1l0.5-0.4l0.4-0.7l1.1-1.1l1-0.6l0.3-0.2
	l0.7,0.4l1-0.7l1-0.5l-4.1,3.7l-0.9,0.5l-1.2,1.1l-1.2,0.9l-0.9,0.4l-4.3,3l-0.4,0.1l-0.5-0.1l-3.7,1.9l-1.6,0.5l-1.4,0.7l0.9-1
	v-0.3l-0.3-0.2l-0.6,0.2l-0.4,0.9l-0.9,0.5l-0.4-0.8l0.2-0.7l0.3-0.7l0.7-1.2l1.2-0.9l0.6-0.7l0.6,0.3l-0.1-0.7l0.3-0.5l0.3-0.3
	l0.9-0.2l0.5-0.2l0.3-0.3l0.4-0.1h1.1l1-0.3l0.7-0.6l0.8-0.3l2.2-0.7l2.2-0.9l0.8-0.7l1.5-1.9l1-0.7l-1.2,2.1L895.1,126.6z
	 M878.3,138l-0.5,0.2l0.2-1.5l0.8-0.9h0.4l0.1,0.5v0.5l-0.5,0.8L878.3,138z"/>
<path class="st0" d="M807.3,150.9l-1.2,0.9l-0.1,0.6l0.5,0.7l0.4,0.9l0.2,1.2l-0.3,2.8l-0.8,4.3l-0.3,2.7l0.2,1.1l-0.8,1.5l-1.7,2
	l-1.2,1.3l-0.8,0.5l-0.7,0.1l-0.6-0.3l-0.6,0.4l-0.5,1.1l-0.5,0.6l-0.6,0.1l-0.4,0.7l-0.2,1.3l-0.3,0.8l-0.3,0.2l0.1,0.6l0.5,1v0.4
	h-0.2h-0.2l-0.4,0.3l-0.4,0.7h-0.2l-0.1-0.1l-0.2-0.8l-0.5-0.5l-0.6-0.2l-0.7,0.8l-0.8,1.9l-0.3,1.2l0.3,0.8l0.3,1.1l-0.2,0.5
	l-0.6,0.3l-0.3,0.7l-0.2,1.1l-0.7,0.8l-1.2,0.5l-1.4-0.3h-0.1l-1.8-1.1l-1.2-1.1l-0.6-1.2l-1.4,0.1l-2.2,1.4l-1.8,0.4l-1.3-0.6
	l-0.9-0.2l-0.9,0.4l-0.8,0.6l-0.8-0.2l-1-0.8l-1.5-0.5l-2-0.1l-1.5-0.8L768,182l-0.9-1l-0.9-0.5l-0.9-0.1l-1,0.4h-0.8l-0.6-0.4
	l-0.7,0.1l-0.6,0.6l-0.6-4.9l-0.6-4.8l-0.6-4.8l-0.6-4.8l-0.6-4.8l-0.6-4.8l-0.6-4.8l-0.6-4.8l3.7-0.6l3.7-0.6l3.7-0.6l3.7-0.7
	l0.1-0.1l0,0l0.2,0.2h1l0.7,0.2l0.6,0.4l2.1,0.6l0.7,0.5l0.6,0.2h0.6l0.4-0.2l0.2-0.4l0.3-0.1l0.4,0.3l1.1,0.2l0.1,0.1l-2.7,1
	l-0.6,0.4l0.8,0.1l0.8-0.2l0.7-0.4l0.9-0.1h0.8l0.2-0.2l0.1-0.1l1.4,0.7l0.5,0.1l0.5-0.2l0.5-0.4l1.1-0.6l1.7-0.8l1.7-0.5l1.7-0.2
	l1-0.3l0.9-0.7l1.8-2.2l2.2-1.9l3.7-2.5l3.6-2.1l0.2,1.2l0.3,1.5l0.3,1.5l0.3,1.5l0.3,1.5l0.3,1.5l0.3,1.5l0.3,1.5l0.3,1.5l0.3,1.5
	l0.3,1.5l0.3,1.5L807.3,150.9z"/>
<path class="st0" d="M648.6,227.7l0.3,2.1l0.3,2.1l0.3,2.1l0.3,2.1l0.3,2.1l0.3,2.1l0.3,2.1l0.3,2.1v1.6v1.6v1.6v1.6v1.6v1.6v1.6
	v1.6v1.6v1.6v1.6v1.6v1.6v1.6v1.6v1.6l-2.8-0.7l-0.7-0.5l-1.3-0.5l-1.2-1.1l-2.3-1.4l-0.9-0.3h-0.3l-0.5,0.7l-1.2,0.6h-0.7l-1.2-0.2
	l-0.2-0.2l-0.2-0.4l-0.5-0.3l-0.4,0.2l-1.7,0.6l-0.3,0.4h-1l-1-0.3l-2.5,0.9l-0.9,0.7l-0.9,0.2l-0.5,0.7l-0.3-0.1l-0.9-0.9l-1-0.3
	l-1.3-0.9v-0.8l-0.1-0.1L624,266l-0.3,0.1l-0.6,0.6l-0.3,0.2h-0.3l-1.3-0.4l-0.5-0.8l-0.3-0.2h-0.3l-0.5,0.2l-0.3,0.8l-0.2,0.2
	l-0.5,0.1v0.4l-0.5,1.2l-0.3,0.2h-0.3l-0.3-0.3l-0.2-0.4l-0.1-0.4l0.2-0.9l-0.1-0.3l-0.2-0.1l-0.6,0.4h-0.5L615,267l-0.4,0.1
	l-0.4-0.1l-0.6-0.7l-1.1-0.5l-0.4-0.8l-0.2-0.2l-0.2-0.1h-0.2l-0.4,0.3l-1.3,1.1l-0.6,0.3l-0.5,0.1l-0.5-0.1l-0.3-0.3V265l-0.3-0.3
	l-1.2-0.7l-0.2-0.7l-0.1-0.9l-1.4,0.1l-1.8-0.1l-0.8,0.8l-0.4,0.1l-0.5-0.2l-1.4-1.1l-1.5,0.2l-0.9-0.1l-2.1-0.9l-1.7-0.1l-0.7-0.2
	l-0.4-0.2l-0.1-1.2l-0.6-1.1l-0.2-0.3l-1.1-0.8h-0.2l-0.1,0.2l-0.3,0.8h-0.3l-1.3-0.3l-1.2,0.2l-0.6-0.4l-2.2-2l-0.9-0.5l-0.7-0.2
	l0.1-1.8l0.1-1.8l0.1-1.8l0.1-1.8l0.1-1.8l0.1-1.8l0.1-1.8l0.1-1.8l0.1-1.8l0.1-1.8l0.1-1.8l0.1-1.8l0.1-1.8l0.1-1.8l0.1-1.8
	l0.1-1.8l-2.3-0.1l-2.3-0.1l-2.3-0.1l-2.3-0.1l-2.3-0.1l-2.3-0.1l-2.3-0.1l-2.3-0.1l-2.3-0.1l-2.3-0.1l-2.3-0.1l-2.3-0.2l-2.3-0.2
	l-2.3-0.2l-2.3-0.2l-2.3-0.2l0.1-1.9l0.1-1.9l0.1-1.9l0.1-1.9l3,0.2l3,0.2l3,0.2l3,0.2l2.8,0.2l2.8,0.2l2.8,0.2l2.8,0.2l2.8,0.1
	l2.8,0.1l2.8,0.1l2.8,0.1l2.8,0.1l2.8,0.1l2.8,0.1l2.8,0.1l2.8,0.1l2.8,0.1l2.8,0.1l2.8,0.1l2.8,0.1l2.8,0.1l2.8,0.1h2.8h2.8h2.8
	h2.8h2.8h2.8h2.8h2.8h2.8h2.8h2.8h2.8h2.8v1.9v1.9v1.9L648.6,227.7z"/>
<path class="st0" d="M350.9,40.9l1.1-0.1l0.7,0.5l0.8,1l0.4,2.3v3.6l-0.1,1.2l0.6,0.9l0.9,0.3l3.5,1.6l0.5,0.1l0,0l0.7,0.1l2.4-0.7
	l2.3,0.2l2.6,0.9l1.5,0.8l0.4,0.8l1.4,0.5l3.6,0.2l3.8,0.5h2.1l2.6-0.5h5.5l2.6,0.5l1.4-0.2l0.4-0.2h0.2l2.7,0.7l2.7,0.7l2.7,0.7
	l2.7,0.7l2.7,0.7l2.7,0.7l2.7,0.6l2.5,0.6l0.1,0.7l0.8,1.5l1.3,1.4l0.7,1.4l0.2,1.3l-1.4,2.5l-2.9,3.8l-1.7,2.4l-0.4,1.1l-1.4,1.8
	l-2.4,2.4l-1.4,1.9l-0.3,1.4l0.4,0.9l1.1,0.5l0.7,0.6l0.3,0.8l-0.1,0.6l-0.5,0.5l-0.3,0.6v0.7l-0.4,1l-1.2,2.1v0.1l-0.8,3.6
	l-0.8,3.3l-0.8,3.3l-0.8,3.3l-0.8,3.3l-0.8,3.3l-0.8,3.3l-0.8,3.3l-4-1l-4-1l-4-1l-4-1l-4-1l-4-1l-4-1.1l-4-1.1l-2.8-0.8l-2.8-0.8
	l-2.8-0.8l-2.8-0.8l-2.8-0.8l-2.8-0.8l-2.8-0.8l-2.8-0.8l-2.8-0.8l-2.8-0.8l-2.8-0.9l-2.8-0.9l-2.8-0.9l-2.8-0.9l-2.8-0.9l-2.9-0.9
	l-0.8-2.2l0.3-2.8l0.2-1.1l1.1-2.8v-1.4l-0.3-2.4l1-1.6l0.8-0.9l2.6-4.3l0.4-0.3l0.5,0.2l1.1-0.5l-0.3-0.3l-0.7,0.2l1.1-1.7l1.1-1.4
	l0.6-0.5l1.9-5.1l1.6-3.9l0.9-1.1l0.2-1.4l0.8-1.8l0.4-1.9l4-8.6l0.2-1.1l0.8-1.3l0.9-3.9l1.5-4.2l-0.1-0.6v-0.6h0.3l0.3,0.8
	l2.4,0.7l1.7-0.1l0.5,0.4l0.4,1l0.8,0.4L350.9,40.9z"/>
<path class="st0" d="M869.8,127.3l-0.7,0.7l-0.3,0.4l-0.2,0.6l-0.4,1.8l-1,1.8l-0.8,1l0.1,0.4l0.8,1.1l0.1,0.4l-0.2,0.9l-0.6,0.6
	v0.5l0.1,0.8l0.3,1.4l0.3,0.2l0.9,0.3l1.1,1.6l0.7,0.1l3.6,3l-1.7,1.6l-1.1,1.2l-0.5,0.6l-0.8,1.6l-1.6,0.8l-0.8,0.7l-0.2,0.3
	l-1.1-0.2l-1.4,0.4l-0.4,0.3l-0.3,0.4l-0.6,1.4l-2.6,0.6l-2.6,0.6l-2.6,0.6l-2.6,0.6l-2.6,0.6l-2.6,0.6l-2.6,0.5l-2.6,0.5l-2.6,0.5
	l-2.6,0.5l-2.6,0.5l-2.6,0.5l-2.6,0.5l-2.6,0.5l-2.6,0.5l-2.6,0.5l-1.5,0.3l-1.5,0.3l-1.5,0.3l-1.5,0.3l-1.5,0.3l-1.5,0.3l-1.5,0.3
	l-1.5,0.3l-0.3-1.7l-0.3-1.7l-0.3-1.7l-0.3-1.7l-0.3-1.7l-0.3-1.7l-0.3-1.7l-0.3-1.7l-0.3-1.6l-0.3-1.5l-0.3-1.5l-0.3-1.5l-0.3-1.5
	l-0.3-1.5l-0.3-1.5l-0.3-1.5l-0.3-1.5l-0.3-1.5l-0.3-1.5l-0.3-1.5l-0.2-1.2l1.9-1.1l0.8-0.7l0.8-0.7l0.4-0.4l0.5-0.4l3.1-2.5v0.1
	l0.4,2l0.4,2l1.5-0.3l1.5-0.3l1.5-0.3l1.5-0.3l1.5-0.3l1.5-0.3l1.5-0.3l1.5-0.3l1.5-0.3l1.5-0.3l1.5-0.3l1.5-0.3l1.5-0.3l1.5-0.3
	l1.5-0.3l1.5-0.3l1.5-0.3l1.5-0.3l1.5-0.3l1.5-0.3l1.5-0.3l1.5-0.3l1.5-0.3l1.5-0.3l1.5-0.3l1.5-0.3l1.5-0.3l1.5-0.3l1.5-0.3
	l1.5-0.3l1.5-0.3l1.5-0.3l1,0.6l0.6,0.7l1.4,0.3l0.4,0.2l0.1,0.5l0.6,0.4v0.8l0.2,0.7l0.4,0.8l0.5,0.7l0.6,0.6l0.6,0.4l2.1,0.3
	l0.5,0.3L869.8,127.3z"/>
<path class="st0" d="M906.2,112.4l-0.3,0.5l-0.6-0.4l-0.4-0.6l-0.4-0.3h-0.4l0.7,1.3l-0.4,1.2l0.5,2.6l-0.6,1.3l-2.5,1.4l-0.8,0.1
	l-0.1-0.9l0.2-0.4l-0.2-0.9l-0.1-0.6l-0.3-1l-0.3-1.1l-0.3-1.2l-0.3-1.1l-0.2-0.8l-0.3-1.1l-0.2-0.8l0.8-0.2l1.1-0.3l1.1-0.3
	l0.7-0.2l0.8-0.2l0.2,0.6l0.3,1h0.5l0.2,0.8l0.1,0.5l0.5,0.2l0.5,0.2L906.2,112.4z M907,115.5l-0.4,0.5l-0.6,0.1l0.2-0.6l-0.1-0.8
	l0.1-0.9l0.1-0.3l0.3-0.3L907,115.5z M905.6,116l-0.2,0.3l-0.3-0.7v-0.9l0.2-0.1l0.2,0.4L905.6,116z"/>
<path class="st0" d="M848.5,246.3l-0.2,0.1l-2.8,2.8l-0.8,1.1l-2,4.2l-0.2,2.5l-0.7-0.9v-0.8l-0.1-0.6l-0.4,1.4l1,1.8l-0.4,0.8
	l-1.5,1.7l-0.9,0.4l-1,0.6l-0.1,1.4l-1.3,1.5l-0.8,0.7l-1.7-0.1l0.7,1.1l-0.4,1l-0.9,0.9l-1.2,0.7l-0.7,0.1l-0.6,0.4l-0.4,0.7
	l-1.1,0.8l-1.3-0.1l-1.4,0.1l-0.7,0.5l1.4,0.3l0.8,0.7v1.1l-0.3,0.5l-0.7,0.7h-0.4l-0.3-0.5l-0.4-1l-0.3,0.3v0.5l-0.3,0.2l-1.5-1.4
	l0.3,1.2l0.6,0.9l0.5,0.4l0.4,0.2l0.2,0.4l-0.6,1.2l-0.4,0.3l-0.7,0.3l-0.3,0.7l0.2,0.6L822,278l-0.9-0.9l-0.2-1.4l-0.7-1.5
	l-1.9-2.4l-1.2-0.6l-1-1.7l-1.2-3l-1.4-1.8l-1.6-0.6l-1.2-0.9l-0.7-1.1l-0.7-0.7l-0.6-0.3l-0.4-0.6l-0.2-0.8l-1-1l-2.8-1.7l-0.8-1.2
	l-1.4-1.1l-3.3-2.2l0,0l-3.6-4.8l0,0l-0.5-1l-0.7-0.3h-1l-1-0.4l-1.6-1.1l0,0l-2.5-1.3l0.3-1.5l1.5-2.1l0.5-1.1h0.1h0.2l1.9-0.9
	l1.8-0.9h0.4l1-0.8l2.2-1.1l0.8-0.6l0.5,0.1l1.9-0.2l1.9-0.2l1.9-0.2l1.9-0.2l1.9-0.2l1.9-0.2l1.9-0.2l1.9-0.2l0.4,0.1l0.2,0.2v0.6
	l0.1,0.3l1.2-0.9l0.8,0.7l1.3,1.2l0.2,0.8l0.3,1.1l1.7-0.2l1.7-0.2l1.7-0.2l1.7-0.2l1.7-0.2l1.7-0.2l1.7-0.2l1.7-0.2l1.9,1.4
	l1.9,1.4l2,1.4l2,1.4l2,1.4l2,1.4l2,1.4L848.5,246.3z"/>
<path class="st0" d="M626,86.4l-0.4,1.5l-0.3,0.7l-0.5,0.7l-1.6,1.4l-0.4,0.5l0.1,0.5l0.3,0.6l0.8,1.4l0.4,0.6l1.8,0.9l0.8,1.1v3.4
	v3.4v3.4v3.4v3.4v3.4v3.4v3.4h-1.6l0.2,0.9l0.4,0.9l0.1,0.5l-0.1,0.4l-0.3,0.4l0.1,0.6l0.1,0.2l0.7,0.4l0.2,0.5l0.1,0.6v0.5
	l-0.4,0.8l-0.1,1.1l-0.6,1.7l-0.6,1l-0.1,0.5l0.1,0.4l0.9,1.1v0.4l0.3,0.6l0.3,1.2l-0.9-0.2l-0.8-0.7l-0.5-1l-1.4-1l-2.4-0.9
	l-1.6-0.8l-0.8-0.7l-1.9-0.3h-3.1l-2,0.3l-0.9,0.6l-1.9-0.7l-3.2-2.3l-4.4-0.1l-3.8-0.1l-3.8-0.1l-3.8-0.2l-3.8-0.2l-3.8-0.2
	l-3.8-0.2L574,129l-3.8-0.2l-3.8-0.2l-3.8-0.3l-3.8-0.3l-3.8-0.3l-3.8-0.3l-3.8-0.3l-3.8-0.3l0.3-3.7l0.3-3.7l0.3-3.7l0.3-3.7
	l0.3-3.7l0.3-3.7l0.3-3.7l0.3-3.7h0.1h0.1h0.1h0.1l0,0l0,0l0,0l0,0l0.3-3.5l0.3-3.5l0.3-3.5l0.3-3.5l2.4,0.2l2.4,0.2l2.4,0.2
	l2.4,0.2l2.4,0.2l2.4,0.2l2.4,0.2l2.4,0.2l2.4,0.2l2.4,0.2l2.4,0.1l2.4,0.1l2.4,0.1l2.4,0.1l2.4,0.1l2.4,0.1l2.4,0.1l2.4,0.1
	l2.4,0.1l2.4,0.1l2.4,0.1l2.4,0.1L604,86l2.4,0.1l2.5,0.1l2.4,0.1l2.4,0.1h2.4h2.5h2.4h2.4L626,86.4z"/>
<path class="st0" d="M780.1,216.2l2.7-0.4l5.8-0.8l4.1-0.6l3.4-0.5l2-0.3l2.5-0.4l0.5-0.4l1.3-0.1l1.7-0.2l-0.4,1.2l0.1,0.8
	l-0.1,1.2l0.1,0.7l-0.9,0.2l-0.5,0.3l-0.6,0.6l-1.3,3l-0.6,0.3l-1.1-0.5l-1.3,0.5l-0.8,0.6l-1.1,1.5l-0.5,0.5l-0.4,0.2h-0.3
	l-0.2-0.2l-0.2-0.6l-0.2-0.2l-0.4,0.1l-0.6,0.3l-0.6,0.5l-0.6,0.9l-0.9,0.1l-0.1,0.2l-0.1,0.9l-0.3,0.7l-0.4,0.6l-1.5,0.6l-1.8,1.6
	l-2.5,1.8l-2.5,0.7l-1,0.4l-0.7,0.5l-1.4,1.7l-0.5,2l-0.8,0.5l-1.3,0.2l-0.3,0.2l-0.2,0.8v3.2l-4,0.5l-4,0.4l-4,0.4l-4,0.4l-2,0.2
	l-2,0.2l-2,0.2l-2,0.2l-2,0.2l-2,0.2l-2,0.2l-2,0.2l-2,0.2l-2,0.2l-2,0.2l-2,0.2l-2,0.2l-2,0.2l-2,0.2l-2,0.1h-0.2l0.2,0.2l0.2,0.2
	l-3.3,0.3l-3.3,0.3l-3.3,0.3l-3.3,0.2l-3.3,0.2l-3.3,0.2l-3.3,0.2l-3.1,0.2l0,0l0.4-0.7l1.3-1.1l0.5-1.4l-0.3-1.6l0.4-1.5l1.1-1.4
	l0.4-1.4l-0.3-1.3l0.5-1.1l1.3-0.9l0.2-0.3l-0.1-0.2V235v-0.1v-0.3l0.3-0.2l0.4-0.1l0.2-0.2v-0.3l-0.3-0.6v-0.3l0.1-0.4l0.6-1.2
	v-0.9l-0.5-0.8l0.2-0.4l0.3-0.1l0.4-0.1l0.1-0.2v-0.2l-0.4-0.5l0.1-0.5l0.6-0.4l0.1-0.8l-0.3-1.1l0.8-0.1v0.1l0.2,0.1l0.2-0.1l0,0
	l2.4-0.2l2.1-0.2l2.1-0.2l2.1-0.2l2.1-0.2l2.1-0.2l2.1-0.2l1.9-0.2l0,0l-0.1-1.3l-0.6-1.5h0.1h1.6h1.1l0.4,0.4l4-0.4l4-0.5l4-0.5
	l4-0.5l4.2-0.3l4.2-0.3l4.2-0.3l4.2-0.3l4.2-0.4l4.2-0.4l4.2-0.4l4.2-0.4h0.1h0.1h0.1h0.1h0.1h0.1L780.1,216.2L780.1,216.2z"/>
<path class="st0" d="M650.9,270.4l0.7,0.7l0.5,0.2l0.2,0.3l0.3,0.1l0.3-0.1l0.5-0.3l0.7,0.1l0.6-0.1l1.2,0.1l0.7,0.3l0.1,2l0.1,2
	l0.1,2l0.1,2v1.9v1.9v1.9v1.9v1.9v1.9v1.9v1.9l1.8,1.8l0.8,1.2l0.3,0.6l0.1,2.2l0.2,0.5l0.9,0.8v0.5l1,1.6v0.7l0.9,1.7l0.5,0.4
	l0.1,1.1l0.3,0.9l-0.4,0.6l0.2,0.9l-0.2,0.8l-0.1,1.1l-0.6,1.7l-0.5,0.8l-0.7,1.6l0.1,1.3l-0.4,1.4v0.5l0.4,0.9l0.2,2.6l-0.2,0.5
	l-0.8,1.5h-0.6l-1.3,2.5l0.8,1.4v0.5l-2.8,0.3l-6.2,2.9l-2.4,1.6l0.1-0.5l2.9-2l-1-0.3l-1.7,0.5l-0.6-0.2l0.7-1.6l-0.2-1.4h-1.2
	l-0.7,1.1h-0.5l-0.7-0.5l-0.5,0.2l0.4,2.6l0.8,1.1l0.6,1.4l-1.7,1.7l-1.6,1.4l-0.2,1.3l-1.6,1.8l-1.5,1l-3.6,2.3l-1,0.5l-1.6,1.1
	l-2.2,0.8l-2.1,1.3l-0.7,0.2l1.4-1.1l1.6-1.1l-1.4,0.1l-2.1-0.5h-1.3v0.4l-1,0.6l-1-0.8l-0.4-0.6l-0.2-0.5l-0.4-0.1l-0.4,0.2
	l1.5,3.3l0.7,0.1l0.7,0.3l-0.9,0.8l-1,0.6l-1.5,0.4L622,349l-0.3,1.5l-0.2,1.5l-0.4,0.4l-0.7,0.6l-0.4-0.4l-0.2-0.6l-0.5,0.5
	l-0.7,0.4l-1.1,0.1l-0.8,0.2v0.6l0.2,0.6l1.4-0.5l-0.5,1.6l-1.3,1.6l-1.1,0.4l-1.7-0.3l-0.4,0.2l-0.4,0.3l1.9,2.6l-1.3,3.8l-0.8,1.4
	l-0.6,0.2h-0.6l-2.1-1.3l-1.1-1l1,2.6l2.8,0.8l0.1,1v0.8l-0.6,1l-0.5,1.3l0.4,0.9l0.4,2.3l0.4,1l0.4,3.1l0.4,1.4l2.5,5.1l0.9,0.1
	l0.1,0.5l-0.1,1l-1.9,0.3l-0.8,0.5l-0.2,0.4l-0.1,0.2h-0.2l-0.9-0.3l-2-1.5l-2.9-0.9l-3.9-0.4l-2.6-0.8l-1.4-1.1l-1.5-0.7l-1.5-0.2
	l-1.3-0.6l-1-1l-1.5-0.7l-1.9-0.3l-1.2-0.8l-0.8-1.8l0,0l-0.7-3l-0.9-1.9l-1.8-2.4l-0.2-0.3l0,0v-0.4l0.3-1.3l-0.2-1l-0.6-0.8
	l-0.1-0.8l0.4-0.9l0.1-1.1l-0.2-1.2l-1.2-1.4l-2.1-1.5l-1.7-2.2l-1.4-2.8l-1.4-2l-1.4-1.1l-0.9-1.3l-0.5-1.5l-0.1-0.9l0.2-0.2
	l-0.8-1.7l-1.9-3.2l-1-2.3l-0.2-1.5l-1.2-1.8l-2.1-2.1l-1.1-1.4l-0.2-0.9l0,0l-3.3-2.8l-0.9-1.7l-0.8-0.6h-0.9l-0.5-0.2V326h-0.3
	l-0.6,0.3h-1.9l-3.1-0.4l-2.2-0.6l-1.3-0.8h-1l-0.6,0.8l-1.2,0.5l-1.8,0.1l-1.7,1.5l-1.5,2.9l-0.7,1.9l0.1,0.9l-0.4,0.6l-0.9,0.3
	l-0.9,0.8l-1,1.3l-1.1,0.6l-1.2-0.1l-2.1-1.2l-3-2.3l-2.4-1.5L527,331l-1.5-1.1l-1.3-1.5l-1.2-1.1l-1.1-0.6l-1.2-1.7l-1.3-2.8
	l-0.6-2.1l0.2-2.2l-1.6-4.9l-0.9-2.1l-0.7-1l-1.4-1.3l-2.2-1.5l-2.8-2.9l-3.4-4.3l-2.5-2.6l-1.5-1l-1.2-1.6l-0.9-2.1l-1-1.4
	l-0.1-0.1l-1.5-0.9l0,0l-1-2.9h0.1l2.9,0.3l2.9,0.3l2.9,0.3l2.9,0.3l2.9,0.3l2.9,0.3l2.9,0.3l2.9,0.3l2.9,0.3l2.9,0.3l2.9,0.3
	l2.9,0.3l2.9,0.2l2.9,0.2l2.9,0.2l2.9,0.2l0.3-4.2l0.3-4.2l0.3-4.2l0.3-4.2l0.3-4.2l0.3-4.2l0.3-4.2l0.3-4.2l0.3-4.2l0.3-4.2
	l0.3-4.2l0.3-4.2l0.3-4.2l0.3-4.2l0.3-4.2l0.3-4.2h0.5l2.3,0.2l2.3,0.2l2.3,0.2l2.3,0.2l2.3,0.2l2.3,0.1l2.3,0.1l2.3,0.1l2.3,0.1
	l2.3,0.1l2.3,0.1l2.3,0.1l2.3,0.1l2.3,0.1l2.3,0.1l2.3,0.1l-0.1,1.8l-0.1,1.8l-0.1,1.8l-0.1,1.8l-0.1,1.8l-0.1,1.8l-0.1,1.8
	l-0.1,1.8l-0.1,1.8l-0.1,1.8l-0.1,1.8l-0.1,1.8l-0.1,1.8l-0.1,1.8l-0.1,1.8l-0.1,1.8l0.7,0.2l0.9,0.5l2.2,2l0.6,0.4l1.2-0.2l1.3,0.3
	h0.3l0.3-0.8l0.1-0.2h0.2l1.1,0.8l0.2,0.3l0.6,1.1l0.1,1.2l0.4,0.2l0.7,0.2l1.7,0.1l2.1,0.9l0.9,0.1l1.5-0.2l1.4,1.1l0.5,0.2
	l0.4-0.1l0.8-0.8l1.8,0.1l1.4-0.1l0.1,0.9l0.2,0.7l1.2,0.7l0.3,0.3v1.1l0.3,0.3l0.5,0.1l0.5-0.1l0.6-0.3l1.3-1.1l0.4-0.3h0.2
	l0.2,0.1l0.2,0.2l0.4,0.8l1.1,0.5l0.6,0.7l0.4,0.1l0.4-0.1l0.7-0.4h0.5l0.6-0.4l0.2,0.1l0.1,0.3l-0.2,0.9l0.1,0.4l0.2,0.4l0.3,0.3
	h0.3l0.3-0.2l0.5-1.2v-0.4l0.5-0.1l0.2-0.2l0.3-0.8l0.5-0.2h0.3l0.3,0.2l0.5,0.8l1.3,0.4h0.3l0.3-0.2l0.6-0.6l0.3-0.1l0.2,0.1
	l0.1,0.1v0.8l1.3,0.9l1,0.3l0.9,0.9l0.3,0.1l0.5-0.7l0.9-0.2l0.9-0.7l2.5-0.9l1,0.3h1l0.3-0.4l1.8-0.6l0.4-0.2l0.5,0.3l0.2,0.4
	l0.2,0.2l1.2,0.2h0.7l1.2-0.6l0.5-0.7h0.3l0.9,0.3l2.3,1.4l1.2,1.1l1.3,0.5l0.7,0.5L650.9,270.4z M644.6,338.3l-0.7,0.2l2.9-2.4
	l0.6-0.8h0.8l-1.3,1.3L644.6,338.3z M621.6,353.4l-0.5,0.1l0.6-0.8l1-0.4l2.2-1.6l0.9-0.1l0.5-0.5l0.2-0.1l-0.1,0.7l-1.8,0.9
	L621.6,353.4z M618.2,357.1h-0.3l0.7-1.2l0.1-0.5l1.1-1.6l0.6-0.2l0.2,0.7l-1.1,1.1L618.2,357.1z M613.5,366.2l-0.4,0.9l0.1-1.3
	l1.1-2.9l2.3-3.9l0.9-0.6l-2.6,4.2L613.5,366.2z M615.7,383.6l-0.2,0.7l-1.1-3.3l-1.7-7.5v-4.3l0.3-1.5l0.4,6l1.9,7.7L615.7,383.6z"
	/>
<path class="st0" d="M464.6,131.8l-0.3,1.8l-0.3,1.8l-0.3,1.8l-0.3,1.8l-0.3,1.8l-0.3,1.8l-0.3,1.8l-0.3,1.8l2.8,0.5l2.8,0.5
	l2.8,0.5l2.8,0.4l2.8,0.4l2.8,0.4l2.8,0.4l2.8,0.4l-0.5,3.7l-0.5,3.7l-0.5,3.7l-0.5,3.7l-0.5,3.7l-0.5,3.7l-0.5,3.7l-0.5,3.7
	l-0.5,3.7l-0.5,3.7l-0.5,3.7l-0.5,3.7l-0.5,3.7l-0.5,3.7l-0.5,3.7l-0.5,3.7l-3.7-0.5l-3.7-0.6l-3.7-0.6l-3.7-0.6l-3.7-0.6l-3.7-0.6
	l-3.7-0.6l-3.7-0.6l-3.7-0.6l-3.7-0.7l-3.7-0.7l-3.7-0.7l-3.7-0.7l-3.7-0.7l-3.7-0.7l-3.7-0.7l0.5-2.3l0.5-2.3l0.5-2.3l0.5-2.3
	l0.5-2.3l0.5-2.3l0.5-2.3l0.5-2.3l0.5-2.3l0.5-2.3l0.5-2.3l0.5-2.3l0.5-2.3l0.5-2.3l0.5-2.3l0.5-2.3l0.5-2.3l0.5-2.3l0.5-2.3
	l0.5-2.3l0.5-2.3l0.5-2.3l0.5-2.3l0.5-2.3l0.5-2.3l0.5-2.3l0.5-2.3l0.5-2.3l0.5-2.3l0.5-2.3l0.5-2.3l0.5-2.3l2,0.4l2.1,0.4l2.1,0.4
	l2.1,0.4l2.1,0.4l2.1,0.4l2.1,0.4l2.1,0.4l2.1,0.4l2.1,0.4l2.1,0.4l2.1,0.4l2.1,0.4l2.1,0.4l2.1,0.3L464.6,131.8z"/>
<path class="st0" d="M842.5,164.1l0.8,0.4l1.7,0.3l0.8,0.5l-0.1,0.7l0.1,0.5l0.4,0.4l2.2,0.4l1.5,1l0.9,0.2l0.3,0.1l0.6,0.2l0.3,0.3
	l0.2,1.7l-0.4,0.9l-0.7,0.8l-0.9,1.4L850,175l0.1,2l0.6,0.6l0.5,0.1l1.3-0.7h0.8l2.1,2l3.2,0.3l1.2,0.3l1.2,1l1.5,0.4l1.3,0.8
	l0.2,0.7l-0.2,0.9l0.1,1.1l-0.3,0.8l-1.1,0.3h-0.7l-4.3-3l-0.5-0.3l-1.7-1.7l-1.7-0.7l-0.5,0.1l2.6,1.5l1.2,1.2l2,1.6l1.3,0.6
	l1.1,1.1l0.9,0.4l2.3,0.4l-0.6,0.8l1.3,0.3l0.4,0.9l0.1,1.1l-1.7-0.1l0.1,0.8l0.2,0.4l-0.6,0.5l-1.1-0.3l-3.2-2.3l0.1,0.4l0.3,0.4
	l1.9,1.5l1.6,0.8l1.2,0.3l1.1,0.7l0.4,0.5l0.4,0.8l-0.5,0.7l-0.7,0.5l-0.8-0.4l-0.7-0.5l-1.3-0.8l-0.6-1.1l-0.8,0.2l-3.9-0.7
	l-2.9,0.4l0.3,0.2l0.4,0.1l2.3-0.1l1,0.5l2,0.2l1.1-0.1l0.8,1.7l1.8,0.9l0.4,0.9l1.1-0.1l1.6-1.3l1.2,0.1l1.8-0.1l0.6,0.7l0.6,1.3
	l1,1.4l0.7,1.5l-0.4,0.1l-0.9,0.2l-2.9,0.6l-4.3,0.9l-4.3,0.9l-4.3,0.9l-4.3,0.8l-4.3,0.8l-4.3,0.8l-4.3,0.8l-4.3,0.8l-4.3,0.8
	l-4.3,0.7l-4.3,0.7l-4.3,0.7l-4.3,0.7l-4.3,0.7l-4.3,0.7l-0.2-0.2l-1.7,0.2l-1.3,0.1l-0.5,0.4l-2.5,0.4l-2,0.3l-3.4,0.5l-4.1,0.6
	l-5.8,0.8l-2.7,0.4l1.1-0.9l1.7-0.7l3-1.7l1.1-1.4l1.6-1.2l0.6-1.2l1-1.2l0.3-1.2l0.1-0.2l1.8-1.3l1.8-1.6l3.9-4.3l0.2,0.5l-0.1,0.5
	l0.5,0.5l0.5,0.9l0.5,0.5l0.6,0.4l1,0.3l1.2,0.6l0.9,0.1l0.3-0.1l0.8-0.8l0.7-0.5l0.7-0.9l1.6,0.8l0.6-0.1l1.4-0.7l1.3-0.3l0.3-0.2
	l0.4-0.5l-0.1-0.9l0.1-0.2l0.2-0.1l0.3-0.1l0.7,0.2l0.6-0.1l2.3-1.4h0.2l0.4,0.4l1-0.8l0.6-0.7l0.1-0.9l0.4-0.9l-0.2-0.3l-0.4-0.4
	l0.3-1.2l0.5-1.2l1.9-3.7l0.5-2.1l0.8-1.5l0.2-1.1l0.6-1.1l0.2-2.2l0.3-0.5l0.5-0.2l0.5,0.2l0.4,0.3l0.3,0.6l1.4,0.3l1.1-0.1
	l0.7-0.5l0.3-0.8l0.3-1.5l0.4-0.9l0.2-1.1l0.2-0.8l0.5-0.6l1.4-0.2l0.6-0.8l0.4-0.8l0.3-0.3h0.4l1.1-1.4l1.2-2.7l0.1-1.6l0.2-1.2
	v-1.1l0.2-0.7l1.7,0.9l1,0.5l2.2,1.2l1.5,0.8l0.3-1.3L842.5,164.1z M874.9,177l0.3-0.1l0,0l-0.7,2.5l-0.5,0.4L874.9,177z
	 M870.5,179.3l0.3-0.8l1.7-0.6l1-0.4l-1.2,6.3l0.3,1l-0.4,0.5l-0.7,0.5l-0.6,0.8l-0.4,0.8l-0.1,2l-0.5,2.3l-0.8-0.7l-0.3-0.7l-0.2-2
	l0.3-3.4l0.7-2.3l0.6-1.1L870.5,179.3z"/>
<path class="st0" d="M888.9,101.2l-1.1,0.2l-1.1,0.2l-1.1,0.2l-1.1,0.2l-1.1,0.2l-1.1,0.2l-1.1,0.2l-1.1,0.2l-0.5-0.8v-0.8l-0.2-1
	l-0.3-1.3l-0.3-1.5l-0.5-2l-0.3-1.3l-0.3-1.2l-0.4-1.7l-0.9-0.8l-0.3-0.1l-0.2,0.1l-0.3,0.7h-0.1l-0.2-0.1l-0.1-0.6l-0.1-2.1
	l-0.1-0.6l-0.3-1l-1-2.3l-0.1-0.5V83l0.1-0.9l0.3-1v-0.4l-0.4-1.4l-0.2-1.4l-1.2-1.8l-0.4-2.7l-0.5-1.2l-0.1-1.2l-0.3-0.9l1.8-0.5
	l4.3-1.1l4.3-1.1l4.3-1.2l4.3-1.2l-0.1,0.3l0.6,1.1l-0.6,2.3l0.2,0.6l1,1.6l0.1,0.4l-0.1,0.2v0.8l-0.2,0.6l-0.3,0.6l-1.2,1.5
	l-0.4,0.4l-1.3,0.7l-0.2,0.5l0.4,2.8l-0.1,1.6l0.1,0.7l-0.3,1.3l-0.1,1.5l-0.5,1.3l-0.1,1.5l-0.1,0.6v0.9l0.5,2.9l0.1,1.6l0.3,2.8
	l-0.1,0.7l-0.1,0.4v1.2l0.1,0.4l0.2,0.3l0.8,0.8L888.9,101.2z"/>
<path class="st0" d="M414.3,60.4l-2.5-0.6l-2.7-0.6l-2.7-0.7l-2.7-0.7l-2.7-0.7l-2.7-0.7l-2.7-0.7l-2.7-0.7h-0.2l-0.4,0.2l-1.4,0.2
	l-2.6-0.5h-5.5l-2.6,0.5h-2.1l-3.8-0.5l-3.6-0.2l-1.4-0.5l-0.4-0.8l-1.5-0.8l-2.6-0.9l-2.3-0.2l-2.4,0.7l-0.7-0.1l0,0l-0.5-0.1
	l-3.5-1.6l-0.9-0.3l-0.6-0.9L354,48v-3.6l-0.4-2.3l-0.8-1l-0.7-0.5l-1.1,0.1l-0.2-0.3l-0.5-0.2l-0.8-1l-0.4-0.9l-1.9-0.5l-0.2-0.6
	l-2.2-0.2l-0.5-0.7l-1.2-0.1l0.7-1.3l0.5-1.7l0.6-1.6l-0.1,1.3l0.3,1.5l0.8-1.3l0.8-1.7l-0.5-0.9l-1-0.9l0.1-1.8l3.1-0.6l-1.3-0.8
	l-0.3-0.8l-0.7-0.3l-0.2,0.5l-0.4,0.6v-0.9l0.3-1l0.3-1.8l-0.2-3.2l0.5-3.9l-0.2-2.1l-1-2.2l-0.1-1.1l0.5-2.7l0.8-1.9l0.2-1.5
	l0.7,0.3l1.6,1.7l2.2,1.6l0.5,0.9l1,0.8l6.4,2.8l0.5,0.1l1-0.2l0.3,0.2l0.7,1.3l0.5,0.3l0.6,0.1h0.5l1-0.4v0.3l-0.2,0.6v1l0.2,1.4
	v0.8l-1.8,1.7h-0.2l0.2-0.7l-0.1-0.2l-3.3,2.8l-1.3,1.4l-0.3,0.7l-0.1,0.4l0.3,0.2l0.8,0.1l1.3-0.4l0.1-0.1l-1.1-0.1l-0.5-0.1
	l0.3-0.8l0.2-0.3l1-1l0.9-0.5l1.2-0.4l0.7-0.4l0.7-0.8l1.4-0.7l0.3-0.2l0.2-0.9l0.1-0.1l0.5,0.3l-0.2,1.6l-0.3,0.6l-1.2,0.5
	l-0.2,0.3l-0.2,1.2l-0.2,0.1l-0.3-0.2h-0.1l0.5,1.5v1l-0.2,0.9l-0.7,1.5l-0.3,0.2l-0.4-0.2l-0.4-0.7l-0.2,0.1l-0.8,1.1l-0.1-0.2
	l0.2-1.6L360,25l-1.1,0.4l-0.6,0.5l-0.6,0.9l-0.5,0.4l1.1,0.5l1.1,0.1l0.7,0.7l0.3,0.1l0.9-0.3l0.3-0.3l1.1-1.4l0.4-0.2l0.5,0.1
	l0.5-0.1l0.9-0.7l0.1-0.3l0.3-2l0.4-1.1v-0.4l-0.2-0.4l0.1-0.3l0.4-0.5l0.2-0.5l-0.1-0.5l0.2-0.5l0.9-0.9l0.3-0.5l1.1-0.9l-0.1-0.5
	l-0.4-0.7l-0.2-0.6l-0.1-0.9l-0.2-0.3l-0.1,0.1v1.4l-0.1,0.1l-0.8-1l-0.1-0.5l0.1-0.6l0.2-0.4l0.6-0.3h0.7l0.1-0.4l-0.4-1.4
	l-0.4-0.7l-0.3-0.4l-0.5-0.2l-0.1-0.3V9l0.2-0.3h0.3l0.8,0.4l0.5-0.1l0.1-0.5l-0.1-0.3l0.5-1.7l0.1-1.4l-0.1-0.3l-0.2-0.1l-0.2,0.1
	l-0.5,0l-0.2-0.5l-0.1-1V1.1l1,0.3l4.1,1.2l4.1,1.2L381,5l4.1,1.2l4.1,1.1l4.1,1.1l4.1,1.1l4.1,1.1l4.1,1.1l4.1,1l4.1,1l4.1,1l4.1,1
	l1,0.2l-0.5,2.4l-0.6,2.4l-0.6,2.4l-0.6,2.4l-0.6,2.4l-0.6,2.4l-0.6,2.4l-0.6,2.4l-0.6,2.4l-0.5,2.4l-0.5,2.4l-0.6,2.4l-0.5,2.4
	l-0.5,2.4l-0.5,2.4l-0.5,2.4l-0.1,0.1l-0.1,0.3l0.1,1l0.3,1.6v1.1l-0.4,0.5l-0.1,1L414.3,60.4z M364.8,0.2l0.4,0.1L365,0.5l-0.1-0.1
	L364.8,0.2z M366.3,5.7v0.4l-0.5,0.2h-0.3l-0.3-0.6L365,5.6l-0.1,0.8l-0.1,0.2L364,5.9l-0.1-0.4l0.4-0.3L365,5h0.2L366.3,5.7z
	 M363.4,7.6l0.1,0.6l-0.9-0.6l-0.4-0.4V6.9l0.1-0.9l0.2-0.3h0.5l0.5,1.4L363.4,7.6z M364.9,9.1l-0.2,0.1l-0.5-0.3L364,8.5V8.1
	l0.4-0.7l0.3-0.1l0.1,0.1V8l0.2,0.9L364.9,9.1z M366.1,13.8l-0.1,2.1l0.4-0.7l0.9,1.8l-0.2,0.7l-0.2,0.2h-0.3l-0.2-0.3l-0.1-0.5
	l-0.2-0.3l-0.6-0.3l-0.2-0.6v-0.4l0.3-1.1l-0.1-0.4l-0.3-0.2l-0.2-0.3l-0.3-0.9v-0.2l0.4-0.5l0.8-0.9l0.5-0.4l0.2,0.1l0.2,0.4
	l0.2,0.7l0,0.2l-1.7,0.3l-0.1,0.2l0.6,0.4l0.2,0.3L366.1,13.8z M364.4,22.2l-0.1,0.3l-0.4-0.5l-0.1-0.4l0.2-0.7l0.3-0.4l0.1-0.1
	l0.3,0.3l0.1,0.1L364.4,22.2z M364.5,25.4l-0.1,0.3l-0.5,0.1l-0.2-0.1l0.1-0.4l-0.1-0.1l-0.5,0.3l0.3-0.9l0.5-0.9h0.2l0.1,0.7
	L364.5,25.4z M359.2,26.8l-0.2,0.3l-0.1-0.1l-0.1-0.7l0.1-0.4l0.4-0.2l0.1,1L359.2,26.8z"/>
<path class="st0" d="M689.4,68.3l-0.3,0.3l-0.1-0.1l0-0.5l0.2-0.3l0.3-0.1l0.1,0.1V68L689.4,68.3z M686.6,70L686.6,70l-0.5-0.1
	l-0.1-0.2l0.1-0.2h0.2l0.3,0.3V70z M690,74.9L690,74.9l0.2,0.6l0.5-0.2l0.3,0.3l0.3,0.1L692,76l0.3,0.6l0.3,0.6l0.3,0.6l0.3,0.6
	l1.3,0.3l1.3,0.3l1.3,0.3l1.3,0.3l1.3,0.3l1.3,0.3l1.3,0.3l1.3,0.3l0.8,0.4l0.8,0.4L706,82l0.8,0.4h1.2l1,0.2l1.4-0.1l1.5,0.2
	l2.2,0.5l0.6,0.6l0.1,0.4l-0.1,1l2.1,0.7l0.9,0.6l0.4,0.5v0.4l0.3,0.9l-0.2,0.5l0.1,0.9l-0.4,0.9l-0.1,0.5v0.4l0.1,0.3l0.3,0.1
	l0.8-0.1l0.7-0.3l0.4,0.1l0.1,0.1V92l-0.5,1.6l0.1,0.6l0.3,0.6l0.5,0.6l0.5,0.2V96l-0.1,0l-0.5,0.7l-1.5,0.9l-0.2,0.5v0.4l-0.9,1.8
	l-0.4,1.1l-0.2,1.1l0.2,0.7l0.6,0.2l0.4-0.1l0.3-0.5l0.5-0.5l0.6-0.5l0.4-0.7l0.6-1.5l0.7-0.9l0.4-0.1h0.1l0.8-0.5l0.7,0.1l0.4,0.5
	l0.4,0.4l0.1,0.4l-0.1,0.8l-0.3,0.9l-0.5,1l-0.4,1.4l-0.3,1.9v1.4l0.3,0.9l-0.2,0.9l-0.7,0.8l-0.5,1l-0.3,1.3l-0.2,1.1v0.8l0.1,0.6
	l0.4,0.8v0.4l-0.6,1.9l-0.2,0.9v0.7l-0.1,0.7l-0.5,1.5l-0.1,0.8v0.7l0.2,1.2v0.4l0.1,0.3l0.2,0.2v0.4l-0.1,0.6l0.1,0.4l0.3,0.3
	l0.2,0.6l0.2,0.8l0.3,0.7l0.4,0.5l0.1,0.8l-0.1,1.1l0.1,2.1l0.1,0.7l-1.4,0.1l-5,0.4l-5,0.4l-5,0.3l-5,0.3l-5,0.3l-5.1,0.3l-0.1-0.1
	l-0.4-1.3l-1.2-0.9l-1.9-0.5l-1.3-1l-0.6-1.4l-0.4-1.5l-0.2-1.7l0.1-1.5l0.4-1.2l-0.2-0.8l-0.7-0.4l-0.5-0.5l-0.2-0.7l-0.1-0.9
	l-0.6-4.4l-0.6-2.1l-0.7-0.8l-1.5-0.9l-2.2-1l-1.4-1l-0.8-1.4l-1.6-1.6l-1-0.6l-1-0.2l-0.8-0.5l-0.6-0.8l-0.8-0.5l-1-0.2l-1.2-0.6
	l-1.4-1.2v-0.1l-0.3-0.9l0.1-0.5l0.2-1.7V100l-0.4-1l0.3-0.6l-0.1-1.9l0.1-0.6l0.7-1.6v-0.8l-0.3-0.9l-0.6-0.7l-1.5-0.7l-0.1-1
	l0.2-0.7l0.9-1.4l0.5-1.2l0.4-0.5l2.8-1.9l0.6-0.1l0.4-0.5l0.3-0.2l-0.1-2.2l-0.1-2.2l-0.1-2.2l-0.1-2.2l0.7-0.2l0.3-0.6l0.7-0.9
	h0.2l0,0l0.4,0.4l0.9,0.5h0.7l0.9-0.2l3.4-1.1l1.4-0.7l1.4-1.2h0.1l0.6,0.2l0.2,0.1l1.8-1.4l0.6-0.2h0.5l0.6,0.5l0.2,0.3l-0.2,0.6
	l-0.5,0.9l-0.2,0.8v0.6l-0.2,0.7l-0.5,0.9l0.2,0.2l1.6-0.7l0.2-0.3V74l-0.1-0.2l0.2-0.1l1.3,0.8l0.9,0.4l0.7,0.2L690,74.9z
	 M688.3,70l-0.3,0.1l-0.8-0.1v-0.2l0.8-0.3l0.3-0.1l0.1,0.1L688.3,70z M686.7,72.2l-0.6,0.2h-0.2l0.1-0.3l0.3-0.4l1.3-0.9h0.2
	l0.1,0.2l-0.6,0.5l-0.2,0.2v0.2L686.7,72.2z M728.7,90.5l-0.3,0.2h-0.6l-0.2-0.3l0.2-0.9l0.1,0.1h0.5l0.2,0.1l0.1,0.2V90.5z
	 M727.5,92.3l-0.2,0.2l-0.3-0.1l-0.1,0.3l0.1,0.7l-0.1,0.3h-0.3v0.1l0.3,0.3l0.1,0.3l-0.2,0.4l-0.2,0.2h-0.2l-0.2,0.4l-0.3,0.9
	l-0.1,0.5l0.1,0.1l-0.1,0.3l-0.9,1.4l-0.4,0.2l-0.4-0.1l-0.3-0.4l-0.2-0.6l-0.1-0.4V97l0.8-1.2l0.3-0.8l0.1-0.9l0.3-0.6l0.6-0.3
	l0.4-0.6l0.3-0.9l0.4-0.4l0.5,0.1l0.2,0.3L727.5,92.3z"/>
<path class="st0" d="M821.5,162.4l0.3,1.9l0.3,1.9l0.3,1.9l0.3,1.9l1.3-1.4l0.7-0.5l2-2.9l0.3-0.1l0.9,0.2l1.5-2.1l0.1-0.7l0.2-0.2
	h0.2l0.2,0.1v0.4l0.2,0.1l0.8,0.3h1.1h0.1l0.9-0.2l0.3-0.4l0.1-0.7l0.3-0.5l0.9-0.3l1.5-1l1-0.1l0.9,0.5l0.9,0.2l0.8-0.2l0.3,0.1
	l-0.1,0.4l0.3,0.4l0.7,0.3l0.3,0.4l-0.1,0.4l0.1,0.3l0.4,0.1l0.3,0.4l0.2,0.7l0.2,0.1l-0.4,1.9l-0.3,1.3l-1.5-0.8l-2.3-1.2l-1-0.5
	l-1.7-0.9l-0.2,0.7v1.1l-0.2,1.2l-0.1,1.6l-1.2,2.7l-1.1,1.4h-0.4l-0.3,0.3l-0.4,0.8l-0.6,0.8l-1.4,0.2l-0.5,0.6l-0.2,0.8l-0.2,1.1
	l-0.4,0.9l-0.3,1.5l-0.3,0.8l-0.7,0.5l-1.1,0.1l-1.4-0.3l-0.3-0.6l-0.4-0.3l-0.5-0.2l-0.5,0.2l-0.3,0.5l-0.2,2.2l-0.6,1.1l-0.2,1.1
	l-0.8,1.5l-0.4,2.1l-1.9,3.7l-0.5,1.2l-0.3,1.2l0.4,0.4l0.2,0.3l-0.4,0.9l-0.1,0.9l-0.6,0.7l-1,0.8l-0.4-0.4h-0.2l-2.3,1.4l-0.6,0.1
	l-0.7-0.2l-0.3,0.1l-0.2,0.1l-0.1,0.2l0.1,0.9l-0.4,0.5l-0.3,0.2l-1.3,0.3l-1.3,0.7l-0.6,0.1l-1.6-0.8l-0.7,0.9l-0.7,0.5l-0.8,0.8
	l-0.3,0.1l-0.9-0.1l-1.2-0.6l-1-0.3l-0.6-0.4L799,202l-0.5-0.9l-0.5-0.5l0.1-0.5l-0.2-0.5l-1.7-0.2l-2.3-1.4l-1.6-1.9L792,195
	l-0.6-0.6l-0.2-0.7l-1.5-1.5l-0.4-0.7l-0.1-0.5l0.3-1v-0.5l-0.5-2.2l-0.3-0.4l1.4,0.3l1.2-0.5l0.7-0.8l0.2-1.1l0.3-0.7l0.6-0.3
	l0.2-0.5l-0.3-1.1l-0.3-0.8l0.3-1.2l0.8-1.9l0.7-0.8l0.6,0.2l0.5,0.5l0.2,0.8l0.1,0.1h0.2l0.4-0.7l0.4-0.3h0.2h0.2v-0.4l-0.5-1
	l-0.1-0.6l0.3-0.2l0.3-0.8l0.2-1.3l0.4-0.7l0.6-0.1l0.5-0.6l0.5-1.1l0.6-0.4l0.6,0.3l0.7-0.1l0.8-0.5l1.2-1.3l1.7-2l0.8-1.5
	l-0.2-1.1l0.3-2.7l0.8-4.3l0.3-2.8l-0.2-1.2l-0.4-0.9l-0.5-0.7l0.1-0.6l1.2-0.9l0.3,1.7l0.3,1.7l0.3,1.7l0.3,1.7l0.3,1.7l0.3,1.7
	l0.3,1.7l0.3,1.7l1.5-0.3l1.5-0.3l1.5-0.3l1.5-0.3l1.5-0.3l1.5-0.3l1.5-0.3L821.5,162.4z"/>
<path class="st0" d="M543.7,126.7l-0.3,3.7l-0.3,3.7l-0.3,3.7l-0.3,3.7l-0.3,3.7l-0.3,3.7l-0.3,3.7l-0.3,3.7l-3.5-0.3l-3.5-0.3
	l-3.5-0.3l-3.5-0.4l-3.5-0.4l-3.5-0.4l-3.5-0.4l-3.5-0.4l-3.5-0.4l-3.5-0.4l-3.5-0.4l-3.5-0.5l-3.5-0.5l-3.5-0.5l-3.5-0.5l-3.5-0.5
	l-2.8-0.4l-2.8-0.4l-2.8-0.4l-2.8-0.4l-2.8-0.4l-2.8-0.5l-2.8-0.5l-2.8-0.5l0.3-1.8l0.3-1.8l0.3-1.8l0.3-1.8l0.3-1.8l0.3-1.8
	l0.3-1.8l0.3-1.8l0.4-2.3l0.4-2.3l0.4-2.3l0.4-2.3l0.4-2.3l0.4-2.3l0.4-2.3l0.4-2.3l0.4-2.3l0.4-2.3l0.4-2.3l0.4-2.3l0.4-2.3
	l0.4-2.3l0.4-2.3l0.4-2.3l0.3-1.9l0.3-1.9l0.3-1.9l0.3-1.9l2.3,0.4l2.3,0.4l2.3,0.4l2.3,0.4l2.3,0.4l2.3,0.3L489,90l2.3,0.3l2.3,0.3
	l2.3,0.3l2.3,0.3l2.3,0.3l2.3,0.3l2.3,0.3l2.3,0.3l2.3,0.3L512,93l2.3,0.3l2.3,0.3l2.3,0.3l2.3,0.3l2.3,0.3l2.3,0.3l2.3,0.3l2.3,0.2
	l2.3,0.2l2.3,0.2l2.3,0.2l2.3,0.2l2.3,0.2l2.3,0.2l2.3,0.2l-0.3,3.7l-0.3,3.7l-0.3,3.7l-0.3,3.7l-0.3,3.7l-0.3,3.7L544,123
	L543.7,126.7z"/>
<path class="st2" d="M17.7,90.5h18"/>
<path class="st2" d="M17.7,90.5h18"/>
<path class="st2" d="M17.7,91.5h18"/>
<path class="st2" d="M17.7,92.5h18"/>
<path class="st2" d="M17.7,93.5h18"/>
<path class="st2" d="M17.7,93.5h18"/>
<path class="st3" d="M17.5,92.5h17c1.1,0,2,0.2,2,0.5l0,0c0,0.3-0.9,0.5-2,0.5h-17c-1.1,0-2-0.2-2-0.5l0,0
	C15.5,92.7,16.4,92.5,17.5,92.5z"/>
</svg>
