<?xml version="1.0" encoding="utf-8"?>
<!-- Generator: Adobe Illustrator 22.1.0, SVG Export Plug-In . SVG Version: 6.00 Build 0)  -->
<svg version="1.1" id="Layer_1" xmlns="http://www.w3.org/2000/svg" xmlns:xlink="http://www.w3.org/1999/xlink" x="0px" y="0px"
	 viewBox="0 0 150 250" height='200' width='200' style="enable-background:new 0 0 160 159.1;" xml:space="preserve">
<style type="text/css">
	.st0{fill:#191919;}
</style>
<title>zm-tile</title>
<path class="st0" d="M9.5,157l-1.6-13.5l-5.8,5.8l-2.1-2l8.9-8.9l2,2l1.6,13.7l6.1-6.1l2.1,2.1l-9,9L9.5,157z M14.5,132.7l2.8-2.8
	l15.8,7.6l-2.7,2.7l-3.2-1.6l-4.3,4.3l1.6,3.2l-2.6,2.6L14.5,132.7z M21.6,140.2l3-3l-6.1-3.1L21.6,140.2z M25,124.6
	c0-1.9,0.8-3.7,2.2-5c2-2,4-2.7,6.2-2.3c1.1,0.2,2.1,0.6,3,1.4l-2.4,2.4c-0.6-0.4-1.2-0.6-1.9-0.7c-2.1,0-3.7,1.7-3.7,3.8
	c0,0.2,0,0.4,0,0.5c0.4,1.5,1.2,2.8,2.3,3.8c1,1.1,2.3,1.9,3.7,2.2c1.1,0.1,2.2-0.2,3-1.1c0.8-0.7,1.2-1.7,1.1-2.8
	c-0.1-0.7-0.4-1.4-0.8-2l2.4-2.4c1,1.4,1.6,3,1.5,4.7c-0.1,1.7-0.8,3.3-2.1,4.5c-1.4,1.6-3.4,2.4-5.6,2.3c-2-0.1-4-1.1-5.9-3
	C26.1,128.9,25,126.8,25,124.6L25,124.6z M46.3,124.3l-11.7-11.7l2.4-2.4l4.5,4.5l4.6-4.5l-4.4-4.5l2.4-2.4L55.8,115l-2.4,2.4
	l-5.3-5.2l-4.5,4.5l5.2,5.2L46.3,124.3z M60.5,86.6l3.5-3.5l11.7,11.7l-2.3,2.3l-7.9-7.9c-0.2-0.2-0.5-0.5-1-1
	c-0.4-0.4-0.7-0.7-0.9-1l7.6,12l-2.4,2.4l-12-7.6l1,0.9l1,0.9l7.9,7.9l-2.3,2.3L52.8,94.4l3.6-3.6l11.3,7.1L60.5,86.6z M66.6,80.5
	l2.5-2.5l7.2,7.2c0.6,0.6,1.3,1.1,2.1,1.5c0.9,0.4,1.9,0,2.9-0.9s1.3-2,0.9-2.9c-0.3-0.8-0.8-1.5-1.5-2l-7.2-7.2l2.4-2.5l7.2,7.2
	c1.1,1,1.8,2.2,2.3,3.5c0.5,2-0.2,4-2.2,6s-4,2.8-6,2.2c-1.3-0.5-2.5-1.3-3.5-2.3L66.6,80.5z M86.4,60.7l3.5-3.5l11.7,11.7l-2.2,2.3
	l-7.9-7.9c-0.2-0.2-0.5-0.5-1-1c-0.4-0.4-0.7-0.7-0.9-1l7.6,12l-2.4,2.4l-12-7.6l1,0.9c0.4,0.4,0.7,0.7,1,1l7.9,7.9l-2.3,2.3
	L78.7,68.5l3.6-3.6L93.6,72L86.4,60.7z M102.5,47.1c0.9,0.2,1.7,0.6,2.3,1.2c0.6,0.6,1.1,1.4,1.2,2.3c0,0.5,0,1.1-0.2,1.6
	c0.7-0.4,1.6-0.5,2.4-0.3c0.8,0.2,1.6,0.6,2.2,1.3c0.7,0.7,1.1,1.5,1.3,2.4c0.1,0.6,0.2,1.2,0.1,1.8c-0.1,0.7-0.3,1.3-0.7,1.9
	c-0.4,0.7-0.9,1.3-1.5,1.8l-5.3,5.3L92.6,54.7l5.6-5.6C99.7,47.5,101.1,46.9,102.5,47.1L102.5,47.1z M96.9,54.3l2.6,2.6l2.9-2.8
	c0.5-0.4,0.8-0.9,1-1.5c0.1-0.6-0.1-1.1-0.6-1.5c-0.4-0.5-1.1-0.7-1.7-0.4c-0.6,0.3-1.1,0.7-1.6,1.2L96.9,54.3z M101.4,58.8l3.1,3.1
	l2.8-2.8c0.4-0.4,0.8-0.9,1-1.4c0.2-0.8,0-1.7-0.7-2.2c-0.5-0.6-1.3-0.8-2-0.5c-0.5,0.2-1,0.6-1.4,1L101.4,58.8z M107.5,39.6
	l2.8-2.8l15.8,7.6l-2.7,2.7l-3.2-1.6l-4.2,4.3l1.6,3.2l-2.6,2.6L107.5,39.6z M114.6,47l3-3l-6.1-3.1L114.6,47z M115.6,31.4l2.5-2.5
	l7.2,7.2c0.6,0.6,1.3,1.1,2,1.5c0.9,0.4,1.9,0,2.9-0.9s1.3-2,0.9-2.9c-0.3-0.8-0.8-1.5-1.5-2l-7.2-7.2L125,22l7.2,7.2
	c1.1,1,1.9,2.2,2.4,3.6c0.6,2-0.2,4-2.2,6s-4,2.8-6,2.2c-1.3-0.5-2.5-1.3-3.5-2.3L115.6,31.4z M138.4,12.9l-6.2,6.2l2.5,2.5l5.7-5.7
	l2,2l-5.7,5.7l3,3l6.5-6.5l2.1,2.1l-8.9,8.9l-11.7-11.7l8.6-8.6L138.4,12.9z M146.5,1.3c0.6-0.2,1.3-0.3,1.9-0.3
	c0.6,0,1.1,0.2,1.6,0.4s1,0.6,1.4,1c0.6,0.6,1,1.3,1.2,2.1c0.3,0.8,0.2,1.8-0.3,2.5c0.6-0.3,1.4-0.4,2.1-0.2
	c0.8,0.3,1.6,0.8,2.2,1.5l0.8,0.8c0.4,0.4,0.7,0.7,1.2,1c0.3,0.2,0.7,0.3,1.1,0.2l0.3,0.3l-2.7,2.7c-0.3-0.2-0.6-0.3-0.8-0.5
	c-0.4-0.3-0.8-0.6-1.1-0.9l-1.1-1.1c-0.5-0.6-1.1-1-1.9-1.1c-0.7,0.1-1.3,0.5-1.8,1l-2.4,2.4l4.6,4.6l-2.4,2.4L138.8,8.4l5.6-5.6
	C145,2.2,145.7,1.6,146.5,1.3z M143.2,8.1l3.1,3.1l2.6-2.6c0.4-0.4,0.8-0.8,1-1.4c0.2-0.7,0-1.5-0.6-2c-0.5-0.6-1.3-0.9-2.1-0.8
	c-0.5,0.2-1,0.5-1.3,0.9L143.2,8.1z"/>
</svg>
