<svg xmlns="http://www.w3.org/2000/svg" viewBox="0 0 150 250" width='200px' height='200px'><title>zm-tile</title><path d="M11.86,196.2l-2-16.92-7.28,7.28L0,184l11.08-11.08,2.45,2.45,2,17.16,7.59-7.59,2.59,2.58L14.44,198.78Zm6.21-30.3,3.46-3.46,19.8,9.45L38,175.21l-4-2.05-5.38,5.39,2,4-3.19,3.19Zm8.9,9.29,3.75-3.74-7.61-3.91Zm4.29-19.42a8.52,8.52,0,0,1,2.69-6.3q3.66-3.66,7.76-2.92a7.43,7.43,0,0,1,3.73,1.72l-3.06,3.06a5.76,5.76,0,0,0-2.33-.84,4.69,4.69,0,0,0-4.6,5.39,9.23,9.23,0,0,0,2.86,4.74,8.21,8.21,0,0,0,4.68,2.7A4.39,4.39,0,0,0,46.74,162a4,4,0,0,0,1.35-3.44,6.72,6.72,0,0,0-.94-2.46l3-3a9.34,9.34,0,0,1,1.88,5.9,8.22,8.22,0,0,1-2.63,5.63,8.78,8.78,0,0,1-6.94,2.89q-3.81-.26-7.36-3.79Q31.3,159.86,31.26,155.77Zm26.59-.4L43.23,140.74l3-3,5.57,5.57,5.69-5.68L52,132l3-3,14.62,14.63-3,3L60,140.12l-5.68,5.68,6.53,6.53Zm17.83-47.08,4.4-4.4L94.7,118.52l-2.84,2.84L82,111.47c-.29-.28-.68-.68-1.19-1.2s-.9-.92-1.18-1.2l9.5,15-3,3-15-9.52,1.2,1.18,1.21,1.18,9.89,9.89-2.85,2.85L65.94,118l4.44-4.45,14.16,8.84Zm7.63-7.62,3.1-3.11,9,9A7.26,7.26,0,0,0,98,108.39c1.18.45,2.4,0,3.64-1.18s1.62-2.45,1.17-3.64a7.1,7.1,0,0,0-1.84-2.55l-9-9L95,88.93l9,9a10.67,10.67,0,0,1,2.9,4.36q1,3.72-2.75,7.51t-7.53,2.77a10.67,10.67,0,0,1-4.36-2.9ZM108,75.93l4.4-4.4,14.62,14.63L124.22,89l-9.89-9.89c-.29-.28-.68-.68-1.19-1.2s-.9-.92-1.18-1.2l9.5,15-3,3-15-9.52,1.2,1.18c.52.5.92.9,1.2,1.19l9.9,9.88-2.85,2.85L98.29,85.68l4.45-4.45,14.16,8.84Zm20.1-17a5.28,5.28,0,0,1,2.91,1.55,4.63,4.63,0,0,1,1.47,2.84,5,5,0,0,1-.28,2,4.57,4.57,0,0,1,3-.4,5.39,5.39,0,0,1,2.71,1.57,6,6,0,0,1,1.68,3,5.79,5.79,0,0,1,.12,2.19,5.7,5.7,0,0,1-.92,2.38,14.58,14.58,0,0,1-1.87,2.27l-6.59,6.59L115.73,68.24l7.06-7.06C124.61,59.42,126.39,58.67,128.14,59Zm-7,8.92,3.23,3.22L128,67.54a4.11,4.11,0,0,0,1.19-1.91,2,2,0,0,0-.69-1.88,1.85,1.85,0,0,0-2.14-.56,7.62,7.62,0,0,0-1.95,1.5Zm5.65,5.64,3.9,3.9,3.55-3.55a4.83,4.83,0,0,0,1.22-1.74,2.61,2.61,0,0,0-.86-2.79,2.22,2.22,0,0,0-2.5-.63,5.17,5.17,0,0,0-1.71,1.21Zm7.58-24,3.46-3.46,19.8,9.45-3.32,3.32-4-2L145,62.21l2,4-3.19,3.2Zm8.9,9.3,3.74-3.75-7.6-3.91Zm1.3-19.5,3.11-3.11,9,9a7.17,7.17,0,0,0,2.56,1.85c1.18.45,2.4.06,3.64-1.18s1.62-2.45,1.17-3.63a7.12,7.12,0,0,0-1.84-2.56l-9-9,3.11-3.11,9,9A10.79,10.79,0,0,1,168.25,41c.69,2.49-.24,5-2.76,7.52s-5.05,3.46-7.54,2.78a10.79,10.79,0,0,1-4.35-2.91ZM173,16.16l-7.74,7.74,3.1,3.11,7.11-7.1L178,22.44l-7.1,7.11,3.76,3.76,8.1-8.1,2.63,2.63L174.3,38.92,159.68,24.29,170.4,13.57ZM183.14,1.59a5,5,0,0,1,2.39-.35,6.56,6.56,0,0,1,2,.49A5.75,5.75,0,0,1,189.3,3a6.15,6.15,0,0,1,1.53,2.58,4.16,4.16,0,0,1-.32,3.16,3.84,3.84,0,0,1,2.6-.28,6.87,6.87,0,0,1,2.7,1.86l1,1a9.65,9.65,0,0,0,1.45,1.28,1.68,1.68,0,0,0,1.39.27l.37.37-3.37,3.37c-.42-.23-.75-.43-1-.59a10.33,10.33,0,0,1-1.39-1.12l-1.37-1.34a3.91,3.91,0,0,0-2.35-1.38,3.44,3.44,0,0,0-2.21,1.27l-3,3,5.73,5.74-3,3L173.47,10.51l7-7A8.87,8.87,0,0,1,183.14,1.59ZM179,10.07,182.92,14l3.28-3.29A4.93,4.93,0,0,0,187.44,9a2.35,2.35,0,0,0-.78-2.52A2.61,2.61,0,0,0,184,5.54a4.27,4.27,0,0,0-1.67,1.15Z"/></svg>