<?xml version="1.0" encoding="utf-8"?>
<!-- Generator: Adobe Illustrator 22.1.0, SVG Export Plug-In . SVG Version: 6.00 Build 0)  -->
<svg version="1.1" id="Layer_1" xmlns="http://www.w3.org/2000/svg" xmlns:xlink="http://www.w3.org/1999/xlink" x="0px" y="0px"
	 viewBox="0 0 500 500" style="enable-background:new 0 0 500 500;" xml:space="preserve">
<style type="text/css">
	.st0{fill:#969696;}
	.st1{fill:#646464;}
</style>
<g>
	<path class="st0" d="M250.5,1C112.7,1,1,112.7,1,250.5S112.7,500,250.5,500S500,388.3,500,250.5S388.3,1,250.5,1z M192.1,199.4
		L79.7,249l112.4,52.6v17.1L58.6,256v-14.1l133.4-59.5V199.4z M227.5,361.1h-14.9l62.7-221.3h14.9L227.5,361.1z M308.9,318.7v-17.1
		L421.3,249l-112.4-49.6v-17.1l133.4,59.5V256L308.9,318.7z"/>
	<path class="st1" d="M318.5,10.4l-35.8,129.5h7.6l-62.7,221.3h-6l-36,130.3c20.7,5.6,42.5,8.5,64.9,8.5
		C388.3,500,500,388.3,500,250.5C500,136.3,423.2,40,318.5,10.4z M442.4,256l-133.4,62.7v-17.1L421.3,249l-112.4-49.6v-17.1
		l133.4,59.5V256z"/>
</g>
</svg>
