<?xml version="1.0" encoding="utf-8"?>
<!-- Generator: Adobe Illustrator 22.1.0, SVG Export Plug-In . SVG Version: 6.00 Build 0)  -->
<svg version="1.1" id="Layer_1" xmlns="http://www.w3.org/2000/svg" xmlns:xlink="http://www.w3.org/1999/xlink" x="0px" y="0px"
	 viewBox="0 0 24 24" style="enable-background:new 0 0 24 24;" xml:space="preserve">
<path fill='white' d="M0,0v24h24V0H0z M10.5,8.3l5.5,3.2l-0.7,1.2L9.8,9.4C9.8,9.4,10.5,8.3,10.5,8.3z M9,11.4l6.2,1.7l-0.3,1.2l-6.2-1.7L9,11.4z
	 M8.4,14.2l6.5,0.6l-0.1,1.3l-6.5-0.6L8.4,14.2z M8.2,16.7h6.7V18H8.2V16.7z M17,20H6v-7h1v6h9v-6h1V20z M16.1,11.3l-3.6-5.2
	l1.1-0.8l3.6,5.2L16.1,11.3z M17.5,10.5l-1.1-6.2L17.8,4l1.1,6.2C18.8,10.2,17.5,10.5,17.5,10.5z"/>
</svg>
