<?xml version="1.0" encoding="utf-8"?>
<!-- Generator: Adobe Illustrator 22.1.0, SVG Export Plug-In . SVG Version: 6.00 Build 0)  -->
<svg version="1.1" id="Layer_1" xmlns="http://www.w3.org/2000/svg" xmlns:xlink="http://www.w3.org/1999/xlink" x="0px" y="0px"
	 viewBox="0 0 92 91.7" style="enable-background:new 0 0 92 91.7;" xml:space="preserve">
<path fill="#EDFDF6" class="st0" d="M50.8,38.7C51,38.5,50.6,39,50.8,38.7c6.9-10.2,24.3-13.2,33.7-5.2c4.8,4.1,6.5,9.8,7,15.8
	c1.2,13.8,0.2,27.7,0.5,41.5c0,0.8-0.3,0.8-0.9,0.8c-5.7,0-11.4,0-17,0c-1.1,0-1-0.5-1-1.2c0-10.2,0-20.4,0-30.6
	c0-2.3-0.2-4.6-0.7-6.8c-1.1-4.7-3.7-7-8.3-7.4c-5.2-0.4-9.1,1.7-10.9,5.9c-1.1,2.7-1.6,5.6-1.6,8.5c0,10.2,0,20.3,0,30.5
	c0,1-0.3,1.2-1.3,1.2c-5.5,0-11,0-16.6,0c-1,0-1.2-0.3-1.2-1.3c0.1-9.8,0-19.6,0-29.5c0-9.7,0-19.4,0-29.1c0-1.2,0.3-1.5,1.5-1.4
	c5.2,0.1,10.4,0.1,15.6,0c1,0,1.2,0.3,1.2,1.2"/>
<path fill="#EDFDF6" class="st0" d="M20.5,61.2c0,9.8,0,19.5,0,29.3c0,1-0.2,1.3-1.2,1.3c-5.6,0-11.1,0-16.7,0c-0.9,0-1.1-0.2-1.1-1.1
	c0-19.7,0-39.3,0-59c0-0.8,0.2-1.1,1.1-1.1c5.6,0,11.3,0,16.9,0c1,0,1.1,0.4,1.1,1.2C20.5,41.5,20.5,51.3,20.5,61.2z"/>
<path fill="#EDFDF6" class="st0" d="M11.1,22C5,22,0.1,17.2,0,11.1C-0.1,5,4.8,0.1,10.9,0s11,4.8,11.1,10.9C22,17,17.1,21.9,11.1,22z"/>
</svg>
